<svg width="204" height="94" viewBox="0 0 204 94" fill="none" xmlns="http://www.w3.org/2000/svg">
<g filter="url(#filter0_d_2904_2)">
<rect x="4" width="196" height="86" rx="10" fill="#403E90"/>
<g filter="url(#filter1_dd_2904_2)">
<path d="M19.17 12.226H18.288C18.084 12.226 17.964 12.124 17.928 11.92C17.928 11.884 17.91 11.746 17.874 11.506C17.85 11.254 17.82 10.93 17.784 10.534H12.672V15.052H17.568V16.456H12.672V20.704L13.68 20.902C13.872 20.938 13.968 21.052 13.968 21.244V22H9.612V21.244C9.612 21.052 9.702 20.938 9.882 20.902L10.908 20.704V10.426C10.332 10.318 9.99 10.246 9.882 10.21C9.702 10.174 9.612 10.06 9.612 9.868V9.112H19.17V12.226ZM24.8189 10.408C24.8189 10.54 24.7889 10.666 24.7289 10.786C24.6689 10.918 24.5909 11.02 24.4949 11.092C24.3629 11.2 24.2549 11.272 24.1709 11.308C24.0269 11.368 23.8949 11.398 23.7749 11.398C23.6549 11.398 23.5349 11.368 23.4149 11.308C23.2709 11.236 23.1629 11.164 23.0909 11.092C23.0069 11.008 22.9349 10.906 22.8749 10.786C22.8269 10.69 22.8029 10.564 22.8029 10.408C22.8029 10.252 22.8269 10.12 22.8749 10.012C22.9349 9.88 23.0069 9.772 23.0909 9.688C23.1629 9.616 23.2709 9.544 23.4149 9.472C23.5109 9.424 23.6309 9.4 23.7749 9.4C23.9309 9.4 24.0629 9.424 24.1709 9.472C24.2789 9.52 24.3929 9.592 24.5129 9.688C24.6089 9.772 24.6869 9.88 24.7469 10.012C24.7949 10.12 24.8189 10.252 24.8189 10.408ZM28.0229 10.408C28.0229 10.564 27.9989 10.69 27.9509 10.786C27.8909 10.906 27.8189 11.008 27.7349 11.092C27.6509 11.176 27.5429 11.248 27.4109 11.308C27.2669 11.368 27.1349 11.398 27.0149 11.398C26.8949 11.398 26.7629 11.368 26.6189 11.308C26.4989 11.248 26.3909 11.176 26.2949 11.092C26.2109 11.008 26.1389 10.906 26.0789 10.786C26.0309 10.69 26.0069 10.564 26.0069 10.408C26.0069 10.252 26.0309 10.12 26.0789 10.012C26.1269 9.892 26.1989 9.784 26.2949 9.688C26.3909 9.592 26.4989 9.52 26.6189 9.472C26.7269 9.424 26.8589 9.4 27.0149 9.4C27.1709 9.4 27.3029 9.424 27.4109 9.472C27.5429 9.52 27.6509 9.592 27.7349 9.688C27.8309 9.772 27.9029 9.88 27.9509 10.012C28.0109 10.156 28.0409 10.288 28.0409 10.408H28.0229ZM25.4129 12.748C26.0849 12.748 26.6909 12.856 27.2309 13.072C27.7469 13.276 28.2029 13.588 28.5989 14.008C28.9709 14.392 29.2589 14.884 29.4629 15.484C29.6549 16.048 29.7509 16.696 29.7509 17.428C29.7509 18.16 29.6549 18.808 29.4629 19.372C29.2589 19.972 28.9709 20.464 28.5989 20.848C28.2029 21.268 27.7469 21.58 27.2309 21.784C26.6909 22 26.0849 22.108 25.4129 22.108C24.7409 22.108 24.1349 22 23.5949 21.784C23.0789 21.58 22.6229 21.268 22.2269 20.848C21.8909 20.488 21.6029 19.996 21.3629 19.372C21.1469 18.796 21.0389 18.148 21.0389 17.428C21.0389 16.708 21.1469 16.06 21.3629 15.484C21.6029 14.86 21.8909 14.368 22.2269 14.008C22.6229 13.588 23.0789 13.276 23.5949 13.072C24.1349 12.856 24.7409 12.748 25.4129 12.748ZM25.4129 20.884C26.3369 20.884 27.0089 20.584 27.4289 19.984C27.8729 19.36 28.0949 18.514 28.0949 17.446C28.0949 16.378 27.8729 15.532 27.4289 14.908C27.0089 14.308 26.3369 14.008 25.4129 14.008C24.9449 14.008 24.5489 14.08 24.2249 14.224C23.8889 14.368 23.6069 14.596 23.3789 14.908C23.1389 15.22 22.9709 15.58 22.8749 15.988C22.7789 16.372 22.7309 16.864 22.7309 17.464C22.7309 18.04 22.7789 18.52 22.8749 18.904C22.9709 19.312 23.1389 19.672 23.3789 19.984C23.5829 20.26 23.8649 20.476 24.2249 20.632C24.5969 20.8 24.9929 20.884 25.4129 20.884ZM35.3915 14.746C36.0635 13.39 36.9875 12.712 38.1635 12.712C38.6315 12.712 39.0455 12.82 39.4055 13.036L39.2075 14.242C39.1715 14.398 39.0935 14.476 38.9735 14.476C38.8895 14.476 38.7455 14.446 38.5415 14.386C38.3375 14.326 38.0915 14.296 37.8035 14.296C36.7475 14.296 35.9675 14.932 35.4635 16.204V20.704L36.4895 20.902C36.6695 20.938 36.7595 21.052 36.7595 21.244V22H32.5655V21.244C32.5655 21.052 32.6555 20.938 32.8355 20.902L33.8615 20.704V14.206C33.2855 14.098 32.9435 14.026 32.8355 13.99C32.6555 13.954 32.5655 13.84 32.5655 13.648V12.892H34.7795C34.9475 12.892 35.0615 12.922 35.1215 12.982C35.1815 13.042 35.2295 13.156 35.2655 13.324L35.3735 14.746H35.3915ZM45.681 12.748C46.305 12.748 47.097 12.91 48.057 13.234V15.574H47.355C47.187 15.574 47.085 15.49 47.049 15.322L46.941 14.134C46.377 14.002 45.909 13.936 45.537 13.936H45.519C45.027 13.936 44.613 14.068 44.277 14.332C43.953 14.584 43.791 14.86 43.791 15.16C43.791 15.472 43.863 15.7 44.007 15.844C44.247 16.12 44.595 16.33 45.051 16.474L45.591 16.636C45.687 16.66 45.879 16.72 46.167 16.816L47.031 17.14C47.271 17.224 47.523 17.38 47.787 17.608C48.279 17.992 48.525 18.52 48.525 19.192C48.525 20.068 48.231 20.764 47.643 21.28C47.007 21.844 46.203 22.126 45.231 22.126C44.235 22.126 43.251 21.964 42.279 21.64V19.264H42.927C43.071 19.264 43.161 19.336 43.197 19.48L43.305 20.632C43.785 20.872 44.403 20.992 45.159 20.992C45.735 20.992 46.203 20.842 46.563 20.542C46.875 20.266 47.031 19.96 47.031 19.624C47.031 19.276 46.959 19.024 46.815 18.868C46.647 18.676 46.467 18.532 46.275 18.436C46.011 18.304 45.759 18.208 45.519 18.148C44.631 17.86 44.073 17.668 43.845 17.572C43.557 17.44 43.287 17.272 43.035 17.068C42.531 16.648 42.279 16.084 42.279 15.376C42.279 14.656 42.567 14.044 43.143 13.54C43.743 13.012 44.589 12.748 45.681 12.748ZM54.6119 22.144C53.9159 22.144 53.3639 21.94 52.9559 21.532C52.5719 21.148 52.3799 20.572 52.3799 19.804V14.224H51.2819C51.1739 14.224 51.0899 14.2 51.0299 14.152C50.9699 14.104 50.9399 14.014 50.9399 13.882V13.252L52.4339 13.054L52.7939 10.228C52.7939 10.132 52.8299 10.06 52.9019 10.012C52.9619 9.964 53.0459 9.94 53.1539 9.94H53.9639V13.072H56.5739V14.242H53.9639V19.714C53.9639 20.11 54.0539 20.398 54.2339 20.578C54.4139 20.758 54.6599 20.848 54.9719 20.848C55.1039 20.848 55.2539 20.824 55.4219 20.776C55.5299 20.74 55.6379 20.692 55.7459 20.632C55.7819 20.608 55.8179 20.584 55.8539 20.56C55.8899 20.536 55.9259 20.512 55.9619 20.488C56.0579 20.44 56.1179 20.416 56.1419 20.416C56.2259 20.416 56.2979 20.464 56.3579 20.56L56.8259 21.316C56.5019 21.592 56.1659 21.796 55.8179 21.928C55.4219 22.072 55.0199 22.144 54.6119 22.144ZM63.6709 12.748C64.1989 12.748 64.6969 12.838 65.1649 13.018C65.6449 13.198 66.0409 13.456 66.3529 13.792C66.7129 14.176 66.9769 14.602 67.1449 15.07C67.3369 15.61 67.4329 16.186 67.4329 16.798C67.4329 17.074 67.4089 17.242 67.3609 17.302C67.3009 17.386 67.1929 17.428 67.0369 17.428H60.9889C60.9889 18.004 61.0609 18.508 61.2049 18.94C61.3249 19.312 61.5289 19.66 61.8169 19.984C62.0809 20.284 62.3809 20.5 62.7169 20.632C63.0769 20.776 63.4609 20.848 63.8689 20.848C64.3009 20.848 64.6489 20.806 64.9129 20.722C65.1649 20.638 65.4169 20.536 65.6689 20.416C65.9329 20.284 66.1129 20.188 66.2089 20.128C66.3649 20.032 66.4849 19.984 66.5689 19.984C66.7009 19.984 66.8029 20.038 66.8749 20.146L67.3249 20.74C67.1569 20.956 66.9169 21.16 66.6049 21.352C66.2449 21.58 65.9509 21.73 65.7229 21.802C65.3629 21.922 65.0389 22.006 64.7509 22.054C64.3909 22.114 64.0609 22.144 63.7609 22.144C63.1369 22.144 62.5549 22.036 62.0149 21.82C61.4989 21.616 61.0369 21.298 60.6289 20.866C60.2449 20.47 59.9449 19.96 59.7289 19.336C59.5129 18.724 59.4049 18.028 59.4049 17.248C59.4049 16.624 59.5069 16.036 59.7109 15.484C59.9149 14.92 60.1969 14.44 60.5569 14.044C60.9289 13.636 61.3789 13.318 61.9069 13.09C62.4349 12.862 63.0229 12.748 63.6709 12.748ZM63.7069 13.918C62.9269 13.918 62.3209 14.14 61.8889 14.584C61.4449 15.052 61.1689 15.676 61.0609 16.456H66.0109C66.0109 16.084 65.9569 15.748 65.8489 15.448C65.7169 15.076 65.5729 14.806 65.4169 14.638C65.2129 14.422 64.9669 14.248 64.6789 14.116C64.4029 13.996 64.0729 13.936 63.6889 13.936L63.7069 13.918ZM73.1423 14.746C73.8143 13.39 74.7383 12.712 75.9143 12.712C76.3823 12.712 76.7963 12.82 77.1563 13.036L76.9583 14.242C76.9223 14.398 76.8443 14.476 76.7243 14.476C76.6403 14.476 76.4963 14.446 76.2923 14.386C76.0883 14.326 75.8423 14.296 75.5543 14.296C74.4983 14.296 73.7183 14.932 73.2143 16.204V20.704L74.2403 20.902C74.4203 20.938 74.5103 21.052 74.5103 21.244V22H70.3163V21.244C70.3163 21.052 70.4063 20.938 70.5863 20.902L71.6123 20.704V14.206C71.0363 14.098 70.6943 14.026 70.5863 13.99C70.4063 13.954 70.3163 13.84 70.3163 13.648V12.892H72.5303C72.6983 12.892 72.8123 12.922 72.8723 12.982C72.9323 13.042 72.9803 13.156 73.0163 13.324L73.1243 14.746H73.1423ZM96.227 20.884C96.311 20.908 96.377 20.95 96.425 21.01C96.473 21.058 96.497 21.124 96.497 21.208V22H94.625C94.313 22 94.085 21.874 93.941 21.622L90.593 17.014C90.509 16.894 90.401 16.792 90.269 16.708C90.161 16.636 89.981 16.6 89.729 16.6H88.577V20.668L89.585 20.884C89.669 20.908 89.735 20.95 89.783 21.01C89.843 21.058 89.873 21.124 89.873 21.208V21.982H85.535V21.208C85.535 21.124 85.559 21.058 85.607 21.01C85.655 20.95 85.721 20.908 85.805 20.884L86.849 20.668V10.408L85.805 10.192C85.721 10.168 85.655 10.132 85.607 10.084C85.559 10.024 85.535 9.952 85.535 9.868V9.076H90.305C91.109 9.076 91.817 9.16 92.429 9.328C93.029 9.496 93.521 9.736 93.905 10.048C94.301 10.372 94.589 10.75 94.769 11.182C94.949 11.614 95.039 12.112 95.039 12.676C95.039 13.12 94.967 13.54 94.823 13.936C94.679 14.32 94.469 14.68 94.193 15.016C93.917 15.352 93.587 15.622 93.203 15.826C92.723 16.09 92.279 16.264 91.871 16.348C92.087 16.48 92.279 16.66 92.447 16.888L95.237 20.704C95.813 20.8 96.149 20.86 96.245 20.884H96.227ZM90.197 15.34C90.725 15.34 91.175 15.28 91.547 15.16C91.907 15.04 92.231 14.86 92.519 14.62C92.783 14.392 92.981 14.128 93.113 13.828C93.245 13.528 93.311 13.18 93.311 12.784C93.311 12.028 93.059 11.452 92.555 11.056C92.063 10.672 91.313 10.48 90.305 10.48H88.559V15.34H90.197ZM102.863 12.748C103.391 12.748 103.889 12.838 104.357 13.018C104.837 13.198 105.233 13.456 105.545 13.792C105.905 14.176 106.169 14.602 106.337 15.07C106.529 15.61 106.625 16.186 106.625 16.798C106.625 17.074 106.601 17.242 106.553 17.302C106.493 17.386 106.385 17.428 106.229 17.428H100.181C100.181 18.004 100.253 18.508 100.397 18.94C100.517 19.312 100.721 19.66 101.009 19.984C101.273 20.284 101.573 20.5 101.909 20.632C102.269 20.776 102.653 20.848 103.061 20.848C103.493 20.848 103.841 20.806 104.105 20.722C104.357 20.638 104.609 20.536 104.861 20.416C105.125 20.284 105.305 20.188 105.401 20.128C105.557 20.032 105.677 19.984 105.761 19.984C105.893 19.984 105.995 20.038 106.067 20.146L106.517 20.74C106.349 20.956 106.109 21.16 105.797 21.352C105.437 21.58 105.143 21.73 104.915 21.802C104.555 21.922 104.231 22.006 103.943 22.054C103.583 22.114 103.253 22.144 102.953 22.144C102.329 22.144 101.747 22.036 101.207 21.82C100.691 21.616 100.229 21.298 99.8211 20.866C99.4371 20.47 99.1371 19.96 98.9211 19.336C98.7051 18.724 98.5971 18.028 98.5971 17.248C98.5971 16.624 98.6991 16.036 98.9031 15.484C99.1071 14.92 99.3891 14.44 99.7491 14.044C100.121 13.636 100.571 13.318 101.099 13.09C101.627 12.862 102.215 12.748 102.863 12.748ZM102.899 13.918C102.119 13.918 101.513 14.14 101.081 14.584C100.637 15.052 100.361 15.676 100.253 16.456H105.203C105.203 16.084 105.149 15.748 105.041 15.448C104.909 15.076 104.765 14.806 104.609 14.638C104.405 14.422 104.159 14.248 103.871 14.116C103.595 13.996 103.265 13.936 102.881 13.936L102.899 13.918ZM113.054 12.748C113.678 12.748 114.47 12.91 115.43 13.234V15.574H114.728C114.56 15.574 114.458 15.49 114.422 15.322L114.314 14.134C113.75 14.002 113.282 13.936 112.91 13.936H112.892C112.4 13.936 111.986 14.068 111.65 14.332C111.326 14.584 111.164 14.86 111.164 15.16C111.164 15.472 111.236 15.7 111.38 15.844C111.62 16.12 111.968 16.33 112.424 16.474L112.964 16.636C113.06 16.66 113.252 16.72 113.54 16.816L114.404 17.14C114.644 17.224 114.896 17.38 115.16 17.608C115.652 17.992 115.898 18.52 115.898 19.192C115.898 20.068 115.604 20.764 115.016 21.28C114.38 21.844 113.576 22.126 112.604 22.126C111.608 22.126 110.624 21.964 109.652 21.64V19.264H110.3C110.444 19.264 110.534 19.336 110.57 19.48L110.678 20.632C111.158 20.872 111.776 20.992 112.532 20.992C113.108 20.992 113.576 20.842 113.936 20.542C114.248 20.266 114.404 19.96 114.404 19.624C114.404 19.276 114.332 19.024 114.188 18.868C114.02 18.676 113.84 18.532 113.648 18.436C113.384 18.304 113.132 18.208 112.892 18.148C112.004 17.86 111.446 17.668 111.218 17.572C110.93 17.44 110.66 17.272 110.408 17.068C109.904 16.648 109.652 16.084 109.652 15.376C109.652 14.656 109.94 14.044 110.516 13.54C111.116 13.012 111.962 12.748 113.054 12.748ZM123.306 12.748C123.966 12.748 124.566 12.856 125.106 13.072C125.634 13.288 126.096 13.6 126.492 14.008C126.864 14.392 127.152 14.884 127.356 15.484C127.56 16.072 127.662 16.72 127.662 17.428C127.662 18.136 127.56 18.784 127.356 19.372C127.152 19.972 126.864 20.464 126.492 20.848C126.096 21.256 125.634 21.568 125.106 21.784C124.566 22 123.966 22.108 123.306 22.108C122.646 22.108 122.046 22 121.506 21.784C120.978 21.568 120.516 21.256 120.12 20.848C119.76 20.476 119.466 19.984 119.238 19.372C119.046 18.856 118.95 18.208 118.95 17.428C118.95 16.648 119.046 16 119.238 15.484C119.466 14.872 119.76 14.38 120.12 14.008C120.516 13.6 120.978 13.288 121.506 13.072C122.046 12.856 122.646 12.748 123.306 12.748ZM123.306 20.884C124.23 20.884 124.902 20.584 125.322 19.984C125.766 19.36 125.988 18.514 125.988 17.446C125.988 16.378 125.766 15.532 125.322 14.908C124.902 14.308 124.23 14.008 123.306 14.008C122.838 14.008 122.442 14.08 122.118 14.224C121.806 14.368 121.53 14.596 121.29 14.908C121.062 15.22 120.894 15.58 120.786 15.988C120.666 16.468 120.606 16.96 120.606 17.464C120.606 17.944 120.666 18.424 120.786 18.904C120.894 19.312 121.062 19.672 121.29 19.984C121.494 20.26 121.77 20.476 122.118 20.632C122.502 20.8 122.898 20.884 123.306 20.884ZM133.284 14.188C134.184 13.216 135.192 12.73 136.308 12.73C137.292 12.73 138.048 13.048 138.576 13.684C139.092 14.308 139.35 15.142 139.35 16.186V20.668C139.926 20.776 140.268 20.848 140.376 20.884C140.568 20.92 140.664 21.034 140.664 21.226V22H137.748V16.204C137.748 14.74 137.112 14.008 135.84 14.008C134.94 14.008 134.112 14.434 133.356 15.286V20.686C133.404 20.686 133.752 20.758 134.4 20.902C134.58 20.938 134.67 21.052 134.67 21.244V22H130.476V21.244C130.476 21.052 130.56 20.938 130.728 20.902L131.772 20.704V14.206C131.172 14.098 130.824 14.026 130.728 13.99C130.56 13.954 130.476 13.84 130.476 13.648V12.892H132.708C132.924 12.892 133.068 13 133.14 13.216L133.284 14.206V14.188ZM151.41 20.848C151.494 20.86 151.56 20.902 151.608 20.974C151.656 21.034 151.68 21.106 151.68 21.19V21.964H149.808C149.7 21.964 149.574 21.94 149.43 21.892C149.346 21.868 149.286 21.772 149.25 21.604L149.07 20.74L148.35 21.334C148.146 21.502 147.906 21.646 147.63 21.766C147.366 21.886 147.102 21.976 146.838 22.036C146.598 22.096 146.274 22.126 145.866 22.126C145.53 22.126 145.206 22.072 144.894 21.964C144.522 21.832 144.252 21.688 144.084 21.532C143.868 21.34 143.688 21.088 143.544 20.776C143.412 20.5 143.346 20.14 143.346 19.696C143.346 19.312 143.442 18.964 143.634 18.652C143.85 18.304 144.174 18.004 144.606 17.752C145.086 17.476 145.662 17.26 146.334 17.104C147.03 16.948 147.906 16.87 148.962 16.87V16.168C148.962 15.46 148.806 14.92 148.494 14.548C148.182 14.176 147.732 13.99 147.144 13.99C146.76 13.99 146.43 14.044 146.154 14.152C145.842 14.272 145.614 14.38 145.47 14.476C145.398 14.524 145.314 14.578 145.218 14.638C145.134 14.686 145.044 14.74 144.948 14.8C144.816 14.896 144.678 14.944 144.534 14.944C144.402 14.944 144.306 14.92 144.246 14.872C144.174 14.812 144.114 14.74 144.066 14.656L143.778 14.152C144.246 13.696 144.786 13.336 145.398 13.072C145.95 12.832 146.598 12.712 147.342 12.712C147.882 12.712 148.338 12.796 148.71 12.964C149.118 13.144 149.448 13.372 149.7 13.648C149.964 13.924 150.168 14.284 150.312 14.728C150.444 15.124 150.51 15.592 150.51 16.132V20.686C151.086 20.806 151.386 20.872 151.41 20.884V20.848ZM148.926 17.896C148.146 17.896 147.522 17.938 147.054 18.022C146.598 18.106 146.178 18.232 145.794 18.4C145.458 18.556 145.218 18.736 145.074 18.94C144.93 19.156 144.858 19.384 144.858 19.624C144.858 19.816 144.9 20.02 144.984 20.236C145.056 20.416 145.164 20.56 145.308 20.668C145.452 20.776 145.608 20.854 145.776 20.902C145.98 20.962 146.178 20.992 146.37 20.992C146.61 20.992 146.862 20.962 147.126 20.902C147.366 20.842 147.588 20.764 147.792 20.668C147.972 20.584 148.17 20.452 148.386 20.272C148.506 20.176 148.686 20.008 148.926 19.768V17.896ZM157.362 14.188C158.262 13.216 159.27 12.73 160.386 12.73C161.37 12.73 162.126 13.048 162.654 13.684C163.17 14.308 163.428 15.142 163.428 16.186V20.668C164.004 20.776 164.346 20.848 164.454 20.884C164.646 20.92 164.742 21.034 164.742 21.226V22H161.826V16.204C161.826 14.74 161.19 14.008 159.918 14.008C159.018 14.008 158.19 14.434 157.434 15.286V20.686C157.482 20.686 157.83 20.758 158.478 20.902C158.658 20.938 158.748 21.052 158.748 21.244V22H154.554V21.244C154.554 21.052 154.638 20.938 154.806 20.902L155.85 20.704V14.206C155.25 14.098 154.902 14.026 154.806 13.99C154.638 13.954 154.554 13.84 154.554 13.648V12.892H156.786C157.002 12.892 157.146 13 157.218 13.216L157.362 14.206V14.188ZM174.768 20.722C174.012 21.658 172.884 22.126 171.384 22.126C170.232 22.126 169.284 21.712 168.54 20.884C167.76 20.008 167.37 18.856 167.37 17.428C167.37 16.036 167.736 14.914 168.468 14.062C169.236 13.186 170.304 12.748 171.672 12.748C172.356 12.748 173.256 12.964 174.372 13.396V15.772H173.652C173.484 15.772 173.382 15.688 173.346 15.52C173.334 15.484 173.31 15.256 173.274 14.836L173.22 14.242C173.088 14.194 172.956 14.158 172.824 14.134C172.704 14.11 172.62 14.092 172.572 14.08C172.248 14.032 171.912 14.008 171.564 14.008C171.252 14.008 170.922 14.086 170.574 14.242C170.25 14.386 169.968 14.608 169.728 14.908C169.272 15.508 169.044 16.348 169.044 17.428C169.044 18.508 169.284 19.36 169.764 19.984C170.232 20.584 170.874 20.884 171.69 20.884C172.446 20.884 173.112 20.632 173.688 20.128C173.784 20.032 173.904 19.984 174.048 19.984C174.18 19.984 174.276 20.032 174.336 20.128L174.768 20.722ZM182.031 12.748C182.559 12.748 183.057 12.838 183.525 13.018C184.005 13.198 184.401 13.456 184.713 13.792C185.073 14.176 185.337 14.602 185.505 15.07C185.697 15.61 185.793 16.186 185.793 16.798C185.793 17.074 185.769 17.242 185.721 17.302C185.661 17.386 185.553 17.428 185.397 17.428H179.349C179.349 18.004 179.421 18.508 179.565 18.94C179.685 19.312 179.889 19.66 180.177 19.984C180.441 20.284 180.741 20.5 181.077 20.632C181.437 20.776 181.821 20.848 182.229 20.848C182.661 20.848 183.009 20.806 183.273 20.722C183.525 20.638 183.777 20.536 184.029 20.416C184.293 20.284 184.473 20.188 184.569 20.128C184.725 20.032 184.845 19.984 184.929 19.984C185.061 19.984 185.163 20.038 185.235 20.146L185.685 20.74C185.517 20.956 185.277 21.16 184.965 21.352C184.605 21.58 184.311 21.73 184.083 21.802C183.723 21.922 183.399 22.006 183.111 22.054C182.751 22.114 182.421 22.144 182.121 22.144C181.497 22.144 180.915 22.036 180.375 21.82C179.859 21.616 179.397 21.298 178.989 20.866C178.605 20.47 178.305 19.96 178.089 19.336C177.873 18.724 177.765 18.028 177.765 17.248C177.765 16.624 177.867 16.036 178.071 15.484C178.275 14.92 178.557 14.44 178.917 14.044C179.289 13.636 179.739 13.318 180.267 13.09C180.795 12.862 181.383 12.748 182.031 12.748ZM182.067 13.918C181.287 13.918 180.681 14.14 180.249 14.584C179.805 15.052 179.529 15.676 179.421 16.456H184.371C184.371 16.084 184.317 15.748 184.209 15.448C184.077 15.076 183.933 14.806 183.777 14.638C183.573 14.422 183.327 14.248 183.039 14.116C182.763 13.996 182.433 13.936 182.049 13.936L182.067 13.918ZM18.864 39.226H18C17.784 39.226 17.658 39.124 17.622 38.92L17.496 37.534H12.672V41.818H17.424V43.186H12.672V47.596H17.496L17.604 46.3C17.64 46.108 17.772 46.012 18 46.012H18.864V49H9.612V48.244C9.612 48.052 9.702 47.938 9.882 47.902L10.908 47.704V37.426C10.332 37.318 9.99 37.246 9.882 37.21C9.702 37.174 9.612 37.06 9.612 36.868V36.112H18.864V39.226ZM24.7845 41.188C25.6845 40.216 26.6925 39.73 27.8085 39.73C28.7925 39.73 29.5485 40.048 30.0765 40.684C30.5925 41.308 30.8505 42.142 30.8505 43.186V47.668C31.4265 47.776 31.7685 47.848 31.8765 47.884C32.0685 47.92 32.1645 48.034 32.1645 48.226V49H29.2485V43.204C29.2485 41.74 28.6125 41.008 27.3405 41.008C26.4405 41.008 25.6125 41.434 24.8565 42.286V47.686C24.9045 47.686 25.2525 47.758 25.9005 47.902C26.0805 47.938 26.1705 48.052 26.1705 48.244V49H21.9765V48.244C21.9765 48.052 22.0605 47.938 22.2285 47.902L23.2725 47.704V41.206C22.6725 41.098 22.3245 41.026 22.2285 40.99C22.0605 40.954 21.9765 40.84 21.9765 40.648V39.892H24.2085C24.4245 39.892 24.5685 40 24.6405 40.216L24.7845 41.206V41.188ZM39.0405 39.748C39.5685 39.748 40.0665 39.838 40.5345 40.018C41.0145 40.198 41.4105 40.456 41.7225 40.792C42.0825 41.176 42.3465 41.602 42.5145 42.07C42.7065 42.61 42.8025 43.186 42.8025 43.798C42.8025 44.074 42.7785 44.242 42.7305 44.302C42.6705 44.386 42.5625 44.428 42.4065 44.428H36.3585C36.3585 45.004 36.4305 45.508 36.5745 45.94C36.6945 46.312 36.8985 46.66 37.1865 46.984C37.4505 47.284 37.7505 47.5 38.0865 47.632C38.4465 47.776 38.8305 47.848 39.2385 47.848C39.6705 47.848 40.0185 47.806 40.2825 47.722C40.5345 47.638 40.7865 47.536 41.0385 47.416C41.3025 47.284 41.4825 47.188 41.5785 47.128C41.7345 47.032 41.8545 46.984 41.9385 46.984C42.0705 46.984 42.1725 47.038 42.2445 47.146L42.6945 47.74C42.5265 47.956 42.2865 48.16 41.9745 48.352C41.6145 48.58 41.3205 48.73 41.0925 48.802C40.7325 48.922 40.4085 49.006 40.1205 49.054C39.7605 49.114 39.4305 49.144 39.1305 49.144C38.5065 49.144 37.9245 49.036 37.3845 48.82C36.8685 48.616 36.4065 48.298 35.9985 47.866C35.6145 47.47 35.3145 46.96 35.0985 46.336C34.8825 45.724 34.7745 45.028 34.7745 44.248C34.7745 43.624 34.8765 43.036 35.0805 42.484C35.2845 41.92 35.5665 41.44 35.9265 41.044C36.2985 40.636 36.7485 40.318 37.2765 40.09C37.8045 39.862 38.3925 39.748 39.0405 39.748ZM39.0765 40.918C38.2965 40.918 37.6905 41.14 37.2585 41.584C36.8145 42.052 36.5385 42.676 36.4305 43.456H41.3805C41.3805 43.084 41.3265 42.748 41.2185 42.448C41.0865 42.076 40.9425 41.806 40.7865 41.638C40.5825 41.422 40.3365 41.248 40.0485 41.116C39.7725 40.996 39.4425 40.936 39.0585 40.936L39.0765 40.918ZM48.5118 41.746C49.1838 40.39 50.1078 39.712 51.2838 39.712C51.7518 39.712 52.1658 39.82 52.5258 40.036L52.3278 41.242C52.2918 41.398 52.2138 41.476 52.0938 41.476C52.0098 41.476 51.8658 41.446 51.6618 41.386C51.4578 41.326 51.2118 41.296 50.9238 41.296C49.8678 41.296 49.0878 41.932 48.5838 43.204V47.704L49.6098 47.902C49.7898 47.938 49.8798 48.052 49.8798 48.244V49H45.6858V48.244C45.6858 48.052 45.7758 47.938 45.9558 47.902L46.9818 47.704V41.206C46.4058 41.098 46.0638 41.026 45.9558 40.99C45.7758 40.954 45.6858 40.84 45.6858 40.648V39.892H47.8998C48.0678 39.892 48.1818 39.922 48.2418 39.982C48.3018 40.042 48.3498 40.156 48.3858 40.324L48.4938 41.746H48.5118ZM58.7654 39.766C59.1734 39.766 59.5394 39.808 59.8634 39.892C60.2114 39.988 60.5234 40.12 60.7994 40.288H63.2834V40.882C63.2834 41.074 63.1574 41.2 62.9054 41.26L61.8794 41.404C62.0714 41.752 62.1674 42.184 62.1674 42.7C62.1674 43.168 62.0834 43.57 61.9154 43.906C61.7234 44.29 61.4894 44.596 61.2134 44.824C60.8774 45.1 60.5174 45.304 60.1334 45.436C59.7494 45.568 59.2934 45.634 58.7654 45.634C58.3334 45.634 57.9314 45.58 57.5594 45.472C57.3914 45.568 57.2474 45.7 57.1274 45.868C57.0314 46 56.9834 46.132 56.9834 46.264C56.9834 46.492 57.0674 46.654 57.2354 46.75C57.4394 46.87 57.6734 46.948 57.9374 46.984C58.3214 47.032 58.6514 47.056 58.9274 47.056C59.1674 47.056 59.5394 47.08 60.0434 47.128C60.1394 47.14 60.3014 47.158 60.5294 47.182C60.7694 47.194 60.9794 47.218 61.1594 47.254C61.5434 47.326 61.8734 47.434 62.1494 47.578C62.4134 47.71 62.6474 47.92 62.8514 48.208C63.0194 48.448 63.1034 48.784 63.1034 49.216C63.1034 49.636 63.0074 50.02 62.8154 50.368C62.6354 50.704 62.3474 51.028 61.9514 51.34C61.6034 51.616 61.1594 51.844 60.6194 52.024C60.1154 52.192 59.5154 52.276 58.8194 52.276C58.0994 52.276 57.5114 52.21 57.0554 52.078C56.5514 51.934 56.1374 51.754 55.8134 51.538C55.4894 51.322 55.2434 51.064 55.0754 50.764C54.9074 50.464 54.8234 50.164 54.8234 49.864C54.8234 49.42 54.9674 49.036 55.2554 48.712C55.5434 48.388 55.9394 48.136 56.4434 47.956C56.1914 47.848 55.9874 47.686 55.8314 47.47C55.6754 47.254 55.5974 46.984 55.5974 46.66C55.5974 46.588 55.6214 46.456 55.6694 46.264C55.7054 46.12 55.7774 45.976 55.8854 45.832C55.9814 45.7 56.1074 45.568 56.2634 45.436C56.3114 45.388 56.4794 45.28 56.7674 45.112C56.3114 44.86 55.9574 44.524 55.7054 44.104C55.4534 43.684 55.3274 43.198 55.3274 42.646C55.3274 42.178 55.4114 41.776 55.5794 41.44C55.7594 41.068 55.9994 40.762 56.2994 40.522C56.5994 40.27 56.9714 40.072 57.4154 39.928C57.8114 39.796 58.2734 39.73 58.8014 39.73L58.7654 39.766ZM58.7834 44.608C59.0954 44.608 59.3834 44.56 59.6474 44.464C59.8754 44.38 60.0854 44.254 60.2774 44.086C60.4454 43.93 60.5714 43.732 60.6554 43.492C60.7394 43.24 60.7814 42.994 60.7814 42.754C60.7814 42.19 60.6074 41.746 60.2594 41.422C59.9234 41.098 59.4314 40.936 58.7834 40.936C58.1474 40.936 57.6554 41.098 57.3074 41.422C56.9714 41.746 56.8034 42.19 56.8034 42.754C56.8034 43.018 56.8514 43.264 56.9474 43.492C57.0554 43.744 57.1814 43.936 57.3254 44.068C57.5174 44.236 57.7274 44.362 57.9554 44.446C58.1954 44.53 58.4714 44.572 58.7834 44.572V44.608ZM61.6274 49.54C61.6274 49.312 61.5674 49.132 61.4474 49C61.3274 48.856 61.1534 48.748 60.9254 48.676C60.6974 48.604 60.4514 48.55 60.1874 48.514C59.8034 48.466 59.5034 48.436 59.2874 48.424L58.3334 48.388C58.2734 48.388 57.9674 48.352 57.4154 48.28C57.0674 48.448 56.7854 48.646 56.5694 48.874C56.3534 49.114 56.2454 49.396 56.2454 49.72C56.2454 49.924 56.2994 50.116 56.4074 50.296C56.5154 50.464 56.6774 50.614 56.8934 50.746C57.1214 50.878 57.3914 50.98 57.7034 51.052C58.0274 51.124 58.4114 51.16 58.8554 51.16C59.2274 51.16 59.6114 51.118 60.0074 51.034C60.3194 50.974 60.6074 50.86 60.8714 50.692C61.1114 50.548 61.2914 50.38 61.4114 50.188C61.5434 49.984 61.6094 49.768 61.6094 49.54H61.6274ZM75.9344 40.648C75.9344 40.828 75.8444 40.936 75.6644 40.972C75.6164 40.972 75.5444 40.984 75.4484 41.008C75.3644 41.032 75.2744 41.056 75.1784 41.08L74.7284 41.17L70.2104 51.682C70.1624 51.802 70.0844 51.898 69.9764 51.97C69.8804 52.042 69.7664 52.078 69.6344 52.078H68.4464L70.1024 48.46L66.8984 41.152C66.5384 41.092 66.2684 41.032 66.0884 40.972C65.9084 40.936 65.8184 40.828 65.8184 40.648V39.874H69.9044V40.648C69.9044 40.828 69.8144 40.936 69.6344 40.972C69.5144 41.008 69.1784 41.08 68.6264 41.188L70.6604 45.94C70.7204 46.072 70.7684 46.228 70.8044 46.408C70.8524 46.588 70.8824 46.708 70.8944 46.768C70.9784 46.48 71.0744 46.204 71.1824 45.94L73.1444 41.188C73.1444 41.188 72.8144 41.122 72.1544 40.99C71.9864 40.954 71.9024 40.84 71.9024 40.648V39.892H75.2864L75.9344 39.874V40.648ZM94.7722 38.956H93.8902C93.6982 38.956 93.5842 38.896 93.5482 38.776C93.4882 38.572 93.4282 38.176 93.3682 37.588H90.3442V47.704L90.5602 47.74C91.1122 47.848 91.4122 47.908 91.4602 47.92C91.5802 47.956 91.6402 48.064 91.6402 48.244V49H87.2842V48.244C87.2842 48.148 87.3082 48.07 87.3562 48.01C87.4162 47.938 87.4942 47.896 87.5902 47.884L88.5802 47.686V37.57H85.5382C85.4662 38.242 85.4122 38.644 85.3762 38.776C85.3402 38.896 85.2202 38.956 85.0162 38.956H84.1522V36.112H94.7722V38.956ZM98.8732 41.746C99.5452 40.39 100.469 39.712 101.645 39.712C102.113 39.712 102.527 39.82 102.887 40.036L102.689 41.242C102.653 41.398 102.575 41.476 102.455 41.476C102.371 41.476 102.227 41.446 102.023 41.386C101.819 41.326 101.573 41.296 101.285 41.296C100.229 41.296 99.4492 41.932 98.9452 43.204V47.704L99.9712 47.902C100.151 47.938 100.241 48.052 100.241 48.244V49H96.0472V48.244C96.0472 48.052 96.1372 47.938 96.3172 47.902L97.3432 47.704V41.206C96.7672 41.098 96.4252 41.026 96.3172 40.99C96.1372 40.954 96.0472 40.84 96.0472 40.648V39.892H98.2612C98.4292 39.892 98.5432 39.922 98.6032 39.982C98.6632 40.042 98.7112 40.156 98.7472 40.324L98.8552 41.746H98.8732ZM113.167 47.848C113.251 47.86 113.317 47.902 113.365 47.974C113.413 48.034 113.437 48.106 113.437 48.19V48.964H111.565C111.457 48.964 111.331 48.94 111.187 48.892C111.103 48.868 111.043 48.772 111.007 48.604L110.827 47.74L110.107 48.334C109.903 48.502 109.663 48.646 109.387 48.766C109.123 48.886 108.859 48.976 108.595 49.036C108.355 49.096 108.031 49.126 107.623 49.126C107.287 49.126 106.963 49.072 106.651 48.964C106.279 48.832 106.009 48.688 105.841 48.532C105.625 48.34 105.445 48.088 105.301 47.776C105.169 47.5 105.103 47.14 105.103 46.696C105.103 46.312 105.199 45.964 105.391 45.652C105.607 45.304 105.931 45.004 106.363 44.752C106.843 44.476 107.419 44.26 108.091 44.104C108.787 43.948 109.663 43.87 110.719 43.87V43.168C110.719 42.46 110.563 41.92 110.251 41.548C109.939 41.176 109.489 40.99 108.901 40.99C108.517 40.99 108.187 41.044 107.911 41.152C107.599 41.272 107.371 41.38 107.227 41.476C107.155 41.524 107.071 41.578 106.975 41.638C106.891 41.686 106.801 41.74 106.705 41.8C106.573 41.896 106.435 41.944 106.291 41.944C106.159 41.944 106.063 41.92 106.003 41.872C105.931 41.812 105.871 41.74 105.823 41.656L105.535 41.152C106.003 40.696 106.543 40.336 107.155 40.072C107.707 39.832 108.355 39.712 109.099 39.712C109.639 39.712 110.095 39.796 110.467 39.964C110.875 40.144 111.205 40.372 111.457 40.648C111.721 40.924 111.925 41.284 112.069 41.728C112.201 42.124 112.267 42.592 112.267 43.132V47.686C112.843 47.806 113.143 47.872 113.167 47.884V47.848ZM110.683 44.896C109.903 44.896 109.279 44.938 108.811 45.022C108.355 45.106 107.935 45.232 107.551 45.4C107.215 45.556 106.975 45.736 106.831 45.94C106.687 46.156 106.615 46.384 106.615 46.624C106.615 46.816 106.657 47.02 106.741 47.236C106.813 47.416 106.921 47.56 107.065 47.668C107.209 47.776 107.365 47.854 107.533 47.902C107.737 47.962 107.935 47.992 108.127 47.992C108.367 47.992 108.619 47.962 108.883 47.902C109.123 47.842 109.345 47.764 109.549 47.668C109.729 47.584 109.927 47.452 110.143 47.272C110.263 47.176 110.443 47.008 110.683 46.768V44.896ZM119.119 41.188C120.019 40.216 121.027 39.73 122.143 39.73C123.127 39.73 123.883 40.048 124.411 40.684C124.927 41.308 125.185 42.142 125.185 43.186V47.668C125.761 47.776 126.103 47.848 126.211 47.884C126.403 47.92 126.499 48.034 126.499 48.226V49H123.583V43.204C123.583 41.74 122.947 41.008 121.675 41.008C120.775 41.008 119.947 41.434 119.191 42.286V47.686C119.239 47.686 119.587 47.758 120.235 47.902C120.415 47.938 120.505 48.052 120.505 48.244V49H116.311V48.244C116.311 48.052 116.395 47.938 116.563 47.902L117.607 47.704V41.206C117.007 41.098 116.659 41.026 116.563 40.99C116.395 40.954 116.311 40.84 116.311 40.648V39.892H118.543C118.759 39.892 118.903 40 118.975 40.216L119.119 41.206V41.188ZM132.907 39.748C133.531 39.748 134.323 39.91 135.283 40.234V42.574H134.581C134.413 42.574 134.311 42.49 134.275 42.322L134.167 41.134C133.603 41.002 133.135 40.936 132.763 40.936H132.745C132.253 40.936 131.839 41.068 131.503 41.332C131.179 41.584 131.017 41.86 131.017 42.16C131.017 42.472 131.089 42.7 131.233 42.844C131.473 43.12 131.821 43.33 132.277 43.474L132.817 43.636C132.913 43.66 133.105 43.72 133.393 43.816L134.257 44.14C134.497 44.224 134.749 44.38 135.013 44.608C135.505 44.992 135.751 45.52 135.751 46.192C135.751 47.068 135.457 47.764 134.869 48.28C134.233 48.844 133.429 49.126 132.457 49.126C131.461 49.126 130.477 48.964 129.505 48.64V46.264H130.153C130.297 46.264 130.387 46.336 130.423 46.48L130.531 47.632C131.011 47.872 131.629 47.992 132.385 47.992C132.961 47.992 133.429 47.842 133.789 47.542C134.101 47.266 134.257 46.96 134.257 46.624C134.257 46.276 134.185 46.024 134.041 45.868C133.873 45.676 133.693 45.532 133.501 45.436C133.237 45.304 132.985 45.208 132.745 45.148C131.857 44.86 131.299 44.668 131.071 44.572C130.783 44.44 130.513 44.272 130.261 44.068C129.757 43.648 129.505 43.084 129.505 42.376C129.505 41.656 129.793 41.044 130.369 40.54C130.969 40.012 131.815 39.748 132.907 39.748ZM143.296 37.156C142.072 37.156 141.46 37.846 141.46 39.226V40.072H144.088V41.224H141.496V47.686C142.072 47.77 142.474 47.836 142.702 47.884C142.882 47.92 142.972 48.034 142.972 48.226V49H138.508V48.226C138.508 48.034 138.598 47.92 138.778 47.884L139.894 47.686V41.26L138.886 41.134C138.598 41.062 138.454 40.924 138.454 40.72V40.072H139.894V39.19C139.894 38.134 140.176 37.324 140.74 36.76C141.292 36.196 142.054 35.914 143.026 35.914C143.386 35.914 143.764 35.974 144.16 36.094L144.124 36.904C144.124 37.012 144.07 37.084 143.962 37.12C143.89 37.144 143.752 37.156 143.548 37.156H143.296ZM151.055 39.748C151.583 39.748 152.081 39.838 152.549 40.018C153.029 40.198 153.425 40.456 153.737 40.792C154.097 41.176 154.361 41.602 154.529 42.07C154.721 42.61 154.817 43.186 154.817 43.798C154.817 44.074 154.793 44.242 154.745 44.302C154.685 44.386 154.577 44.428 154.421 44.428H148.373C148.373 45.004 148.445 45.508 148.589 45.94C148.709 46.312 148.913 46.66 149.201 46.984C149.465 47.284 149.765 47.5 150.101 47.632C150.461 47.776 150.845 47.848 151.253 47.848C151.685 47.848 152.033 47.806 152.297 47.722C152.549 47.638 152.801 47.536 153.053 47.416C153.317 47.284 153.497 47.188 153.593 47.128C153.749 47.032 153.869 46.984 153.953 46.984C154.085 46.984 154.187 47.038 154.259 47.146L154.709 47.74C154.541 47.956 154.301 48.16 153.989 48.352C153.629 48.58 153.335 48.73 153.107 48.802C152.747 48.922 152.423 49.006 152.135 49.054C151.775 49.114 151.445 49.144 151.145 49.144C150.521 49.144 149.939 49.036 149.399 48.82C148.883 48.616 148.421 48.298 148.013 47.866C147.629 47.47 147.329 46.96 147.113 46.336C146.897 45.724 146.789 45.028 146.789 44.248C146.789 43.624 146.891 43.036 147.095 42.484C147.299 41.92 147.581 41.44 147.941 41.044C148.313 40.636 148.763 40.318 149.291 40.09C149.819 39.862 150.407 39.748 151.055 39.748ZM151.091 40.918C150.311 40.918 149.705 41.14 149.273 41.584C148.829 42.052 148.553 42.676 148.445 43.456H153.395C153.395 43.084 153.341 42.748 153.233 42.448C153.101 42.076 152.957 41.806 152.801 41.638C152.597 41.422 152.351 41.248 152.063 41.116C151.787 40.996 151.457 40.936 151.073 40.936L151.091 40.918ZM160.527 41.746C161.199 40.39 162.123 39.712 163.299 39.712C163.767 39.712 164.181 39.82 164.541 40.036L164.343 41.242C164.307 41.398 164.229 41.476 164.109 41.476C164.025 41.476 163.881 41.446 163.677 41.386C163.473 41.326 163.227 41.296 162.939 41.296C161.883 41.296 161.103 41.932 160.599 43.204V47.704L161.625 47.902C161.805 47.938 161.895 48.052 161.895 48.244V49H157.701V48.244C157.701 48.052 157.791 47.938 157.971 47.902L158.997 47.704V41.206C158.421 41.098 158.079 41.026 157.971 40.99C157.791 40.954 157.701 40.84 157.701 40.648V39.892H159.915C160.083 39.892 160.197 39.922 160.257 39.982C160.317 40.042 160.365 40.156 160.401 40.324L160.509 41.746H160.527ZM19.944 66.892H19.08C18.852 66.892 18.72 66.784 18.684 66.568L18.54 64.948C17.532 64.624 16.626 64.462 15.822 64.462C14.466 64.462 13.35 64.918 12.474 65.83C11.598 66.778 11.16 68.02 11.16 69.556C11.16 70.552 11.34 71.434 11.7 72.202C12.072 72.97 12.594 73.57 13.266 74.002C13.95 74.422 14.742 74.632 15.642 74.632C16.338 74.632 16.944 74.548 17.46 74.38C17.988 74.2 18.48 73.9 18.936 73.48C19.044 73.384 19.152 73.336 19.26 73.336C19.356 73.336 19.44 73.372 19.512 73.444L20.196 74.2C19.08 75.496 17.532 76.144 15.552 76.144C14.304 76.144 13.212 75.862 12.276 75.298C11.352 74.722 10.638 73.936 10.134 72.94C9.642 71.944 9.396 70.816 9.396 69.556C9.396 67.624 9.996 66.04 11.196 64.804C12.384 63.58 14.01 62.968 16.074 62.968C17.034 62.968 18.324 63.268 19.944 63.868V66.892ZM31.1964 74.848C31.2804 74.86 31.3464 74.902 31.3944 74.974C31.4424 75.034 31.4664 75.106 31.4664 75.19V75.964H29.5944C29.4864 75.964 29.3604 75.94 29.2164 75.892C29.1324 75.868 29.0724 75.772 29.0364 75.604L28.8564 74.74L28.1364 75.334C27.9324 75.502 27.6924 75.646 27.4164 75.766C27.1524 75.886 26.8884 75.976 26.6244 76.036C26.3844 76.096 26.0604 76.126 25.6524 76.126C25.3164 76.126 24.9924 76.072 24.6804 75.964C24.3084 75.832 24.0384 75.688 23.8704 75.532C23.6544 75.34 23.4744 75.088 23.3304 74.776C23.1984 74.5 23.1324 74.14 23.1324 73.696C23.1324 73.312 23.2284 72.964 23.4204 72.652C23.6364 72.304 23.9604 72.004 24.3924 71.752C24.8724 71.476 25.4484 71.26 26.1204 71.104C26.8164 70.948 27.6924 70.87 28.7484 70.87V70.168C28.7484 69.46 28.5924 68.92 28.2804 68.548C27.9684 68.176 27.5184 67.99 26.9304 67.99C26.5464 67.99 26.2164 68.044 25.9404 68.152C25.6284 68.272 25.4004 68.38 25.2564 68.476C25.1844 68.524 25.1004 68.578 25.0044 68.638C24.9204 68.686 24.8304 68.74 24.7344 68.8C24.6024 68.896 24.4644 68.944 24.3204 68.944C24.1884 68.944 24.0924 68.92 24.0324 68.872C23.9604 68.812 23.9004 68.74 23.8524 68.656L23.5644 68.152C24.0324 67.696 24.5724 67.336 25.1844 67.072C25.7364 66.832 26.3844 66.712 27.1284 66.712C27.6684 66.712 28.1244 66.796 28.4964 66.964C28.9044 67.144 29.2344 67.372 29.4864 67.648C29.7504 67.924 29.9544 68.284 30.0984 68.728C30.2304 69.124 30.2964 69.592 30.2964 70.132V74.686C30.8724 74.806 31.1724 74.872 31.1964 74.884V74.848ZM28.7124 71.896C27.9324 71.896 27.3084 71.938 26.8404 72.022C26.3844 72.106 25.9644 72.232 25.5804 72.4C25.2444 72.556 25.0044 72.736 24.8604 72.94C24.7164 73.156 24.6444 73.384 24.6444 73.624C24.6444 73.816 24.6864 74.02 24.7704 74.236C24.8424 74.416 24.9504 74.56 25.0944 74.668C25.2384 74.776 25.3944 74.854 25.5624 74.902C25.7664 74.962 25.9644 74.992 26.1564 74.992C26.3964 74.992 26.6484 74.962 26.9124 74.902C27.1524 74.842 27.3744 74.764 27.5784 74.668C27.7584 74.584 27.9564 74.452 28.1724 74.272C28.2924 74.176 28.4724 74.008 28.7124 73.768V71.896ZM38.2289 74.884C38.4209 74.92 38.5169 75.034 38.5169 75.226V76H34.3049V75.226C34.3049 75.034 34.4009 74.92 34.5929 74.884L35.6009 74.686V64.048C35.0489 63.94 34.7129 63.868 34.5929 63.832C34.4009 63.796 34.3049 63.688 34.3049 63.508V62.734H37.2209V74.668C37.7729 74.776 38.1089 74.848 38.2289 74.884ZM48.5256 74.722C47.7696 75.658 46.6416 76.126 45.1416 76.126C43.9896 76.126 43.0416 75.712 42.2976 74.884C41.5176 74.008 41.1276 72.856 41.1276 71.428C41.1276 70.036 41.4936 68.914 42.2256 68.062C42.9936 67.186 44.0616 66.748 45.4296 66.748C46.1136 66.748 47.0136 66.964 48.1296 67.396V69.772H47.4096C47.2416 69.772 47.1396 69.688 47.1036 69.52C47.0916 69.484 47.0676 69.256 47.0316 68.836L46.9776 68.242C46.8456 68.194 46.7136 68.158 46.5816 68.134C46.4616 68.11 46.3776 68.092 46.3296 68.08C46.0056 68.032 45.6696 68.008 45.3216 68.008C45.0096 68.008 44.6796 68.086 44.3316 68.242C44.0076 68.386 43.7256 68.608 43.4856 68.908C43.0296 69.508 42.8016 70.348 42.8016 71.428C42.8016 72.508 43.0416 73.36 43.5216 73.984C43.9896 74.584 44.6316 74.884 45.4476 74.884C46.2036 74.884 46.8696 74.632 47.4456 74.128C47.5416 74.032 47.6616 73.984 47.8056 73.984C47.9376 73.984 48.0336 74.032 48.0936 74.128L48.5256 74.722ZM55.7819 74.884C56.6819 74.884 57.5039 74.464 58.2479 73.624V68.224C58.1399 68.188 57.7979 68.116 57.2219 68.008C57.0419 67.972 56.9519 67.858 56.9519 67.666V66.892H59.8499V74.704C60.4259 74.812 60.7679 74.884 60.8759 74.92C61.0559 74.956 61.1459 75.064 61.1459 75.244V76.018H58.8959C58.6799 76.018 58.5359 75.904 58.4639 75.676L58.3379 74.704C57.4739 75.676 56.4659 76.162 55.3139 76.162C54.3419 76.162 53.5859 75.844 53.0459 75.208C52.5179 74.572 52.2539 73.738 52.2539 72.706V68.206C51.7019 68.098 51.3659 68.026 51.2459 67.99C51.0539 67.954 50.9579 67.84 50.9579 67.648V66.892H53.8739V72.688C53.8739 73.408 54.0299 73.948 54.3419 74.308C54.6659 74.68 55.1459 74.866 55.7819 74.866V74.884ZM67.9219 74.884C68.1139 74.92 68.2099 75.034 68.2099 75.226V76H63.9979V75.226C63.9979 75.034 64.0939 74.92 64.2859 74.884L65.2939 74.686V64.048C64.7419 63.94 64.4059 63.868 64.2859 63.832C64.0939 63.796 63.9979 63.688 63.9979 63.508V62.734H66.9139V74.668C67.4659 74.776 67.8019 74.848 67.9219 74.884ZM78.9386 74.848C79.0226 74.86 79.0886 74.902 79.1366 74.974C79.1846 75.034 79.2086 75.106 79.2086 75.19V75.964H77.3366C77.2286 75.964 77.1026 75.94 76.9586 75.892C76.8746 75.868 76.8146 75.772 76.7786 75.604L76.5986 74.74L75.8786 75.334C75.6746 75.502 75.4346 75.646 75.1586 75.766C74.8946 75.886 74.6306 75.976 74.3666 76.036C74.1266 76.096 73.8026 76.126 73.3946 76.126C73.0586 76.126 72.7346 76.072 72.4226 75.964C72.0506 75.832 71.7806 75.688 71.6126 75.532C71.3966 75.34 71.2166 75.088 71.0726 74.776C70.9406 74.5 70.8746 74.14 70.8746 73.696C70.8746 73.312 70.9706 72.964 71.1626 72.652C71.3786 72.304 71.7026 72.004 72.1346 71.752C72.6146 71.476 73.1906 71.26 73.8626 71.104C74.5586 70.948 75.4346 70.87 76.4906 70.87V70.168C76.4906 69.46 76.3346 68.92 76.0226 68.548C75.7106 68.176 75.2606 67.99 74.6726 67.99C74.2886 67.99 73.9586 68.044 73.6826 68.152C73.3706 68.272 73.1426 68.38 72.9986 68.476C72.9266 68.524 72.8426 68.578 72.7466 68.638C72.6626 68.686 72.5726 68.74 72.4766 68.8C72.3446 68.896 72.2066 68.944 72.0626 68.944C71.9306 68.944 71.8346 68.92 71.7746 68.872C71.7026 68.812 71.6426 68.74 71.5946 68.656L71.3066 68.152C71.7746 67.696 72.3146 67.336 72.9266 67.072C73.4786 66.832 74.1266 66.712 74.8706 66.712C75.4106 66.712 75.8666 66.796 76.2386 66.964C76.6466 67.144 76.9766 67.372 77.2286 67.648C77.4926 67.924 77.6966 68.284 77.8406 68.728C77.9726 69.124 78.0386 69.592 78.0386 70.132V74.686C78.6146 74.806 78.9146 74.872 78.9386 74.884V74.848ZM76.4546 71.896C75.6746 71.896 75.0506 71.938 74.5826 72.022C74.1266 72.106 73.7066 72.232 73.3226 72.4C72.9866 72.556 72.7466 72.736 72.6026 72.94C72.4586 73.156 72.3866 73.384 72.3866 73.624C72.3866 73.816 72.4286 74.02 72.5126 74.236C72.5846 74.416 72.6926 74.56 72.8366 74.668C72.9806 74.776 73.1366 74.854 73.3046 74.902C73.5086 74.962 73.7066 74.992 73.8986 74.992C74.1386 74.992 74.3906 74.962 74.6546 74.902C74.8946 74.842 75.1166 74.764 75.3206 74.668C75.5006 74.584 75.6986 74.452 75.9146 74.272C76.0346 74.176 76.2146 74.008 76.4546 73.768V71.896ZM84.8322 76.144C84.1362 76.144 83.5842 75.94 83.1762 75.532C82.7922 75.148 82.6002 74.572 82.6002 73.804V68.224H81.5022C81.3942 68.224 81.3102 68.2 81.2502 68.152C81.1902 68.104 81.1602 68.014 81.1602 67.882V67.252L82.6542 67.054L83.0142 64.228C83.0142 64.132 83.0502 64.06 83.1222 64.012C83.1822 63.964 83.2662 63.94 83.3742 63.94H84.1842V67.072H86.7942V68.242H84.1842V73.714C84.1842 74.11 84.2742 74.398 84.4542 74.578C84.6342 74.758 84.8802 74.848 85.1922 74.848C85.3242 74.848 85.4742 74.824 85.6422 74.776C85.7502 74.74 85.8582 74.692 85.9662 74.632C86.0022 74.608 86.0382 74.584 86.0742 74.56C86.1102 74.536 86.1462 74.512 86.1822 74.488C86.2782 74.44 86.3382 74.416 86.3622 74.416C86.4462 74.416 86.5182 74.464 86.5782 74.56L87.0462 75.316C86.7222 75.592 86.3862 75.796 86.0382 75.928C85.6422 76.072 85.2402 76.144 84.8322 76.144ZM94.0172 66.748C94.6772 66.748 95.2772 66.856 95.8172 67.072C96.3452 67.288 96.8072 67.6 97.2032 68.008C97.5752 68.392 97.8632 68.884 98.0672 69.484C98.2712 70.072 98.3732 70.72 98.3732 71.428C98.3732 72.136 98.2712 72.784 98.0672 73.372C97.8632 73.972 97.5752 74.464 97.2032 74.848C96.8072 75.256 96.3452 75.568 95.8172 75.784C95.2772 76 94.6772 76.108 94.0172 76.108C93.3572 76.108 92.7572 76 92.2172 75.784C91.6892 75.568 91.2272 75.256 90.8312 74.848C90.4712 74.476 90.1772 73.984 89.9492 73.372C89.7572 72.856 89.6612 72.208 89.6612 71.428C89.6612 70.648 89.7572 70 89.9492 69.484C90.1772 68.872 90.4712 68.38 90.8312 68.008C91.2272 67.6 91.6892 67.288 92.2172 67.072C92.7572 66.856 93.3572 66.748 94.0172 66.748ZM94.0172 74.884C94.9412 74.884 95.6132 74.584 96.0332 73.984C96.4772 73.36 96.6992 72.514 96.6992 71.446C96.6992 70.378 96.4772 69.532 96.0332 68.908C95.6132 68.308 94.9412 68.008 94.0172 68.008C93.5492 68.008 93.1532 68.08 92.8292 68.224C92.5172 68.368 92.2412 68.596 92.0012 68.908C91.7732 69.22 91.6052 69.58 91.4972 69.988C91.3772 70.468 91.3172 70.96 91.3172 71.464C91.3172 71.944 91.3772 72.424 91.4972 72.904C91.6052 73.312 91.7732 73.672 92.0012 73.984C92.2052 74.26 92.4812 74.476 92.8292 74.632C93.2132 74.8 93.6092 74.884 94.0172 74.884ZM104.013 68.746C104.685 67.39 105.609 66.712 106.785 66.712C107.253 66.712 107.667 66.82 108.027 67.036L107.829 68.242C107.793 68.398 107.715 68.476 107.595 68.476C107.511 68.476 107.367 68.446 107.163 68.386C106.959 68.326 106.713 68.296 106.425 68.296C105.369 68.296 104.589 68.932 104.085 70.204V74.704L105.111 74.902C105.291 74.938 105.381 75.052 105.381 75.244V76H101.187V75.244C101.187 75.052 101.277 74.938 101.457 74.902L102.483 74.704V68.206C101.907 68.098 101.565 68.026 101.457 67.99C101.277 67.954 101.187 67.84 101.187 67.648V66.892H103.401C103.569 66.892 103.683 66.922 103.743 66.982C103.803 67.042 103.851 67.156 103.887 67.324L103.995 68.746H104.013Z" fill="white"/>
</g>
<path d="M123.072 59.137H122.434C122.302 59.137 122.218 59.0673 122.181 58.928C122.144 58.642 122.119 58.4073 122.104 58.224H119.541V60.424H122.236V61.568H119.541V63.812H122.104C122.119 63.6287 122.144 63.394 122.181 63.108C122.218 62.9687 122.302 62.899 122.434 62.899H123.072V65H117.22V64.351C117.22 64.1677 117.312 64.054 117.495 64.01L117.561 63.999C117.583 63.999 117.605 63.9953 117.627 63.988C117.656 63.9807 117.689 63.9733 117.726 63.966L118.056 63.911V58.136L117.726 58.081C117.689 58.0737 117.656 58.0663 117.627 58.059C117.605 58.0517 117.583 58.048 117.561 58.048L117.495 58.037C117.312 57.993 117.22 57.8793 117.22 57.696V57.047H123.072V59.137ZM133.942 64.01C134.126 64.054 134.217 64.1677 134.217 64.351V65H132.028V61.414C132.028 61.0473 131.951 60.776 131.797 60.6C131.643 60.4167 131.412 60.325 131.104 60.325C130.98 60.325 130.848 60.3507 130.708 60.402C130.591 60.446 130.488 60.512 130.4 60.6C130.327 60.6733 130.257 60.787 130.191 60.941C130.14 61.0657 130.114 61.2233 130.114 61.414V63.911L130.433 63.966L130.598 63.999L130.664 64.01C130.848 64.054 130.939 64.1677 130.939 64.351V65H128.75V61.414C128.75 61.04 128.673 60.765 128.519 60.589C128.365 60.413 128.142 60.325 127.848 60.325C127.65 60.325 127.467 60.3727 127.298 60.468C127.144 60.556 126.987 60.6917 126.825 60.875V63.911L127.144 63.966L127.309 63.999L127.375 64.01C127.559 64.054 127.65 64.1677 127.65 64.351V65H124.636V64.351C124.636 64.1677 124.728 64.054 124.911 64.01L124.977 63.999C124.999 63.999 125.021 63.9953 125.043 63.988C125.073 63.9807 125.106 63.9733 125.142 63.966L125.461 63.911V60.446L125.142 60.391C125.106 60.3837 125.073 60.3763 125.043 60.369C125.021 60.3617 124.999 60.358 124.977 60.358L124.911 60.347C124.721 60.303 124.625 60.1893 124.625 60.006V59.357H126.297C126.466 59.357 126.58 59.4413 126.638 59.61L126.726 60.028C126.858 59.8813 126.961 59.7787 127.034 59.72C127.137 59.6393 127.254 59.5623 127.386 59.489C127.504 59.423 127.636 59.368 127.782 59.324C127.9 59.2873 128.054 59.269 128.244 59.269C128.611 59.269 128.904 59.3643 129.124 59.555C129.359 59.7603 129.531 60.017 129.641 60.325C129.729 60.1343 129.839 59.973 129.971 59.841C130.089 59.7237 130.232 59.6173 130.4 59.522C130.525 59.4487 130.694 59.3863 130.906 59.335C131.082 59.291 131.262 59.269 131.445 59.269C131.761 59.269 132.036 59.3167 132.27 59.412C132.527 59.5147 132.732 59.654 132.886 59.83C133.048 60.0133 133.172 60.237 133.26 60.501C133.348 60.765 133.392 61.0693 133.392 61.414V63.911L133.711 63.966C133.748 63.9733 133.777 63.9807 133.799 63.988C133.829 63.9953 133.854 63.999 133.876 63.999L133.942 64.01Z" fill="white"/>
<path d="M184.514 64.153C184.653 64.2043 184.723 64.2997 184.723 64.439V65H182.039V64.439C182.039 64.3143 182.112 64.219 182.259 64.153L182.479 64.065L182.039 62.866H178.871L178.431 64.065L178.651 64.153C178.798 64.219 178.871 64.3143 178.871 64.439V65H176.187V64.439C176.187 64.3143 176.26 64.219 176.407 64.153L177.012 63.9L179.696 57.047H181.214L183.909 63.9L184.514 64.153ZM181.665 61.821L180.752 59.346C180.664 59.104 180.565 58.7923 180.455 58.411L180.356 58.752C180.297 58.95 180.231 59.1517 180.158 59.357L179.256 61.821H181.665ZM192.099 60.908C192.201 61.2747 192.253 61.6817 192.253 62.129C192.253 62.525 192.194 62.9173 192.077 63.306C191.974 63.658 191.813 63.9697 191.593 64.241C191.38 64.505 191.123 64.7103 190.823 64.857C190.537 65.0037 190.203 65.077 189.822 65.077C189 65.077 188.08 64.9743 187.061 64.769V57.916L186.72 57.861C186.676 57.8537 186.639 57.8463 186.61 57.839C186.58 57.8317 186.555 57.828 186.533 57.828L186.456 57.817C186.272 57.773 186.181 57.6593 186.181 57.476V56.827H188.414V60.05C188.626 59.8153 188.879 59.6247 189.173 59.478C189.451 59.3387 189.781 59.269 190.163 59.269C190.485 59.269 190.768 59.3313 191.01 59.456C191.259 59.5733 191.479 59.7567 191.67 60.006C191.853 60.2407 191.996 60.5413 192.099 60.908ZM190.757 62.987C190.815 62.7743 190.845 62.4883 190.845 62.129C190.845 61.7843 190.819 61.5057 190.768 61.293C190.709 61.0583 190.632 60.8713 190.537 60.732C190.441 60.5927 190.32 60.49 190.174 60.424C190.034 60.358 189.877 60.325 189.701 60.325C189.407 60.325 189.165 60.3837 188.975 60.501C188.769 60.6257 188.582 60.7943 188.414 61.007V63.944C188.773 64.01 189.14 64.043 189.514 64.043C189.726 64.043 189.91 64.0063 190.064 63.933C190.232 63.8523 190.372 63.735 190.482 63.581C190.606 63.4123 190.698 63.2143 190.757 62.987ZM197.676 62.624C197.757 62.8 197.797 62.9943 197.797 63.207C197.797 63.471 197.746 63.724 197.643 63.966C197.541 64.1933 197.398 64.3913 197.214 64.56C197.016 64.736 196.782 64.8643 196.51 64.945C196.246 65.0403 195.924 65.088 195.542 65.088C195.212 65.088 194.886 65.0587 194.563 65C194.248 64.9413 193.977 64.868 193.749 64.78V63.185H194.387C194.519 63.185 194.604 63.2547 194.64 63.394C194.655 63.4747 194.681 63.691 194.717 64.043C194.915 64.1017 195.212 64.131 195.608 64.131C195.762 64.131 195.902 64.1127 196.026 64.076C196.151 64.032 196.246 63.9807 196.312 63.922C196.4 63.8487 196.455 63.779 196.477 63.713C196.507 63.6323 196.521 63.5443 196.521 63.449C196.521 63.317 196.485 63.2107 196.411 63.13C196.345 63.0567 196.239 62.9833 196.092 62.91C195.953 62.844 195.806 62.789 195.652 62.745L195.135 62.58C195.018 62.5433 194.849 62.4737 194.629 62.371C194.453 62.2903 194.303 62.1913 194.178 62.074C194.046 61.9567 193.944 61.81 193.87 61.634C193.79 61.4507 193.749 61.238 193.749 60.996C193.749 60.7613 193.793 60.5413 193.881 60.336C193.969 60.1307 194.105 59.9473 194.288 59.786C194.472 59.6247 194.695 59.5 194.959 59.412C195.245 59.3167 195.55 59.269 195.872 59.269C196.151 59.269 196.397 59.291 196.609 59.335C196.822 59.3717 197.126 59.4487 197.522 59.566H197.511V61.161H196.884C196.752 61.161 196.668 61.0913 196.631 60.952C196.609 60.8567 196.584 60.6513 196.554 60.336C196.386 60.2847 196.166 60.259 195.894 60.259C195.63 60.259 195.421 60.314 195.267 60.424C195.113 60.534 195.036 60.6843 195.036 60.875C195.036 60.985 195.077 61.0877 195.157 61.183C195.216 61.249 195.319 61.3187 195.465 61.392C195.634 61.4727 195.781 61.5313 195.905 61.568C195.964 61.5827 196.133 61.634 196.411 61.722C196.551 61.766 196.723 61.8357 196.928 61.931C197.104 62.0117 197.251 62.107 197.368 62.217C197.5 62.327 197.603 62.4627 197.676 62.624Z" fill="white"/>
<path d="M153 82C156.992 76.0944 156.99 69.6292 160.109 63.4006C162.019 59.5854 166.806 55.6311 170.211 59.7471C173.564 63.8 174.86 69.6579 178.218 73.9458C180.449 76.7959 183.22 79.9433 186 82" stroke="white" stroke-width="3" stroke-linecap="round"/>
<path d="M132.253 82.2313C136.771 76.2061 136.77 69.6099 140.3 63.2551C142.463 59.3626 147.882 55.3282 151.737 59.5276C155.533 63.6626 157.001 69.6392 160.802 74.014C163.328 76.9218 166.464 80.133 169.612 82.2313" stroke="white" stroke-width="3" stroke-linecap="round"/>
</g>
<defs>
<filter id="filter0_d_2904_2" x="0" y="0" width="204" height="94" filterUnits="userSpaceOnUse" color-interpolation-filters="sRGB">
<feFlood flood-opacity="0" result="BackgroundImageFix"/>
<feColorMatrix in="SourceAlpha" type="matrix" values="0 0 0 0 0 0 0 0 0 0 0 0 0 0 0 0 0 0 127 0" result="hardAlpha"/>
<feOffset dy="4"/>
<feGaussianBlur stdDeviation="2"/>
<feComposite in2="hardAlpha" operator="out"/>
<feColorMatrix type="matrix" values="0 0 0 0 0 0 0 0 0 0 0 0 0 0 0 0 0 0 0.25 0"/>
<feBlend mode="normal" in2="BackgroundImageFix" result="effect1_dropShadow_2904_2"/>
<feBlend mode="normal" in="SourceGraphic" in2="effect1_dropShadow_2904_2" result="shape"/>
</filter>
<filter id="filter1_dd_2904_2" x="5.396" y="9.076" width="184.397" height="75.086" filterUnits="userSpaceOnUse" color-interpolation-filters="sRGB">
<feFlood flood-opacity="0" result="BackgroundImageFix"/>
<feColorMatrix in="SourceAlpha" type="matrix" values="0 0 0 0 0 0 0 0 0 0 0 0 0 0 0 0 0 0 127 0" result="hardAlpha"/>
<feOffset dy="4"/>
<feGaussianBlur stdDeviation="2"/>
<feComposite in2="hardAlpha" operator="out"/>
<feColorMatrix type="matrix" values="0 0 0 0 0 0 0 0 0 0 0 0 0 0 0 0 0 0 0.25 0"/>
<feBlend mode="normal" in2="BackgroundImageFix" result="effect1_dropShadow_2904_2"/>
<feColorMatrix in="SourceAlpha" type="matrix" values="0 0 0 0 0 0 0 0 0 0 0 0 0 0 0 0 0 0 127 0" result="hardAlpha"/>
<feOffset dy="4"/>
<feGaussianBlur stdDeviation="2"/>
<feComposite in2="hardAlpha" operator="out"/>
<feColorMatrix type="matrix" values="0 0 0 0 0 0 0 0 0 0 0 0 0 0 0 0 0 0 0.25 0"/>
<feBlend mode="normal" in2="effect1_dropShadow_2904_2" result="effect2_dropShadow_2904_2"/>
<feBlend mode="normal" in="SourceGraphic" in2="effect2_dropShadow_2904_2" result="shape"/>
</filter>
</defs>
</svg>
