<svg width="196" height="85" viewBox="0 0 196 85" fill="none" xmlns="http://www.w3.org/2000/svg">
<rect width="196" height="85" rx="10" fill="#403E90"/>
<path d="M11.596 8.364C13.372 8.94 14.26 10.188 14.26 12.108C14.26 13.344 13.852 14.316 13.036 15.024C12.16 15.792 10.972 16.176 9.472 16.176H7.636V19.686C7.732 19.722 8.08 19.794 8.68 19.902C8.848 19.938 8.932 20.052 8.932 20.244V21H4.612V20.244C4.612 20.052 4.702 19.938 4.882 19.902L5.908 19.704V9.426C5.332 9.318 4.99 9.246 4.882 9.21C4.702 9.174 4.612 9.06 4.612 8.868V8.112H9.472C10.276 8.112 10.984 8.202 11.596 8.382V8.364ZM12.514 12.072C12.514 11.268 12.262 10.632 11.758 10.164C11.266 9.708 10.504 9.48 9.472 9.48H7.636V14.772H9.472C10.444 14.772 11.194 14.532 11.722 14.052C12.262 13.56 12.532 12.906 12.532 12.09L12.514 12.072ZM19.9628 13.116C20.8388 12.204 21.8108 11.748 22.8788 11.748C23.8508 11.748 24.6068 12.06 25.1468 12.684C25.6748 13.308 25.9388 14.148 25.9388 15.204V19.686C26.5148 19.794 26.8568 19.866 26.9648 19.902C27.1448 19.938 27.2348 20.052 27.2348 20.244V21H24.3368V15.204C24.3368 13.752 23.6948 13.026 22.4108 13.026C21.5348 13.026 20.7188 13.452 19.9628 14.304V19.704L20.1788 19.74L20.9708 19.902C21.1628 19.938 21.2588 20.052 21.2588 20.244V21H17.0468V20.244C17.0468 20.052 17.1428 19.938 17.3348 19.902L18.3428 19.704V9.066C17.6588 8.958 17.2628 8.886 17.1548 8.85C16.9628 8.814 16.8668 8.7 16.8668 8.508V7.752H19.9628V13.116ZM34.2368 11.748C34.8968 11.748 35.4968 11.856 36.0368 12.072C36.5648 12.288 37.0268 12.6 37.4228 13.008C37.7948 13.392 38.0828 13.884 38.2868 14.484C38.4908 15.072 38.5928 15.72 38.5928 16.428C38.5928 17.136 38.4908 17.784 38.2868 18.372C38.0828 18.972 37.7948 19.464 37.4228 19.848C37.0268 20.256 36.5648 20.568 36.0368 20.784C35.4968 21 34.8968 21.108 34.2368 21.108C33.5768 21.108 32.9768 21 32.4368 20.784C31.9088 20.568 31.4468 20.256 31.0508 19.848C30.6908 19.476 30.3968 18.984 30.1688 18.372C29.9768 17.856 29.8808 17.208 29.8808 16.428C29.8808 15.648 29.9768 15 30.1688 14.484C30.3968 13.872 30.6908 13.38 31.0508 13.008C31.4468 12.6 31.9088 12.288 32.4368 12.072C32.9768 11.856 33.5768 11.748 34.2368 11.748ZM34.2368 19.884C35.1608 19.884 35.8328 19.584 36.2528 18.984C36.6968 18.36 36.9188 17.514 36.9188 16.446C36.9188 15.378 36.6968 14.532 36.2528 13.908C35.8328 13.308 35.1608 13.008 34.2368 13.008C33.7688 13.008 33.3728 13.08 33.0488 13.224C32.7368 13.368 32.4608 13.596 32.2208 13.908C31.9928 14.22 31.8248 14.58 31.7168 14.988C31.5968 15.468 31.5368 15.96 31.5368 16.464C31.5368 16.944 31.5968 17.424 31.7168 17.904C31.8248 18.312 31.9928 18.672 32.2208 18.984C32.4248 19.26 32.7008 19.476 33.0488 19.632C33.4328 19.8 33.8288 19.884 34.2368 19.884ZM44.7005 21.144C44.0045 21.144 43.4525 20.94 43.0445 20.532C42.6605 20.148 42.4685 19.572 42.4685 18.804V13.224H41.3705C41.2625 13.224 41.1785 13.2 41.1185 13.152C41.0585 13.104 41.0285 13.014 41.0285 12.882V12.252L42.5225 12.054L42.8825 9.228C42.8825 9.132 42.9185 9.06 42.9905 9.012C43.0505 8.964 43.1345 8.94 43.2425 8.94H44.0525V12.072H46.6625V13.242H44.0525V18.714C44.0525 19.11 44.1425 19.398 44.3225 19.578C44.5025 19.758 44.7485 19.848 45.0605 19.848C45.1925 19.848 45.3425 19.824 45.5105 19.776C45.6185 19.74 45.7265 19.692 45.8345 19.632C45.8705 19.608 45.9065 19.584 45.9425 19.56C45.9785 19.536 46.0145 19.512 46.0505 19.488C46.1465 19.44 46.2065 19.416 46.2305 19.416C46.3145 19.416 46.3865 19.464 46.4465 19.56L46.9145 20.316C46.5905 20.592 46.2545 20.796 45.9065 20.928C45.5105 21.072 45.1085 21.144 44.7005 21.144ZM53.8856 11.748C54.5456 11.748 55.1456 11.856 55.6856 12.072C56.2136 12.288 56.6756 12.6 57.0716 13.008C57.4436 13.392 57.7316 13.884 57.9356 14.484C58.1396 15.072 58.2416 15.72 58.2416 16.428C58.2416 17.136 58.1396 17.784 57.9356 18.372C57.7316 18.972 57.4436 19.464 57.0716 19.848C56.6756 20.256 56.2136 20.568 55.6856 20.784C55.1456 21 54.5456 21.108 53.8856 21.108C53.2256 21.108 52.6256 21 52.0856 20.784C51.5576 20.568 51.0956 20.256 50.6996 19.848C50.3396 19.476 50.0456 18.984 49.8176 18.372C49.6256 17.856 49.5296 17.208 49.5296 16.428C49.5296 15.648 49.6256 15 49.8176 14.484C50.0456 13.872 50.3396 13.38 50.6996 13.008C51.0956 12.6 51.5576 12.288 52.0856 12.072C52.6256 11.856 53.2256 11.748 53.8856 11.748ZM53.8856 19.884C54.8096 19.884 55.4816 19.584 55.9016 18.984C56.3456 18.36 56.5676 17.514 56.5676 16.446C56.5676 15.378 56.3456 14.532 55.9016 13.908C55.4816 13.308 54.8096 13.008 53.8856 13.008C53.4176 13.008 53.0216 13.08 52.6976 13.224C52.3856 13.368 52.1096 13.596 51.8696 13.908C51.6416 14.22 51.4736 14.58 51.3656 14.988C51.2456 15.468 51.1856 15.96 51.1856 16.464C51.1856 16.944 51.2456 17.424 51.3656 17.904C51.4736 18.312 51.6416 18.672 51.8696 18.984C52.0736 19.26 52.3496 19.476 52.6976 19.632C53.0816 19.8 53.4776 19.884 53.8856 19.884ZM64.9434 19.884C65.1354 19.92 65.2314 20.034 65.2314 20.226V21H61.0194V20.226C61.0194 20.034 61.1154 19.92 61.3074 19.884L62.3154 19.686V9.048C61.7634 8.94 61.4274 8.868 61.3074 8.832C61.1154 8.796 61.0194 8.688 61.0194 8.508V7.734H63.9354V19.668C64.4874 19.776 64.8234 19.848 64.9434 19.884ZM72.5401 19.884C73.4401 19.884 74.2621 19.464 75.0061 18.624V13.224C74.8981 13.188 74.5561 13.116 73.9801 13.008C73.8001 12.972 73.7101 12.858 73.7101 12.666V11.892H76.6081V19.704C77.1841 19.812 77.5261 19.884 77.6341 19.92C77.8141 19.956 77.9041 20.064 77.9041 20.244V21.018H75.6541C75.4381 21.018 75.2941 20.904 75.2221 20.676L75.0961 19.704C74.2321 20.676 73.2241 21.162 72.0721 21.162C71.1001 21.162 70.3441 20.844 69.8041 20.208C69.2761 19.572 69.0121 18.738 69.0121 17.706V13.206C68.4601 13.098 68.1241 13.026 68.0041 12.99C67.8121 12.954 67.7161 12.84 67.7161 12.648V11.892H70.6321V17.688C70.6321 18.408 70.7881 18.948 71.1001 19.308C71.4241 19.68 71.9041 19.866 72.5401 19.866V19.884ZM83.5821 13.17C84.3501 12.222 85.2081 11.748 86.1561 11.748C86.7801 11.748 87.2841 11.922 87.6681 12.27C88.0401 12.606 88.3161 13.068 88.4961 13.656C88.7601 13.008 89.1561 12.528 89.6841 12.216C90.2361 11.904 90.7641 11.748 91.2681 11.748C91.7961 11.748 92.2641 11.826 92.6721 11.982C93.0561 12.126 93.3801 12.348 93.6441 12.648C94.1721 13.248 94.4361 14.1 94.4361 15.204V19.704C95.0361 19.812 95.3841 19.884 95.4801 19.92C95.6601 19.956 95.7501 20.064 95.7501 20.244V21.036H92.8521V15.222C92.8521 14.49 92.6961 13.95 92.3841 13.602C92.0481 13.23 91.5921 13.044 91.0161 13.044C90.4641 13.044 90.0081 13.224 89.6481 13.584C89.2521 13.98 89.0541 14.52 89.0541 15.204V19.704C89.1021 19.716 89.2041 19.74 89.3601 19.776C89.5161 19.812 89.7561 19.86 90.0801 19.92C90.2601 19.956 90.3501 20.064 90.3501 20.244V21.018H87.4521V15.204C87.4521 13.764 86.8761 13.044 85.7241 13.044C84.9801 13.044 84.3021 13.44 83.6901 14.232V19.704L84.1761 19.794L84.7161 19.902C84.8961 19.938 84.9861 20.052 84.9861 20.244V21H80.7921V20.244C80.7921 20.052 80.8761 19.938 81.0441 19.902L82.0881 19.704V13.206C81.4881 13.098 81.1401 13.026 81.0441 12.99C80.8761 12.954 80.7921 12.84 80.7921 12.648V11.892H83.0241C83.2401 11.892 83.3841 12 83.4561 12.216L83.5821 13.152V13.17ZM99.8658 9.822C99.7698 9.726 99.6858 9.606 99.6138 9.462C99.5538 9.342 99.5238 9.198 99.5238 9.03C99.5238 8.85 99.5538 8.7 99.6138 8.58C99.6978 8.412 99.7818 8.286 99.8658 8.202C99.9618 8.106 100.082 8.022 100.226 7.95C100.346 7.89 100.49 7.86 100.658 7.86C100.826 7.86 100.97 7.89 101.09 7.95C101.234 8.022 101.354 8.106 101.45 8.202C101.534 8.286 101.618 8.412 101.702 8.58C101.774 8.724 101.81 8.874 101.81 9.03C101.81 9.174 101.774 9.318 101.702 9.462C101.63 9.606 101.546 9.726 101.45 9.822C101.354 9.918 101.234 10.002 101.09 10.074C100.97 10.134 100.826 10.164 100.658 10.164C100.49 10.164 100.346 10.134 100.226 10.074C100.082 10.002 99.9618 9.918 99.8658 9.822ZM102.476 19.884C102.56 19.896 102.626 19.938 102.674 20.01C102.722 20.07 102.746 20.142 102.746 20.226V21H98.5518V20.226C98.5518 20.142 98.5758 20.07 98.6238 20.01C98.6718 19.938 98.7378 19.896 98.8218 19.884L99.8658 19.686V13.188L98.8218 12.99C98.7378 12.978 98.6718 12.942 98.6238 12.882C98.5758 12.81 98.5518 12.732 98.5518 12.648V11.892H101.45V19.686L102.476 19.884ZM108.417 13.188C109.317 12.216 110.325 11.73 111.441 11.73C112.425 11.73 113.181 12.048 113.709 12.684C114.225 13.308 114.483 14.142 114.483 15.186V19.668C115.059 19.776 115.401 19.848 115.509 19.884C115.701 19.92 115.797 20.034 115.797 20.226V21H112.881V15.204C112.881 13.74 112.245 13.008 110.973 13.008C110.073 13.008 109.245 13.434 108.489 14.286V19.686C108.537 19.686 108.885 19.758 109.533 19.902C109.713 19.938 109.803 20.052 109.803 20.244V21H105.609V20.244C105.609 20.052 105.693 19.938 105.861 19.902L106.905 19.704V13.206C106.305 13.098 105.957 13.026 105.861 12.99C105.693 12.954 105.609 12.84 105.609 12.648V11.892H107.841C108.057 11.892 108.201 12 108.273 12.216L108.417 13.206V13.188ZM122.673 11.748C123.201 11.748 123.699 11.838 124.167 12.018C124.647 12.198 125.043 12.456 125.355 12.792C125.715 13.176 125.979 13.602 126.147 14.07C126.339 14.61 126.435 15.186 126.435 15.798C126.435 16.074 126.411 16.242 126.363 16.302C126.303 16.386 126.195 16.428 126.039 16.428H119.991C119.991 17.004 120.063 17.508 120.207 17.94C120.327 18.312 120.531 18.66 120.819 18.984C121.083 19.284 121.383 19.5 121.719 19.632C122.079 19.776 122.463 19.848 122.871 19.848C123.303 19.848 123.651 19.806 123.915 19.722C124.167 19.638 124.419 19.536 124.671 19.416C124.935 19.284 125.115 19.188 125.211 19.128C125.367 19.032 125.487 18.984 125.571 18.984C125.703 18.984 125.805 19.038 125.877 19.146L126.327 19.74C126.159 19.956 125.919 20.16 125.607 20.352C125.247 20.58 124.953 20.73 124.725 20.802C124.365 20.922 124.041 21.006 123.753 21.054C123.393 21.114 123.063 21.144 122.763 21.144C122.139 21.144 121.557 21.036 121.017 20.82C120.501 20.616 120.039 20.298 119.631 19.866C119.247 19.47 118.947 18.96 118.731 18.336C118.515 17.724 118.407 17.028 118.407 16.248C118.407 15.624 118.509 15.036 118.713 14.484C118.917 13.92 119.199 13.44 119.559 13.044C119.931 12.636 120.381 12.318 120.909 12.09C121.437 11.862 122.025 11.748 122.673 11.748ZM122.709 12.918C121.929 12.918 121.323 13.14 120.891 13.584C120.447 14.052 120.171 14.676 120.063 15.456H125.013C125.013 15.084 124.959 14.748 124.851 14.448C124.719 14.076 124.575 13.806 124.419 13.638C124.215 13.422 123.969 13.248 123.681 13.116C123.405 12.996 123.075 12.936 122.691 12.936L122.709 12.918ZM132.864 11.748C133.488 11.748 134.28 11.91 135.24 12.234V14.574H134.538C134.37 14.574 134.268 14.49 134.232 14.322L134.124 13.134C133.56 13.002 133.092 12.936 132.72 12.936H132.702C132.21 12.936 131.796 13.068 131.46 13.332C131.136 13.584 130.974 13.86 130.974 14.16C130.974 14.472 131.046 14.7 131.19 14.844C131.43 15.12 131.778 15.33 132.234 15.474L132.774 15.636C132.87 15.66 133.062 15.72 133.35 15.816L134.214 16.14C134.454 16.224 134.706 16.38 134.97 16.608C135.462 16.992 135.708 17.52 135.708 18.192C135.708 19.068 135.414 19.764 134.826 20.28C134.19 20.844 133.386 21.126 132.414 21.126C131.418 21.126 130.434 20.964 129.462 20.64V18.264H130.11C130.254 18.264 130.344 18.336 130.38 18.48L130.488 19.632C130.968 19.872 131.586 19.992 132.342 19.992C132.918 19.992 133.386 19.842 133.746 19.542C134.058 19.266 134.214 18.96 134.214 18.624C134.214 18.276 134.142 18.024 133.998 17.868C133.83 17.676 133.65 17.532 133.458 17.436C133.194 17.304 132.942 17.208 132.702 17.148C131.814 16.86 131.256 16.668 131.028 16.572C130.74 16.44 130.47 16.272 130.218 16.068C129.714 15.648 129.462 15.084 129.462 14.376C129.462 13.656 129.75 13.044 130.326 12.54C130.926 12.012 131.772 11.748 132.864 11.748ZM146.122 19.722C145.366 20.658 144.238 21.126 142.738 21.126C141.586 21.126 140.638 20.712 139.894 19.884C139.114 19.008 138.724 17.856 138.724 16.428C138.724 15.036 139.09 13.914 139.822 13.062C140.59 12.186 141.658 11.748 143.026 11.748C143.71 11.748 144.61 11.964 145.726 12.396V14.772H145.006C144.838 14.772 144.736 14.688 144.7 14.52C144.688 14.484 144.664 14.256 144.628 13.836L144.574 13.242C144.442 13.194 144.31 13.158 144.178 13.134C144.058 13.11 143.974 13.092 143.926 13.08C143.602 13.032 143.266 13.008 142.918 13.008C142.606 13.008 142.276 13.086 141.928 13.242C141.604 13.386 141.322 13.608 141.082 13.908C140.626 14.508 140.398 15.348 140.398 16.428C140.398 17.508 140.638 18.36 141.118 18.984C141.586 19.584 142.228 19.884 143.044 19.884C143.8 19.884 144.466 19.632 145.042 19.128C145.138 19.032 145.258 18.984 145.402 18.984C145.534 18.984 145.63 19.032 145.69 19.128L146.122 19.722ZM153.385 11.748C153.913 11.748 154.411 11.838 154.879 12.018C155.359 12.198 155.755 12.456 156.067 12.792C156.427 13.176 156.691 13.602 156.859 14.07C157.051 14.61 157.147 15.186 157.147 15.798C157.147 16.074 157.123 16.242 157.075 16.302C157.015 16.386 156.907 16.428 156.751 16.428H150.703C150.703 17.004 150.775 17.508 150.919 17.94C151.039 18.312 151.243 18.66 151.531 18.984C151.795 19.284 152.095 19.5 152.431 19.632C152.791 19.776 153.175 19.848 153.583 19.848C154.015 19.848 154.363 19.806 154.627 19.722C154.879 19.638 155.131 19.536 155.383 19.416C155.647 19.284 155.827 19.188 155.923 19.128C156.079 19.032 156.199 18.984 156.283 18.984C156.415 18.984 156.517 19.038 156.589 19.146L157.039 19.74C156.871 19.956 156.631 20.16 156.319 20.352C155.959 20.58 155.665 20.73 155.437 20.802C155.077 20.922 154.753 21.006 154.465 21.054C154.105 21.114 153.775 21.144 153.475 21.144C152.851 21.144 152.269 21.036 151.729 20.82C151.213 20.616 150.751 20.298 150.343 19.866C149.959 19.47 149.659 18.96 149.443 18.336C149.227 17.724 149.119 17.028 149.119 16.248C149.119 15.624 149.221 15.036 149.425 14.484C149.629 13.92 149.911 13.44 150.271 13.044C150.643 12.636 151.093 12.318 151.621 12.09C152.149 11.862 152.737 11.748 153.385 11.748ZM153.421 12.918C152.641 12.918 152.035 13.14 151.603 13.584C151.159 14.052 150.883 14.676 150.775 15.456H155.725C155.725 15.084 155.671 14.748 155.563 14.448C155.431 14.076 155.287 13.806 155.131 13.638C154.927 13.422 154.681 13.248 154.393 13.116C154.117 12.996 153.787 12.936 153.403 12.936L153.421 12.918ZM162.839 13.188C163.739 12.216 164.747 11.73 165.863 11.73C166.847 11.73 167.603 12.048 168.131 12.684C168.647 13.308 168.905 14.142 168.905 15.186V19.668C169.481 19.776 169.823 19.848 169.931 19.884C170.123 19.92 170.219 20.034 170.219 20.226V21H167.303V15.204C167.303 13.74 166.667 13.008 165.395 13.008C164.495 13.008 163.667 13.434 162.911 14.286V19.686C162.959 19.686 163.307 19.758 163.955 19.902C164.135 19.938 164.225 20.052 164.225 20.244V21H160.031V20.244C160.031 20.052 160.115 19.938 160.283 19.902L161.327 19.704V13.206C160.727 13.098 160.379 13.026 160.283 12.99C160.115 12.954 160.031 12.84 160.031 12.648V11.892H162.263C162.479 11.892 162.623 12 162.695 12.216L162.839 13.206V13.188ZM180.245 19.722C179.489 20.658 178.361 21.126 176.861 21.126C175.709 21.126 174.761 20.712 174.017 19.884C173.237 19.008 172.847 17.856 172.847 16.428C172.847 15.036 173.213 13.914 173.945 13.062C174.713 12.186 175.781 11.748 177.149 11.748C177.833 11.748 178.733 11.964 179.849 12.396V14.772H179.129C178.961 14.772 178.859 14.688 178.823 14.52C178.811 14.484 178.787 14.256 178.751 13.836L178.697 13.242C178.565 13.194 178.433 13.158 178.301 13.134C178.181 13.11 178.097 13.092 178.049 13.08C177.725 13.032 177.389 13.008 177.041 13.008C176.729 13.008 176.399 13.086 176.051 13.242C175.727 13.386 175.445 13.608 175.205 13.908C174.749 14.508 174.521 15.348 174.521 16.428C174.521 17.508 174.761 18.36 175.241 18.984C175.709 19.584 176.351 19.884 177.167 19.884C177.923 19.884 178.589 19.632 179.165 19.128C179.261 19.032 179.381 18.984 179.525 18.984C179.657 18.984 179.753 19.032 179.813 19.128L180.245 19.722ZM187.508 11.748C188.036 11.748 188.534 11.838 189.002 12.018C189.482 12.198 189.878 12.456 190.19 12.792C190.55 13.176 190.814 13.602 190.982 14.07C191.174 14.61 191.27 15.186 191.27 15.798C191.27 16.074 191.246 16.242 191.198 16.302C191.138 16.386 191.03 16.428 190.874 16.428H184.826C184.826 17.004 184.898 17.508 185.042 17.94C185.162 18.312 185.366 18.66 185.654 18.984C185.918 19.284 186.218 19.5 186.554 19.632C186.914 19.776 187.298 19.848 187.706 19.848C188.138 19.848 188.486 19.806 188.75 19.722C189.002 19.638 189.254 19.536 189.506 19.416C189.77 19.284 189.95 19.188 190.046 19.128C190.202 19.032 190.322 18.984 190.406 18.984C190.538 18.984 190.64 19.038 190.712 19.146L191.162 19.74C190.994 19.956 190.754 20.16 190.442 20.352C190.082 20.58 189.788 20.73 189.56 20.802C189.2 20.922 188.876 21.006 188.588 21.054C188.228 21.114 187.898 21.144 187.598 21.144C186.974 21.144 186.392 21.036 185.852 20.82C185.336 20.616 184.874 20.298 184.466 19.866C184.082 19.47 183.782 18.96 183.566 18.336C183.35 17.724 183.242 17.028 183.242 16.248C183.242 15.624 183.344 15.036 183.548 14.484C183.752 13.92 184.034 13.44 184.394 13.044C184.766 12.636 185.216 12.318 185.744 12.09C186.272 11.862 186.86 11.748 187.508 11.748ZM187.544 12.918C186.764 12.918 186.158 13.14 185.726 13.584C185.282 14.052 185.006 14.676 184.898 15.456H189.848C189.848 15.084 189.794 14.748 189.686 14.448C189.554 14.076 189.41 13.806 189.254 13.638C189.05 13.422 188.804 13.248 188.516 13.116C188.24 12.996 187.91 12.936 187.526 12.936L187.544 12.918ZM17.14 41.61C17.14 42.198 17.074 42.774 16.942 43.338C16.81 43.902 16.63 44.412 16.402 44.868C16.21 45.252 15.928 45.672 15.556 46.128C15.268 46.476 14.884 46.812 14.404 47.136L17.716 50.7H16.276C16.012 50.7 15.82 50.676 15.7 50.628C15.556 50.568 15.406 50.46 15.25 50.304L12.982 47.82C12.754 47.892 12.4 47.976 11.92 48.072C11.56 48.144 11.176 48.18 10.768 48.18C9.856 48.18 8.992 48.012 8.176 47.676C7.396 47.352 6.724 46.902 6.16 46.326C5.608 45.75 5.176 45.054 4.864 44.238C4.552 43.41 4.396 42.522 4.396 41.574C4.396 40.626 4.552 39.738 4.864 38.91C5.176 38.094 5.608 37.398 6.16 36.822C6.736 36.222 7.408 35.766 8.176 35.454C8.968 35.13 9.832 34.968 10.768 34.968C11.704 34.968 12.568 35.13 13.36 35.454C14.14 35.778 14.812 36.228 15.376 36.804C15.928 37.38 16.36 38.076 16.672 38.892C16.972 39.684 17.122 40.572 17.122 41.556L17.14 41.61ZM15.34 41.61C15.34 40.806 15.232 40.092 15.016 39.468C14.812 38.868 14.5 38.34 14.08 37.884C13.672 37.44 13.192 37.104 12.64 36.876C12.076 36.648 11.452 36.534 10.768 36.534C10.06 36.534 9.424 36.648 8.86 36.876C8.308 37.104 7.828 37.44 7.42 37.884C7.036 38.304 6.736 38.832 6.52 39.468C6.304 40.092 6.196 40.806 6.196 41.61C6.196 42.414 6.304 43.128 6.52 43.752C6.736 44.388 7.036 44.916 7.42 45.336C7.828 45.78 8.314 46.116 8.878 46.344C9.442 46.572 10.072 46.686 10.768 46.686C11.464 46.686 12.094 46.572 12.658 46.344C13.21 46.116 13.69 45.78 14.098 45.336C14.494 44.904 14.8 44.376 15.016 43.752C15.232 43.116 15.34 42.402 15.34 41.61ZM24.71 46.884C25.61 46.884 26.432 46.464 27.176 45.624V40.224C27.068 40.188 26.726 40.116 26.15 40.008C25.97 39.972 25.88 39.858 25.88 39.666V38.892H28.778V46.704C29.354 46.812 29.696 46.884 29.804 46.92C29.984 46.956 30.074 47.064 30.074 47.244V48.018H27.824C27.608 48.018 27.464 47.904 27.392 47.676L27.266 46.704C26.402 47.676 25.394 48.162 24.242 48.162C23.27 48.162 22.514 47.844 21.974 47.208C21.446 46.572 21.182 45.738 21.182 44.706V40.206C20.63 40.098 20.294 40.026 20.174 39.99C19.982 39.954 19.886 39.84 19.886 39.648V38.892H22.802V44.688C22.802 45.408 22.958 45.948 23.27 46.308C23.594 46.68 24.074 46.866 24.71 46.866V46.884ZM36.976 38.748C37.504 38.748 38.002 38.838 38.47 39.018C38.95 39.198 39.346 39.456 39.658 39.792C40.018 40.176 40.282 40.602 40.45 41.07C40.642 41.61 40.738 42.186 40.738 42.798C40.738 43.074 40.714 43.242 40.666 43.302C40.606 43.386 40.498 43.428 40.342 43.428H34.294C34.294 44.004 34.366 44.508 34.51 44.94C34.63 45.312 34.834 45.66 35.122 45.984C35.386 46.284 35.686 46.5 36.022 46.632C36.382 46.776 36.766 46.848 37.174 46.848C37.606 46.848 37.954 46.806 38.218 46.722C38.47 46.638 38.722 46.536 38.974 46.416C39.238 46.284 39.418 46.188 39.514 46.128C39.67 46.032 39.79 45.984 39.874 45.984C40.006 45.984 40.108 46.038 40.18 46.146L40.63 46.74C40.462 46.956 40.222 47.16 39.91 47.352C39.55 47.58 39.256 47.73 39.028 47.802C38.668 47.922 38.344 48.006 38.056 48.054C37.696 48.114 37.366 48.144 37.066 48.144C36.442 48.144 35.86 48.036 35.32 47.82C34.804 47.616 34.342 47.298 33.934 46.866C33.55 46.47 33.25 45.96 33.034 45.336C32.818 44.724 32.71 44.028 32.71 43.248C32.71 42.624 32.812 42.036 33.016 41.484C33.22 40.92 33.502 40.44 33.862 40.044C34.234 39.636 34.684 39.318 35.212 39.09C35.74 38.862 36.328 38.748 36.976 38.748ZM37.012 39.918C36.232 39.918 35.626 40.14 35.194 40.584C34.75 41.052 34.474 41.676 34.366 42.456H39.316C39.316 42.084 39.262 41.748 39.154 41.448C39.022 41.076 38.878 40.806 38.722 40.638C38.518 40.422 38.272 40.248 37.984 40.116C37.708 39.996 37.378 39.936 36.994 39.936L37.012 39.918ZM46.4294 40.188C47.3294 39.216 48.3374 38.73 49.4534 38.73C50.4374 38.73 51.1934 39.048 51.7214 39.684C52.2374 40.308 52.4954 41.142 52.4954 42.186V46.668C53.0714 46.776 53.4134 46.848 53.5214 46.884C53.7134 46.92 53.8094 47.034 53.8094 47.226V48H50.8934V42.204C50.8934 40.74 50.2574 40.008 48.9854 40.008C48.0854 40.008 47.2574 40.434 46.5014 41.286V46.686C46.5494 46.686 46.8974 46.758 47.5454 46.902C47.7254 46.938 47.8154 47.052 47.8154 47.244V48H43.6214V47.244C43.6214 47.052 43.7054 46.938 43.8734 46.902L44.9174 46.704V40.206C44.3174 40.098 43.9694 40.026 43.8734 39.99C43.7054 39.954 43.6214 39.84 43.6214 39.648V38.892H45.8534C46.0694 38.892 46.2134 39 46.2854 39.216L46.4294 40.206V40.188ZM63.8354 46.722C63.0794 47.658 61.9514 48.126 60.4514 48.126C59.2994 48.126 58.3514 47.712 57.6074 46.884C56.8274 46.008 56.4374 44.856 56.4374 43.428C56.4374 42.036 56.8034 40.914 57.5354 40.062C58.3034 39.186 59.3714 38.748 60.7394 38.748C61.4234 38.748 62.3234 38.964 63.4394 39.396V41.772H62.7194C62.5514 41.772 62.4494 41.688 62.4134 41.52C62.4014 41.484 62.3774 41.256 62.3414 40.836L62.2874 40.242C62.1554 40.194 62.0234 40.158 61.8914 40.134C61.7714 40.11 61.6874 40.092 61.6394 40.08C61.3154 40.032 60.9794 40.008 60.6314 40.008C60.3194 40.008 59.9894 40.086 59.6414 40.242C59.3174 40.386 59.0354 40.608 58.7954 40.908C58.3394 41.508 58.1114 42.348 58.1114 43.428C58.1114 44.508 58.3514 45.36 58.8314 45.984C59.2994 46.584 59.9414 46.884 60.7574 46.884C61.5134 46.884 62.1794 46.632 62.7554 46.128C62.8514 46.032 62.9714 45.984 63.1154 45.984C63.2474 45.984 63.3434 46.032 63.4034 46.128L63.8354 46.722ZM69.5436 40.116C70.4196 39.204 71.3916 38.748 72.4596 38.748C73.4316 38.748 74.1876 39.06 74.7276 39.684C75.2556 40.308 75.5196 41.148 75.5196 42.204V46.686C76.0956 46.794 76.4376 46.866 76.5456 46.902C76.7256 46.938 76.8156 47.052 76.8156 47.244V48H73.9176V42.204C73.9176 40.752 73.2756 40.026 71.9916 40.026C71.1156 40.026 70.2996 40.452 69.5436 41.304V46.704L69.7596 46.74L70.5516 46.902C70.7436 46.938 70.8396 47.052 70.8396 47.244V48H66.6276V47.244C66.6276 47.052 66.7236 46.938 66.9156 46.902L67.9236 46.704V36.066C67.2396 35.958 66.8436 35.886 66.7356 35.85C66.5436 35.814 66.4476 35.7 66.4476 35.508V34.752H69.5436V40.116ZM80.9376 36.822C80.8416 36.726 80.7576 36.606 80.6856 36.462C80.6256 36.342 80.5956 36.198 80.5956 36.03C80.5956 35.85 80.6256 35.7 80.6856 35.58C80.7696 35.412 80.8536 35.286 80.9376 35.202C81.0336 35.106 81.1536 35.022 81.2976 34.95C81.4176 34.89 81.5616 34.86 81.7296 34.86C81.8976 34.86 82.0416 34.89 82.1616 34.95C82.3056 35.022 82.4256 35.106 82.5216 35.202C82.6056 35.286 82.6896 35.412 82.7736 35.58C82.8456 35.724 82.8816 35.874 82.8816 36.03C82.8816 36.174 82.8456 36.318 82.7736 36.462C82.7016 36.606 82.6176 36.726 82.5216 36.822C82.4256 36.918 82.3056 37.002 82.1616 37.074C82.0416 37.134 81.8976 37.164 81.7296 37.164C81.5616 37.164 81.4176 37.134 81.2976 37.074C81.1536 37.002 81.0336 36.918 80.9376 36.822ZM83.5476 46.884C83.6316 46.896 83.6976 46.938 83.7456 47.01C83.7936 47.07 83.8176 47.142 83.8176 47.226V48H79.6236V47.226C79.6236 47.142 79.6476 47.07 79.6956 47.01C79.7436 46.938 79.8096 46.896 79.8936 46.884L80.9376 46.686V40.188L79.8936 39.99C79.8096 39.978 79.7436 39.942 79.6956 39.882C79.6476 39.81 79.6236 39.732 79.6236 39.648V38.892H82.5216V46.686L83.5476 46.884ZM89.4887 40.188C90.3887 39.216 91.3967 38.73 92.5127 38.73C93.4967 38.73 94.2527 39.048 94.7807 39.684C95.2967 40.308 95.5547 41.142 95.5547 42.186V46.668C96.1307 46.776 96.4727 46.848 96.5807 46.884C96.7727 46.92 96.8687 47.034 96.8687 47.226V48H93.9527V42.204C93.9527 40.74 93.3167 40.008 92.0447 40.008C91.1447 40.008 90.3167 40.434 89.5607 41.286V46.686C89.6087 46.686 89.9567 46.758 90.6047 46.902C90.7847 46.938 90.8747 47.052 90.8747 47.244V48H86.6807V47.244C86.6807 47.052 86.7647 46.938 86.9327 46.902L87.9767 46.704V40.206C87.3767 40.098 87.0287 40.026 86.9327 39.99C86.7647 39.954 86.6807 39.84 86.6807 39.648V38.892H88.9127C89.1287 38.892 89.2727 39 89.3447 39.216L89.4887 40.206V40.188ZM103.241 38.766C103.649 38.766 104.015 38.808 104.339 38.892C104.687 38.988 104.999 39.12 105.275 39.288H107.759V39.882C107.759 40.074 107.633 40.2 107.381 40.26L106.355 40.404C106.547 40.752 106.643 41.184 106.643 41.7C106.643 42.168 106.559 42.57 106.391 42.906C106.199 43.29 105.965 43.596 105.689 43.824C105.353 44.1 104.993 44.304 104.609 44.436C104.225 44.568 103.769 44.634 103.241 44.634C102.809 44.634 102.407 44.58 102.035 44.472C101.867 44.568 101.723 44.7 101.603 44.868C101.507 45 101.459 45.132 101.459 45.264C101.459 45.492 101.543 45.654 101.711 45.75C101.915 45.87 102.149 45.948 102.413 45.984C102.797 46.032 103.127 46.056 103.403 46.056C103.643 46.056 104.015 46.08 104.519 46.128C104.615 46.14 104.777 46.158 105.005 46.182C105.245 46.194 105.455 46.218 105.635 46.254C106.019 46.326 106.349 46.434 106.625 46.578C106.889 46.71 107.123 46.92 107.327 47.208C107.495 47.448 107.579 47.784 107.579 48.216C107.579 48.636 107.483 49.02 107.291 49.368C107.111 49.704 106.823 50.028 106.427 50.34C106.079 50.616 105.635 50.844 105.095 51.024C104.591 51.192 103.991 51.276 103.295 51.276C102.575 51.276 101.987 51.21 101.531 51.078C101.027 50.934 100.613 50.754 100.289 50.538C99.9648 50.322 99.7188 50.064 99.5508 49.764C99.3828 49.464 99.2988 49.164 99.2988 48.864C99.2988 48.42 99.4428 48.036 99.7308 47.712C100.019 47.388 100.415 47.136 100.919 46.956C100.667 46.848 100.463 46.686 100.307 46.47C100.151 46.254 100.073 45.984 100.073 45.66C100.073 45.588 100.097 45.456 100.145 45.264C100.181 45.12 100.253 44.976 100.361 44.832C100.457 44.7 100.583 44.568 100.739 44.436C100.787 44.388 100.955 44.28 101.243 44.112C100.787 43.86 100.433 43.524 100.181 43.104C99.9288 42.684 99.8028 42.198 99.8028 41.646C99.8028 41.178 99.8868 40.776 100.055 40.44C100.235 40.068 100.475 39.762 100.775 39.522C101.075 39.27 101.447 39.072 101.891 38.928C102.287 38.796 102.749 38.73 103.277 38.73L103.241 38.766ZM103.259 43.608C103.571 43.608 103.859 43.56 104.123 43.464C104.351 43.38 104.561 43.254 104.753 43.086C104.921 42.93 105.047 42.732 105.131 42.492C105.215 42.24 105.257 41.994 105.257 41.754C105.257 41.19 105.083 40.746 104.735 40.422C104.399 40.098 103.907 39.936 103.259 39.936C102.623 39.936 102.131 40.098 101.783 40.422C101.447 40.746 101.279 41.19 101.279 41.754C101.279 42.018 101.327 42.264 101.423 42.492C101.531 42.744 101.657 42.936 101.801 43.068C101.993 43.236 102.203 43.362 102.431 43.446C102.671 43.53 102.947 43.572 103.259 43.572V43.608ZM106.103 48.54C106.103 48.312 106.043 48.132 105.923 48C105.803 47.856 105.629 47.748 105.401 47.676C105.173 47.604 104.927 47.55 104.663 47.514C104.279 47.466 103.979 47.436 103.763 47.424L102.809 47.388C102.749 47.388 102.443 47.352 101.891 47.28C101.543 47.448 101.261 47.646 101.045 47.874C100.829 48.114 100.721 48.396 100.721 48.72C100.721 48.924 100.775 49.116 100.883 49.296C100.991 49.464 101.153 49.614 101.369 49.746C101.597 49.878 101.867 49.98 102.179 50.052C102.503 50.124 102.887 50.16 103.331 50.16C103.703 50.16 104.087 50.118 104.483 50.034C104.795 49.974 105.083 49.86 105.347 49.692C105.587 49.548 105.767 49.38 105.887 49.188C106.019 48.984 106.085 48.768 106.085 48.54H106.103ZM10.732 68.178C12.028 68.754 12.676 69.72 12.676 71.076C12.676 72.264 12.304 73.23 11.56 73.974C10.78 74.754 9.712 75.144 8.356 75.144C7.792 75.144 7.204 75.09 6.592 74.982C6.112 74.898 5.632 74.784 5.152 74.64L4.63 74.46V71.22H5.512C5.716 71.22 5.836 71.322 5.872 71.526C5.896 71.622 5.926 71.916 5.962 72.408L6.016 73.2C6.952 73.536 7.684 73.704 8.212 73.704C8.74 73.704 9.184 73.644 9.544 73.524C9.892 73.416 10.168 73.254 10.372 73.038C10.828 72.618 11.056 72.048 11.056 71.328C11.056 70.632 10.732 70.104 10.084 69.744C9.796 69.564 9.472 69.42 9.112 69.312C7.828 68.916 7.072 68.664 6.844 68.556C6.496 68.4 6.166 68.184 5.854 67.908C5.218 67.344 4.9 66.54 4.9 65.496C4.9 64.548 5.242 63.732 5.926 63.048C6.67 62.328 7.63 61.968 8.806 61.968C10.054 61.968 11.26 62.208 12.424 62.688V65.658H11.56C11.344 65.658 11.218 65.556 11.182 65.352C11.182 65.316 11.17 65.196 11.146 64.992C11.134 64.776 11.104 64.362 11.056 63.75C10.216 63.522 9.508 63.408 8.932 63.408C8.152 63.408 7.552 63.6 7.132 63.984C6.724 64.356 6.52 64.836 6.52 65.424C6.52 66.06 6.844 66.558 7.492 66.918C7.756 67.086 8.092 67.236 8.5 67.368C9.58 67.728 10.336 67.998 10.768 68.178H10.732ZM16.7775 63.822C16.6815 63.726 16.5975 63.606 16.5255 63.462C16.4655 63.342 16.4355 63.198 16.4355 63.03C16.4355 62.85 16.4655 62.7 16.5255 62.58C16.6095 62.412 16.6935 62.286 16.7775 62.202C16.8735 62.106 16.9935 62.022 17.1375 61.95C17.2575 61.89 17.4015 61.86 17.5695 61.86C17.7375 61.86 17.8815 61.89 18.0015 61.95C18.1455 62.022 18.2655 62.106 18.3615 62.202C18.4455 62.286 18.5295 62.412 18.6135 62.58C18.6855 62.724 18.7215 62.874 18.7215 63.03C18.7215 63.174 18.6855 63.318 18.6135 63.462C18.5415 63.606 18.4575 63.726 18.3615 63.822C18.2655 63.918 18.1455 64.002 18.0015 64.074C17.8815 64.134 17.7375 64.164 17.5695 64.164C17.4015 64.164 17.2575 64.134 17.1375 64.074C16.9935 64.002 16.8735 63.918 16.7775 63.822ZM19.3875 73.884C19.4715 73.896 19.5375 73.938 19.5855 74.01C19.6335 74.07 19.6575 74.142 19.6575 74.226V75H15.4635V74.226C15.4635 74.142 15.4875 74.07 15.5355 74.01C15.5835 73.938 15.6495 73.896 15.7335 73.884L16.7775 73.686V67.188L15.7335 66.99C15.6495 66.978 15.5835 66.942 15.5355 66.882C15.4875 66.81 15.4635 66.732 15.4635 66.648V65.892H18.3615V73.686L19.3875 73.884ZM25.3106 67.17C26.0786 66.222 26.9366 65.748 27.8846 65.748C28.5086 65.748 29.0126 65.922 29.3966 66.27C29.7686 66.606 30.0446 67.068 30.2246 67.656C30.4886 67.008 30.8846 66.528 31.4126 66.216C31.9646 65.904 32.4926 65.748 32.9966 65.748C33.5246 65.748 33.9926 65.826 34.4006 65.982C34.7846 66.126 35.1086 66.348 35.3726 66.648C35.9006 67.248 36.1646 68.1 36.1646 69.204V73.704C36.7646 73.812 37.1126 73.884 37.2086 73.92C37.3886 73.956 37.4786 74.064 37.4786 74.244V75.036H34.5806V69.222C34.5806 68.49 34.4246 67.95 34.1126 67.602C33.7766 67.23 33.3206 67.044 32.7446 67.044C32.1926 67.044 31.7366 67.224 31.3766 67.584C30.9806 67.98 30.7826 68.52 30.7826 69.204V73.704C30.8306 73.716 30.9326 73.74 31.0886 73.776C31.2446 73.812 31.4846 73.86 31.8086 73.92C31.9886 73.956 32.0786 74.064 32.0786 74.244V75.018H29.1806V69.204C29.1806 67.764 28.6046 67.044 27.4526 67.044C26.7086 67.044 26.0306 67.44 25.4186 68.232V73.704L25.9046 73.794L26.4446 73.902C26.6246 73.938 26.7146 74.052 26.7146 74.244V75H22.5206V74.244C22.5206 74.052 22.6046 73.938 22.7726 73.902L23.8166 73.704V67.206C23.2166 67.098 22.8686 67.026 22.7726 66.99C22.6046 66.954 22.5206 66.84 22.5206 66.648V65.892H24.7526C24.9686 65.892 25.1126 66 25.1846 66.216L25.3106 67.152V67.17ZM44.0776 73.884C44.9776 73.884 45.7996 73.464 46.5436 72.624V67.224C46.4356 67.188 46.0936 67.116 45.5176 67.008C45.3376 66.972 45.2476 66.858 45.2476 66.666V65.892H48.1456V73.704C48.7216 73.812 49.0636 73.884 49.1716 73.92C49.3516 73.956 49.4416 74.064 49.4416 74.244V75.018H47.1916C46.9756 75.018 46.8316 74.904 46.7596 74.676L46.6336 73.704C45.7696 74.676 44.7616 75.162 43.6096 75.162C42.6376 75.162 41.8816 74.844 41.3416 74.208C40.8136 73.572 40.5496 72.738 40.5496 71.706V67.206C39.9976 67.098 39.6616 67.026 39.5416 66.99C39.3496 66.954 39.2536 66.84 39.2536 66.648V65.892H42.1696V71.688C42.1696 72.408 42.3256 72.948 42.6376 73.308C42.9616 73.68 43.4416 73.866 44.0776 73.866V73.884ZM56.2176 73.884C56.4096 73.92 56.5056 74.034 56.5056 74.226V75H52.2936V74.226C52.2936 74.034 52.3896 73.92 52.5816 73.884L53.5896 73.686V63.048C53.0376 62.94 52.7016 62.868 52.5816 62.832C52.3896 62.796 52.2936 62.688 52.2936 62.508V61.734H55.2096V73.668C55.7616 73.776 56.0976 73.848 56.2176 73.884ZM67.2343 73.848C67.3183 73.86 67.3843 73.902 67.4323 73.974C67.4803 74.034 67.5043 74.106 67.5043 74.19V74.964H65.6323C65.5243 74.964 65.3983 74.94 65.2543 74.892C65.1703 74.868 65.1103 74.772 65.0743 74.604L64.8943 73.74L64.1743 74.334C63.9703 74.502 63.7303 74.646 63.4543 74.766C63.1903 74.886 62.9263 74.976 62.6623 75.036C62.4223 75.096 62.0983 75.126 61.6903 75.126C61.3543 75.126 61.0303 75.072 60.7183 74.964C60.3463 74.832 60.0763 74.688 59.9083 74.532C59.6923 74.34 59.5123 74.088 59.3683 73.776C59.2363 73.5 59.1703 73.14 59.1703 72.696C59.1703 72.312 59.2663 71.964 59.4583 71.652C59.6743 71.304 59.9983 71.004 60.4303 70.752C60.9103 70.476 61.4863 70.26 62.1583 70.104C62.8543 69.948 63.7303 69.87 64.7863 69.87V69.168C64.7863 68.46 64.6303 67.92 64.3183 67.548C64.0063 67.176 63.5563 66.99 62.9683 66.99C62.5843 66.99 62.2543 67.044 61.9783 67.152C61.6663 67.272 61.4383 67.38 61.2943 67.476C61.2223 67.524 61.1383 67.578 61.0423 67.638C60.9583 67.686 60.8683 67.74 60.7723 67.8C60.6403 67.896 60.5023 67.944 60.3583 67.944C60.2263 67.944 60.1303 67.92 60.0703 67.872C59.9983 67.812 59.9383 67.74 59.8903 67.656L59.6023 67.152C60.0703 66.696 60.6103 66.336 61.2223 66.072C61.7743 65.832 62.4223 65.712 63.1663 65.712C63.7063 65.712 64.1623 65.796 64.5343 65.964C64.9423 66.144 65.2723 66.372 65.5243 66.648C65.7883 66.924 65.9923 67.284 66.1363 67.728C66.2683 68.124 66.3343 68.592 66.3343 69.132V73.686C66.9103 73.806 67.2103 73.872 67.2343 73.884V73.848ZM64.7503 70.896C63.9703 70.896 63.3463 70.938 62.8783 71.022C62.4223 71.106 62.0023 71.232 61.6183 71.4C61.2823 71.556 61.0423 71.736 60.8983 71.94C60.7543 72.156 60.6823 72.384 60.6823 72.624C60.6823 72.816 60.7243 73.02 60.8083 73.236C60.8803 73.416 60.9883 73.56 61.1323 73.668C61.2763 73.776 61.4323 73.854 61.6003 73.902C61.8043 73.962 62.0023 73.992 62.1943 73.992C62.4343 73.992 62.6863 73.962 62.9503 73.902C63.1903 73.842 63.4123 73.764 63.6163 73.668C63.7963 73.584 63.9943 73.452 64.2103 73.272C64.3303 73.176 64.5103 73.008 64.7503 72.768V70.896ZM73.1279 75.144C72.4319 75.144 71.8799 74.94 71.4719 74.532C71.0879 74.148 70.8959 73.572 70.8959 72.804V67.224H69.7979C69.6899 67.224 69.6059 67.2 69.5459 67.152C69.4859 67.104 69.4559 67.014 69.4559 66.882V66.252L70.9499 66.054L71.3099 63.228C71.3099 63.132 71.3459 63.06 71.4179 63.012C71.4779 62.964 71.5619 62.94 71.6699 62.94H72.4799V66.072H75.0899V67.242H72.4799V72.714C72.4799 73.11 72.5699 73.398 72.7499 73.578C72.9299 73.758 73.1759 73.848 73.4879 73.848C73.6199 73.848 73.7699 73.824 73.9379 73.776C74.0459 73.74 74.1539 73.692 74.2619 73.632C74.2979 73.608 74.3339 73.584 74.3699 73.56C74.4059 73.536 74.4419 73.512 74.4779 73.488C74.5739 73.44 74.6339 73.416 74.6579 73.416C74.7419 73.416 74.8139 73.464 74.8739 73.56L75.3419 74.316C75.0179 74.592 74.6819 74.796 74.3339 74.928C73.9379 75.072 73.5359 75.144 73.1279 75.144ZM82.3129 65.748C82.9729 65.748 83.5729 65.856 84.1129 66.072C84.6409 66.288 85.1029 66.6 85.4989 67.008C85.8709 67.392 86.1589 67.884 86.3629 68.484C86.5669 69.072 86.6689 69.72 86.6689 70.428C86.6689 71.136 86.5669 71.784 86.3629 72.372C86.1589 72.972 85.8709 73.464 85.4989 73.848C85.1029 74.256 84.6409 74.568 84.1129 74.784C83.5729 75 82.9729 75.108 82.3129 75.108C81.6529 75.108 81.0529 75 80.5129 74.784C79.9849 74.568 79.5229 74.256 79.1269 73.848C78.7669 73.476 78.4729 72.984 78.2449 72.372C78.0529 71.856 77.9569 71.208 77.9569 70.428C77.9569 69.648 78.0529 69 78.2449 68.484C78.4729 67.872 78.7669 67.38 79.1269 67.008C79.5229 66.6 79.9849 66.288 80.5129 66.072C81.0529 65.856 81.6529 65.748 82.3129 65.748ZM82.3129 73.884C83.2369 73.884 83.9089 73.584 84.3289 72.984C84.7729 72.36 84.9949 71.514 84.9949 70.446C84.9949 69.378 84.7729 68.532 84.3289 67.908C83.9089 67.308 83.2369 67.008 82.3129 67.008C81.8449 67.008 81.4489 67.08 81.1249 67.224C80.8129 67.368 80.5369 67.596 80.2969 67.908C80.0689 68.22 79.9009 68.58 79.7929 68.988C79.6729 69.468 79.6129 69.96 79.6129 70.464C79.6129 70.944 79.6729 71.424 79.7929 71.904C79.9009 72.312 80.0689 72.672 80.2969 72.984C80.5009 73.26 80.7769 73.476 81.1249 73.632C81.5089 73.8 81.9049 73.884 82.3129 73.884ZM92.3087 67.746C92.9807 66.39 93.9047 65.712 95.0807 65.712C95.5487 65.712 95.9627 65.82 96.3227 66.036L96.1247 67.242C96.0887 67.398 96.0107 67.476 95.8907 67.476C95.8067 67.476 95.6627 67.446 95.4587 67.386C95.2547 67.326 95.0087 67.296 94.7207 67.296C93.6647 67.296 92.8847 67.932 92.3807 69.204V73.704L93.4067 73.902C93.5867 73.938 93.6767 74.052 93.6767 74.244V75H89.4827V74.244C89.4827 74.052 89.5727 73.938 89.7527 73.902L90.7787 73.704V67.206C90.2027 67.098 89.8607 67.026 89.7527 66.99C89.5727 66.954 89.4827 66.84 89.4827 66.648V65.892H91.6967C91.8647 65.892 91.9787 65.922 92.0387 65.982C92.0987 66.042 92.1467 66.156 92.1827 66.324L92.2907 67.746H92.3087Z" fill="white"/>
<path d="M123 71.9972C128.956 71.8051 135.137 71.8828 138 65.9977C140.103 61.6744 142.443 57.4219 144.444 53.0545C146.629 48.2892 149.28 42.4931 155 41.2222C157.479 40.6713 162.701 40.289 164.444 42.6665C167.623 47.0005 165.726 82.1788 181 71.9972" stroke="white" stroke-width="3" stroke-linecap="round"/>
<path d="M124 73C131.825 73 136.358 73.642 142 68C145.282 64.7179 150.858 62.8585 155.556 64.1111C160.474 65.4226 161.066 71.145 165.056 73.3889C167.635 74.8398 172.077 74 175 74" stroke="white" stroke-width="3" stroke-linecap="round"/>
<path d="M180.5 64.0114L186.274 54.0114H174.726L180.5 64.0114ZM179.5 41.9886V55.0114H181.5V41.9886H179.5Z" fill="white"/>
</svg>
