<svg width="196" height="87" viewBox="0 0 196 87" fill="none" xmlns="http://www.w3.org/2000/svg">
<rect width="196" height="86" rx="10" fill="#403E90"/>
<g filter="url(#filter0_dd_3001_2)">
<path d="M27.286 19.884C27.37 19.908 27.436 19.95 27.484 20.01C27.532 20.058 27.556 20.124 27.556 20.208V21H25.684C25.372 21 25.144 20.874 25 20.622L21.652 16.014C21.568 15.894 21.46 15.792 21.328 15.708C21.22 15.636 21.04 15.6 20.788 15.6H19.636V19.668L20.644 19.884C20.728 19.908 20.794 19.95 20.842 20.01C20.902 20.058 20.932 20.124 20.932 20.208V20.982H16.594V20.208C16.594 20.124 16.618 20.058 16.666 20.01C16.714 19.95 16.78 19.908 16.864 19.884L17.908 19.668V9.408L16.864 9.192C16.78 9.168 16.714 9.132 16.666 9.084C16.618 9.024 16.594 8.952 16.594 8.868V8.076H21.364C22.168 8.076 22.876 8.16 23.488 8.328C24.088 8.496 24.58 8.736 24.964 9.048C25.36 9.372 25.648 9.75 25.828 10.182C26.008 10.614 26.098 11.112 26.098 11.676C26.098 12.12 26.026 12.54 25.882 12.936C25.738 13.32 25.528 13.68 25.252 14.016C24.976 14.352 24.646 14.622 24.262 14.826C23.782 15.09 23.338 15.264 22.93 15.348C23.146 15.48 23.338 15.66 23.506 15.888L26.296 19.704C26.872 19.8 27.208 19.86 27.304 19.884H27.286ZM21.256 14.34C21.784 14.34 22.234 14.28 22.606 14.16C22.966 14.04 23.29 13.86 23.578 13.62C23.842 13.392 24.04 13.128 24.172 12.828C24.304 12.528 24.37 12.18 24.37 11.784C24.37 11.028 24.118 10.452 23.614 10.056C23.122 9.672 22.372 9.48 21.364 9.48H19.618V14.34H21.256ZM33.9221 11.748C34.4501 11.748 34.9481 11.838 35.4161 12.018C35.8961 12.198 36.2921 12.456 36.6041 12.792C36.9641 13.176 37.2281 13.602 37.3961 14.07C37.5881 14.61 37.6841 15.186 37.6841 15.798C37.6841 16.074 37.6601 16.242 37.6121 16.302C37.5521 16.386 37.4441 16.428 37.2881 16.428H31.2401C31.2401 17.004 31.3121 17.508 31.4561 17.94C31.5761 18.312 31.7801 18.66 32.0681 18.984C32.3321 19.284 32.6321 19.5 32.9681 19.632C33.3281 19.776 33.7121 19.848 34.1201 19.848C34.5521 19.848 34.9001 19.806 35.1641 19.722C35.4161 19.638 35.6681 19.536 35.9201 19.416C36.1841 19.284 36.3641 19.188 36.4601 19.128C36.6161 19.032 36.7361 18.984 36.8201 18.984C36.9521 18.984 37.0541 19.038 37.1261 19.146L37.5761 19.74C37.4081 19.956 37.1681 20.16 36.8561 20.352C36.4961 20.58 36.2021 20.73 35.9741 20.802C35.6141 20.922 35.2901 21.006 35.0021 21.054C34.6421 21.114 34.3121 21.144 34.0121 21.144C33.3881 21.144 32.8061 21.036 32.2661 20.82C31.7501 20.616 31.2881 20.298 30.8801 19.866C30.4961 19.47 30.1961 18.96 29.9801 18.336C29.7641 17.724 29.6561 17.028 29.6561 16.248C29.6561 15.624 29.7581 15.036 29.9621 14.484C30.1661 13.92 30.4481 13.44 30.8081 13.044C31.1801 12.636 31.6301 12.318 32.1581 12.09C32.6861 11.862 33.2741 11.748 33.9221 11.748ZM33.9581 12.918C33.1781 12.918 32.5721 13.14 32.1401 13.584C31.6961 14.052 31.4201 14.676 31.3121 15.456H36.2621C36.2621 15.084 36.2081 14.748 36.1001 14.448C35.9681 14.076 35.8241 13.806 35.6681 13.638C35.4641 13.422 35.2181 13.248 34.9301 13.116C34.6541 12.996 34.3241 12.936 33.9401 12.936L33.9581 12.918ZM45.3195 9.156C44.0955 9.156 43.4835 9.846 43.4835 11.226V12.072H46.1115V13.224H43.5195V19.686C44.0955 19.77 44.4975 19.836 44.7255 19.884C44.9055 19.92 44.9955 20.034 44.9955 20.226V21H40.5315V20.226C40.5315 20.034 40.6215 19.92 40.8015 19.884L41.9175 19.686V13.26L40.9095 13.134C40.6215 13.062 40.4775 12.924 40.4775 12.72V12.072H41.9175V11.19C41.9175 10.134 42.1995 9.324 42.7635 8.76C43.3155 8.196 44.0775 7.914 45.0495 7.914C45.4095 7.914 45.7875 7.974 46.1835 8.094L46.1475 8.904C46.1475 9.012 46.0935 9.084 45.9855 9.12C45.9135 9.144 45.7755 9.156 45.5715 9.156H45.3195ZM51.8907 13.746C52.5627 12.39 53.4867 11.712 54.6627 11.712C55.1307 11.712 55.5447 11.82 55.9047 12.036L55.7067 13.242C55.6707 13.398 55.5927 13.476 55.4727 13.476C55.3887 13.476 55.2447 13.446 55.0407 13.386C54.8367 13.326 54.5907 13.296 54.3027 13.296C53.2467 13.296 52.4667 13.932 51.9627 15.204V19.704L52.9887 19.902C53.1687 19.938 53.2587 20.052 53.2587 20.244V21H49.0647V20.244C49.0647 20.052 49.1547 19.938 49.3347 19.902L50.3607 19.704V13.206C49.7847 13.098 49.4427 13.026 49.3347 12.99C49.1547 12.954 49.0647 12.84 49.0647 12.648V11.892H51.2787C51.4467 11.892 51.5607 11.922 51.6207 11.982C51.6807 12.042 51.7287 12.156 51.7647 12.324L51.8727 13.746H51.8907ZM66.1843 19.848C66.2683 19.86 66.3343 19.902 66.3823 19.974C66.4303 20.034 66.4543 20.106 66.4543 20.19V20.964H64.5823C64.4743 20.964 64.3483 20.94 64.2043 20.892C64.1203 20.868 64.0603 20.772 64.0243 20.604L63.8443 19.74L63.1243 20.334C62.9203 20.502 62.6803 20.646 62.4043 20.766C62.1403 20.886 61.8763 20.976 61.6123 21.036C61.3723 21.096 61.0483 21.126 60.6403 21.126C60.3043 21.126 59.9803 21.072 59.6683 20.964C59.2963 20.832 59.0263 20.688 58.8583 20.532C58.6423 20.34 58.4623 20.088 58.3183 19.776C58.1863 19.5 58.1203 19.14 58.1203 18.696C58.1203 18.312 58.2163 17.964 58.4083 17.652C58.6243 17.304 58.9483 17.004 59.3803 16.752C59.8603 16.476 60.4363 16.26 61.1083 16.104C61.8043 15.948 62.6803 15.87 63.7363 15.87V15.168C63.7363 14.46 63.5803 13.92 63.2683 13.548C62.9563 13.176 62.5063 12.99 61.9183 12.99C61.5343 12.99 61.2043 13.044 60.9283 13.152C60.6163 13.272 60.3883 13.38 60.2443 13.476C60.1723 13.524 60.0883 13.578 59.9923 13.638C59.9083 13.686 59.8183 13.74 59.7223 13.8C59.5903 13.896 59.4523 13.944 59.3083 13.944C59.1763 13.944 59.0803 13.92 59.0203 13.872C58.9483 13.812 58.8883 13.74 58.8403 13.656L58.5523 13.152C59.0203 12.696 59.5603 12.336 60.1723 12.072C60.7243 11.832 61.3723 11.712 62.1163 11.712C62.6563 11.712 63.1123 11.796 63.4843 11.964C63.8923 12.144 64.2223 12.372 64.4743 12.648C64.7383 12.924 64.9423 13.284 65.0863 13.728C65.2183 14.124 65.2843 14.592 65.2843 15.132V19.686C65.8603 19.806 66.1603 19.872 66.1843 19.884V19.848ZM63.7003 16.896C62.9203 16.896 62.2963 16.938 61.8283 17.022C61.3723 17.106 60.9523 17.232 60.5683 17.4C60.2323 17.556 59.9923 17.736 59.8483 17.94C59.7043 18.156 59.6323 18.384 59.6323 18.624C59.6323 18.816 59.6743 19.02 59.7583 19.236C59.8303 19.416 59.9383 19.56 60.0823 19.668C60.2263 19.776 60.3823 19.854 60.5503 19.902C60.7543 19.962 60.9523 19.992 61.1443 19.992C61.3843 19.992 61.6363 19.962 61.9003 19.902C62.1403 19.842 62.3623 19.764 62.5663 19.668C62.7463 19.584 62.9443 19.452 63.1603 19.272C63.2803 19.176 63.4603 19.008 63.7003 18.768V16.896ZM76.4928 19.722C75.7368 20.658 74.6088 21.126 73.1088 21.126C71.9568 21.126 71.0088 20.712 70.2648 19.884C69.4848 19.008 69.0948 17.856 69.0948 16.428C69.0948 15.036 69.4608 13.914 70.1928 13.062C70.9608 12.186 72.0288 11.748 73.3968 11.748C74.0808 11.748 74.9808 11.964 76.0968 12.396V14.772H75.3768C75.2088 14.772 75.1068 14.688 75.0708 14.52C75.0588 14.484 75.0348 14.256 74.9988 13.836L74.9448 13.242C74.8128 13.194 74.6808 13.158 74.5488 13.134C74.4288 13.11 74.3448 13.092 74.2968 13.08C73.9728 13.032 73.6368 13.008 73.2888 13.008C72.9768 13.008 72.6468 13.086 72.2988 13.242C71.9748 13.386 71.6928 13.608 71.4528 13.908C70.9968 14.508 70.7688 15.348 70.7688 16.428C70.7688 17.508 71.0088 18.36 71.4888 18.984C71.9568 19.584 72.5988 19.884 73.4148 19.884C74.1708 19.884 74.8368 19.632 75.4128 19.128C75.5088 19.032 75.6288 18.984 75.7728 18.984C75.9048 18.984 76.0008 19.032 76.0608 19.128L76.4928 19.722ZM82.579 21.144C81.883 21.144 81.331 20.94 80.923 20.532C80.539 20.148 80.347 19.572 80.347 18.804V13.224H79.249C79.141 13.224 79.057 13.2 78.997 13.152C78.937 13.104 78.907 13.014 78.907 12.882V12.252L80.401 12.054L80.761 9.228C80.761 9.132 80.797 9.06 80.869 9.012C80.929 8.964 81.013 8.94 81.121 8.94H81.931V12.072H84.541V13.242H81.931V18.714C81.931 19.11 82.021 19.398 82.201 19.578C82.381 19.758 82.627 19.848 82.939 19.848C83.071 19.848 83.221 19.824 83.389 19.776C83.497 19.74 83.605 19.692 83.713 19.632C83.749 19.608 83.785 19.584 83.821 19.56C83.857 19.536 83.893 19.512 83.929 19.488C84.025 19.44 84.085 19.416 84.109 19.416C84.193 19.416 84.265 19.464 84.325 19.56L84.793 20.316C84.469 20.592 84.133 20.796 83.785 20.928C83.389 21.072 82.987 21.144 82.579 21.144ZM88.8841 9.822C88.7881 9.726 88.7041 9.606 88.6321 9.462C88.5721 9.342 88.5421 9.198 88.5421 9.03C88.5421 8.85 88.5721 8.7 88.6321 8.58C88.7161 8.412 88.8001 8.286 88.8841 8.202C88.9801 8.106 89.1001 8.022 89.2441 7.95C89.3641 7.89 89.5081 7.86 89.6761 7.86C89.8441 7.86 89.9881 7.89 90.1081 7.95C90.2521 8.022 90.3721 8.106 90.4681 8.202C90.5521 8.286 90.6361 8.412 90.7201 8.58C90.7921 8.724 90.8281 8.874 90.8281 9.03C90.8281 9.174 90.7921 9.318 90.7201 9.462C90.6481 9.606 90.5641 9.726 90.4681 9.822C90.3721 9.918 90.2521 10.002 90.1081 10.074C89.9881 10.134 89.8441 10.164 89.6761 10.164C89.5081 10.164 89.3641 10.134 89.2441 10.074C89.1001 10.002 88.9801 9.918 88.8841 9.822ZM91.4941 19.884C91.5781 19.896 91.6441 19.938 91.6921 20.01C91.7401 20.07 91.7641 20.142 91.7641 20.226V21H87.5701V20.226C87.5701 20.142 87.5941 20.07 87.6421 20.01C87.6901 19.938 87.7561 19.896 87.8401 19.884L88.8841 19.686V13.188L87.8401 12.99C87.7561 12.978 87.6901 12.942 87.6421 12.882C87.5941 12.81 87.5701 12.732 87.5701 12.648V11.892H90.4681V19.686L91.4941 19.884ZM104.419 12.684C104.419 12.864 104.329 12.972 104.149 13.008C104.113 13.008 104.059 13.02 103.987 13.044C103.927 13.056 103.849 13.068 103.753 13.08L103.267 13.188L100.081 21.018H98.6232L95.4372 13.188C95.3172 13.152 95.1552 13.116 94.9512 13.08L94.5552 13.008C94.3752 12.972 94.2852 12.858 94.2852 12.666V11.892H98.3712V12.666C98.3712 12.858 98.2812 12.972 98.1012 13.008C98.0172 13.032 97.8912 13.056 97.7232 13.08C97.5552 13.104 97.3512 13.14 97.1112 13.188L99.0372 18.084C99.1332 18.336 99.2412 18.768 99.3612 19.38C99.5292 18.708 99.6492 18.276 99.7212 18.084L101.665 13.188L100.639 12.99C100.459 12.954 100.369 12.84 100.369 12.648V11.892H104.419V12.684ZM110.689 11.748C111.217 11.748 111.715 11.838 112.183 12.018C112.663 12.198 113.059 12.456 113.371 12.792C113.731 13.176 113.995 13.602 114.163 14.07C114.355 14.61 114.451 15.186 114.451 15.798C114.451 16.074 114.427 16.242 114.379 16.302C114.319 16.386 114.211 16.428 114.055 16.428H108.007C108.007 17.004 108.079 17.508 108.223 17.94C108.343 18.312 108.547 18.66 108.835 18.984C109.099 19.284 109.399 19.5 109.735 19.632C110.095 19.776 110.479 19.848 110.887 19.848C111.319 19.848 111.667 19.806 111.931 19.722C112.183 19.638 112.435 19.536 112.687 19.416C112.951 19.284 113.131 19.188 113.227 19.128C113.383 19.032 113.503 18.984 113.587 18.984C113.719 18.984 113.821 19.038 113.893 19.146L114.343 19.74C114.175 19.956 113.935 20.16 113.623 20.352C113.263 20.58 112.969 20.73 112.741 20.802C112.381 20.922 112.057 21.006 111.769 21.054C111.409 21.114 111.079 21.144 110.779 21.144C110.155 21.144 109.573 21.036 109.033 20.82C108.517 20.616 108.055 20.298 107.647 19.866C107.263 19.47 106.963 18.96 106.747 18.336C106.531 17.724 106.423 17.028 106.423 16.248C106.423 15.624 106.525 15.036 106.729 14.484C106.933 13.92 107.215 13.44 107.575 13.044C107.947 12.636 108.397 12.318 108.925 12.09C109.453 11.862 110.041 11.748 110.689 11.748ZM110.725 12.918C109.945 12.918 109.339 13.14 108.907 13.584C108.463 14.052 108.187 14.676 108.079 15.456H113.029C113.029 15.084 112.975 14.748 112.867 14.448C112.735 14.076 112.591 13.806 112.435 13.638C112.231 13.422 111.985 13.248 111.697 13.116C111.421 12.996 111.091 12.936 110.707 12.936L110.725 12.918ZM126.026 19.686L127.124 19.902C127.268 19.938 127.34 20.046 127.34 20.226V21H123.002V20.226C123.002 20.034 123.086 19.92 123.254 19.884L124.298 19.686V9.408L123.218 9.192C123.074 9.156 123.002 9.048 123.002 8.868V8.112H127.34V8.868C127.34 9.06 127.25 9.174 127.07 9.21L126.026 9.408V19.686ZM133.094 13.188C133.994 12.216 135.002 11.73 136.118 11.73C137.102 11.73 137.858 12.048 138.386 12.684C138.902 13.308 139.16 14.142 139.16 15.186V19.668C139.736 19.776 140.078 19.848 140.186 19.884C140.378 19.92 140.474 20.034 140.474 20.226V21H137.558V15.204C137.558 13.74 136.922 13.008 135.65 13.008C134.75 13.008 133.922 13.434 133.166 14.286V19.686C133.214 19.686 133.562 19.758 134.21 19.902C134.39 19.938 134.48 20.052 134.48 20.244V21H130.286V20.244C130.286 20.052 130.37 19.938 130.538 19.902L131.582 19.704V13.206C130.982 13.098 130.634 13.026 130.538 12.99C130.37 12.954 130.286 12.84 130.286 12.648V11.892H132.518C132.734 11.892 132.878 12 132.95 12.216L133.094 13.206V13.188ZM147.08 11.712C148.088 11.712 148.916 12.072 149.564 12.792V9.048L148.358 8.832C148.178 8.796 148.088 8.688 148.088 8.508V7.716H151.148V19.668C151.748 19.776 152.096 19.848 152.192 19.884C152.36 19.92 152.444 20.028 152.444 20.208V21H150.212C149.996 21 149.852 20.886 149.78 20.658L149.636 19.56C148.784 20.592 147.764 21.108 146.576 21.108C145.508 21.108 144.668 20.712 144.056 19.92C143.432 19.092 143.12 17.94 143.12 16.464C143.12 15.084 143.474 13.956 144.182 13.08C144.914 12.168 145.88 11.712 147.08 11.712ZM147.116 19.83C148.064 19.83 148.88 19.368 149.564 18.444V14.052C149.024 13.332 148.322 12.972 147.458 12.972C146.582 12.972 145.916 13.272 145.46 13.872C145.004 14.472 144.776 15.336 144.776 16.464C144.776 18.18 145.22 19.236 146.108 19.632C146.384 19.752 146.714 19.812 147.098 19.812L147.116 19.83ZM159.31 11.748C159.838 11.748 160.336 11.838 160.804 12.018C161.284 12.198 161.68 12.456 161.992 12.792C162.352 13.176 162.616 13.602 162.784 14.07C162.976 14.61 163.072 15.186 163.072 15.798C163.072 16.074 163.048 16.242 163 16.302C162.94 16.386 162.832 16.428 162.676 16.428H156.628C156.628 17.004 156.7 17.508 156.844 17.94C156.964 18.312 157.168 18.66 157.456 18.984C157.72 19.284 158.02 19.5 158.356 19.632C158.716 19.776 159.1 19.848 159.508 19.848C159.94 19.848 160.288 19.806 160.552 19.722C160.804 19.638 161.056 19.536 161.308 19.416C161.572 19.284 161.752 19.188 161.848 19.128C162.004 19.032 162.124 18.984 162.208 18.984C162.34 18.984 162.442 19.038 162.514 19.146L162.964 19.74C162.796 19.956 162.556 20.16 162.244 20.352C161.884 20.58 161.59 20.73 161.362 20.802C161.002 20.922 160.678 21.006 160.39 21.054C160.03 21.114 159.7 21.144 159.4 21.144C158.776 21.144 158.194 21.036 157.654 20.82C157.138 20.616 156.676 20.298 156.268 19.866C155.884 19.47 155.584 18.96 155.368 18.336C155.152 17.724 155.044 17.028 155.044 16.248C155.044 15.624 155.146 15.036 155.35 14.484C155.554 13.92 155.836 13.44 156.196 13.044C156.568 12.636 157.018 12.318 157.546 12.09C158.074 11.862 158.662 11.748 159.31 11.748ZM159.346 12.918C158.566 12.918 157.96 13.14 157.528 13.584C157.084 14.052 156.808 14.676 156.7 15.456H161.65C161.65 15.084 161.596 14.748 161.488 14.448C161.356 14.076 161.212 13.806 161.056 13.638C160.852 13.422 160.606 13.248 160.318 13.116C160.042 12.996 159.712 12.936 159.328 12.936L159.346 12.918ZM173.367 19.74C173.511 19.776 173.775 19.824 174.159 19.884C174.375 19.92 174.483 20.04 174.483 20.244V21.018H170.901V20.244C170.901 20.064 170.991 19.956 171.171 19.92C171.195 19.92 171.243 19.914 171.315 19.902C171.387 19.878 171.495 19.854 171.639 19.83L169.875 17.112C169.851 17.232 169.791 17.388 169.695 17.58L168.183 19.812C168.231 19.812 168.303 19.824 168.399 19.848L168.723 19.92C168.903 19.956 168.993 20.064 168.993 20.244V21.018H165.411V20.244C165.411 20.064 165.501 19.956 165.681 19.92C165.705 19.92 165.753 19.908 165.825 19.884C165.909 19.848 166.005 19.824 166.113 19.812C166.401 19.764 166.545 19.74 166.545 19.74L168.867 16.356L166.689 13.188C166.449 13.14 166.245 13.104 166.077 13.08C165.921 13.056 165.807 13.032 165.735 13.008C165.567 12.972 165.483 12.864 165.483 12.684V11.892H169.047V12.684C169.047 12.864 168.951 12.972 168.759 13.008C168.747 13.008 168.717 13.014 168.669 13.026C168.621 13.038 168.531 13.056 168.399 13.08L170.001 15.564C170.049 15.408 170.127 15.24 170.235 15.06L171.567 13.098L171.279 13.044L171.081 13.008C170.901 12.972 170.811 12.858 170.811 12.666V11.892H174.375V12.666C174.375 12.858 174.285 12.972 174.105 13.008C173.685 13.092 173.367 13.152 173.151 13.188L170.991 16.248L173.331 19.722L173.367 19.74ZM26.944 38.892H26.08C25.852 38.892 25.72 38.784 25.684 38.568L25.54 36.948C24.532 36.624 23.626 36.462 22.822 36.462C21.466 36.462 20.35 36.918 19.474 37.83C18.598 38.778 18.16 40.02 18.16 41.556C18.16 42.552 18.34 43.434 18.7 44.202C19.072 44.97 19.594 45.57 20.266 46.002C20.95 46.422 21.742 46.632 22.642 46.632C23.338 46.632 23.944 46.548 24.46 46.38C24.988 46.2 25.48 45.9 25.936 45.48C26.044 45.384 26.152 45.336 26.26 45.336C26.356 45.336 26.44 45.372 26.512 45.444L27.196 46.2C26.08 47.496 24.532 48.144 22.552 48.144C21.304 48.144 20.212 47.862 19.276 47.298C18.352 46.722 17.638 45.936 17.134 44.94C16.642 43.944 16.396 42.816 16.396 41.556C16.396 39.624 16.996 38.04 18.196 36.804C19.384 35.58 21.01 34.968 23.074 34.968C24.034 34.968 25.324 35.268 26.944 35.868V38.892ZM38.1964 46.848C38.2804 46.86 38.3464 46.902 38.3944 46.974C38.4424 47.034 38.4664 47.106 38.4664 47.19V47.964H36.5944C36.4864 47.964 36.3604 47.94 36.2164 47.892C36.1324 47.868 36.0724 47.772 36.0364 47.604L35.8564 46.74L35.1364 47.334C34.9324 47.502 34.6924 47.646 34.4164 47.766C34.1524 47.886 33.8884 47.976 33.6244 48.036C33.3844 48.096 33.0604 48.126 32.6524 48.126C32.3164 48.126 31.9924 48.072 31.6804 47.964C31.3084 47.832 31.0384 47.688 30.8704 47.532C30.6544 47.34 30.4744 47.088 30.3304 46.776C30.1984 46.5 30.1324 46.14 30.1324 45.696C30.1324 45.312 30.2284 44.964 30.4204 44.652C30.6364 44.304 30.9604 44.004 31.3924 43.752C31.8724 43.476 32.4484 43.26 33.1204 43.104C33.8164 42.948 34.6924 42.87 35.7484 42.87V42.168C35.7484 41.46 35.5924 40.92 35.2804 40.548C34.9684 40.176 34.5184 39.99 33.9304 39.99C33.5464 39.99 33.2164 40.044 32.9404 40.152C32.6284 40.272 32.4004 40.38 32.2564 40.476C32.1844 40.524 32.1004 40.578 32.0044 40.638C31.9204 40.686 31.8304 40.74 31.7344 40.8C31.6024 40.896 31.4644 40.944 31.3204 40.944C31.1884 40.944 31.0924 40.92 31.0324 40.872C30.9604 40.812 30.9004 40.74 30.8524 40.656L30.5644 40.152C31.0324 39.696 31.5724 39.336 32.1844 39.072C32.7364 38.832 33.3844 38.712 34.1284 38.712C34.6684 38.712 35.1244 38.796 35.4964 38.964C35.9044 39.144 36.2344 39.372 36.4864 39.648C36.7504 39.924 36.9544 40.284 37.0984 40.728C37.2304 41.124 37.2964 41.592 37.2964 42.132V46.686C37.8724 46.806 38.1724 46.872 38.1964 46.884V46.848ZM35.7124 43.896C34.9324 43.896 34.3084 43.938 33.8404 44.022C33.3844 44.106 32.9644 44.232 32.5804 44.4C32.2444 44.556 32.0044 44.736 31.8604 44.94C31.7164 45.156 31.6444 45.384 31.6444 45.624C31.6444 45.816 31.6864 46.02 31.7704 46.236C31.8424 46.416 31.9504 46.56 32.0944 46.668C32.2384 46.776 32.3944 46.854 32.5624 46.902C32.7664 46.962 32.9644 46.992 33.1564 46.992C33.3964 46.992 33.6484 46.962 33.9124 46.902C34.1524 46.842 34.3744 46.764 34.5784 46.668C34.7584 46.584 34.9564 46.452 35.1724 46.272C35.2924 46.176 35.4724 46.008 35.7124 45.768V43.896ZM45.2289 46.884C45.4209 46.92 45.5169 47.034 45.5169 47.226V48H41.3049V47.226C41.3049 47.034 41.4009 46.92 41.5929 46.884L42.6009 46.686V36.048C42.0489 35.94 41.7129 35.868 41.5929 35.832C41.4009 35.796 41.3049 35.688 41.3049 35.508V34.734H44.2209V46.668C44.7729 46.776 45.1089 46.848 45.2289 46.884ZM55.5256 46.722C54.7696 47.658 53.6416 48.126 52.1416 48.126C50.9896 48.126 50.0416 47.712 49.2976 46.884C48.5176 46.008 48.1276 44.856 48.1276 43.428C48.1276 42.036 48.4936 40.914 49.2256 40.062C49.9936 39.186 51.0616 38.748 52.4296 38.748C53.1136 38.748 54.0136 38.964 55.1296 39.396V41.772H54.4096C54.2416 41.772 54.1396 41.688 54.1036 41.52C54.0916 41.484 54.0676 41.256 54.0316 40.836L53.9776 40.242C53.8456 40.194 53.7136 40.158 53.5816 40.134C53.4616 40.11 53.3776 40.092 53.3296 40.08C53.0056 40.032 52.6696 40.008 52.3216 40.008C52.0096 40.008 51.6796 40.086 51.3316 40.242C51.0076 40.386 50.7256 40.608 50.4856 40.908C50.0296 41.508 49.8016 42.348 49.8016 43.428C49.8016 44.508 50.0416 45.36 50.5216 45.984C50.9896 46.584 51.6316 46.884 52.4476 46.884C53.2036 46.884 53.8696 46.632 54.4456 46.128C54.5416 46.032 54.6616 45.984 54.8056 45.984C54.9376 45.984 55.0336 46.032 55.0936 46.128L55.5256 46.722ZM62.7819 46.884C63.6819 46.884 64.5039 46.464 65.2479 45.624V40.224C65.1399 40.188 64.7979 40.116 64.2219 40.008C64.0419 39.972 63.9519 39.858 63.9519 39.666V38.892H66.8499V46.704C67.4259 46.812 67.7679 46.884 67.8759 46.92C68.0559 46.956 68.1459 47.064 68.1459 47.244V48.018H65.8959C65.6799 48.018 65.5359 47.904 65.4639 47.676L65.3379 46.704C64.4739 47.676 63.4659 48.162 62.3139 48.162C61.3419 48.162 60.5859 47.844 60.0459 47.208C59.5179 46.572 59.2539 45.738 59.2539 44.706V40.206C58.7019 40.098 58.3659 40.026 58.2459 39.99C58.0539 39.954 57.9579 39.84 57.9579 39.648V38.892H60.8739V44.688C60.8739 45.408 61.0299 45.948 61.3419 46.308C61.6659 46.68 62.1459 46.866 62.7819 46.866V46.884ZM74.9219 46.884C75.1139 46.92 75.2099 47.034 75.2099 47.226V48H70.9979V47.226C70.9979 47.034 71.0939 46.92 71.2859 46.884L72.2939 46.686V36.048C71.7419 35.94 71.4059 35.868 71.2859 35.832C71.0939 35.796 70.9979 35.688 70.9979 35.508V34.734H73.9139V46.668C74.4659 46.776 74.8019 46.848 74.9219 46.884ZM85.9386 46.848C86.0226 46.86 86.0886 46.902 86.1366 46.974C86.1846 47.034 86.2086 47.106 86.2086 47.19V47.964H84.3366C84.2286 47.964 84.1026 47.94 83.9586 47.892C83.8746 47.868 83.8146 47.772 83.7786 47.604L83.5986 46.74L82.8786 47.334C82.6746 47.502 82.4346 47.646 82.1586 47.766C81.8946 47.886 81.6306 47.976 81.3666 48.036C81.1266 48.096 80.8026 48.126 80.3946 48.126C80.0586 48.126 79.7346 48.072 79.4226 47.964C79.0506 47.832 78.7806 47.688 78.6126 47.532C78.3966 47.34 78.2166 47.088 78.0726 46.776C77.9406 46.5 77.8746 46.14 77.8746 45.696C77.8746 45.312 77.9706 44.964 78.1626 44.652C78.3786 44.304 78.7026 44.004 79.1346 43.752C79.6146 43.476 80.1906 43.26 80.8626 43.104C81.5586 42.948 82.4346 42.87 83.4906 42.87V42.168C83.4906 41.46 83.3346 40.92 83.0226 40.548C82.7106 40.176 82.2606 39.99 81.6726 39.99C81.2886 39.99 80.9586 40.044 80.6826 40.152C80.3706 40.272 80.1426 40.38 79.9986 40.476C79.9266 40.524 79.8426 40.578 79.7466 40.638C79.6626 40.686 79.5726 40.74 79.4766 40.8C79.3446 40.896 79.2066 40.944 79.0626 40.944C78.9306 40.944 78.8346 40.92 78.7746 40.872C78.7026 40.812 78.6426 40.74 78.5946 40.656L78.3066 40.152C78.7746 39.696 79.3146 39.336 79.9266 39.072C80.4786 38.832 81.1266 38.712 81.8706 38.712C82.4106 38.712 82.8666 38.796 83.2386 38.964C83.6466 39.144 83.9766 39.372 84.2286 39.648C84.4926 39.924 84.6966 40.284 84.8406 40.728C84.9726 41.124 85.0386 41.592 85.0386 42.132V46.686C85.6146 46.806 85.9146 46.872 85.9386 46.884V46.848ZM83.4546 43.896C82.6746 43.896 82.0506 43.938 81.5826 44.022C81.1266 44.106 80.7066 44.232 80.3226 44.4C79.9866 44.556 79.7466 44.736 79.6026 44.94C79.4586 45.156 79.3866 45.384 79.3866 45.624C79.3866 45.816 79.4286 46.02 79.5126 46.236C79.5846 46.416 79.6926 46.56 79.8366 46.668C79.9806 46.776 80.1366 46.854 80.3046 46.902C80.5086 46.962 80.7066 46.992 80.8986 46.992C81.1386 46.992 81.3906 46.962 81.6546 46.902C81.8946 46.842 82.1166 46.764 82.3206 46.668C82.5006 46.584 82.6986 46.452 82.9146 46.272C83.0346 46.176 83.2146 46.008 83.4546 45.768V43.896ZM91.8322 48.144C91.1362 48.144 90.5842 47.94 90.1762 47.532C89.7922 47.148 89.6002 46.572 89.6002 45.804V40.224H88.5022C88.3942 40.224 88.3102 40.2 88.2502 40.152C88.1902 40.104 88.1602 40.014 88.1602 39.882V39.252L89.6542 39.054L90.0142 36.228C90.0142 36.132 90.0502 36.06 90.1222 36.012C90.1822 35.964 90.2662 35.94 90.3742 35.94H91.1842V39.072H93.7942V40.242H91.1842V45.714C91.1842 46.11 91.2742 46.398 91.4542 46.578C91.6342 46.758 91.8802 46.848 92.1922 46.848C92.3242 46.848 92.4742 46.824 92.6422 46.776C92.7502 46.74 92.8582 46.692 92.9662 46.632C93.0022 46.608 93.0382 46.584 93.0742 46.56C93.1102 46.536 93.1462 46.512 93.1822 46.488C93.2782 46.44 93.3382 46.416 93.3622 46.416C93.4462 46.416 93.5182 46.464 93.5782 46.56L94.0462 47.316C93.7222 47.592 93.3862 47.796 93.0382 47.928C92.6422 48.072 92.2402 48.144 91.8322 48.144ZM101.017 38.748C101.677 38.748 102.277 38.856 102.817 39.072C103.345 39.288 103.807 39.6 104.203 40.008C104.575 40.392 104.863 40.884 105.067 41.484C105.271 42.072 105.373 42.72 105.373 43.428C105.373 44.136 105.271 44.784 105.067 45.372C104.863 45.972 104.575 46.464 104.203 46.848C103.807 47.256 103.345 47.568 102.817 47.784C102.277 48 101.677 48.108 101.017 48.108C100.357 48.108 99.7572 48 99.2172 47.784C98.6892 47.568 98.2272 47.256 97.8312 46.848C97.4712 46.476 97.1772 45.984 96.9492 45.372C96.7572 44.856 96.6612 44.208 96.6612 43.428C96.6612 42.648 96.7572 42 96.9492 41.484C97.1772 40.872 97.4712 40.38 97.8312 40.008C98.2272 39.6 98.6892 39.288 99.2172 39.072C99.7572 38.856 100.357 38.748 101.017 38.748ZM101.017 46.884C101.941 46.884 102.613 46.584 103.033 45.984C103.477 45.36 103.699 44.514 103.699 43.446C103.699 42.378 103.477 41.532 103.033 40.908C102.613 40.308 101.941 40.008 101.017 40.008C100.549 40.008 100.153 40.08 99.8292 40.224C99.5172 40.368 99.2412 40.596 99.0012 40.908C98.7732 41.22 98.6052 41.58 98.4972 41.988C98.3772 42.468 98.3172 42.96 98.3172 43.464C98.3172 43.944 98.3772 44.424 98.4972 44.904C98.6052 45.312 98.7732 45.672 99.0012 45.984C99.2052 46.26 99.4812 46.476 99.8292 46.632C100.213 46.8 100.609 46.884 101.017 46.884ZM111.013 40.746C111.685 39.39 112.609 38.712 113.785 38.712C114.253 38.712 114.667 38.82 115.027 39.036L114.829 40.242C114.793 40.398 114.715 40.476 114.595 40.476C114.511 40.476 114.367 40.446 114.163 40.386C113.959 40.326 113.713 40.296 113.425 40.296C112.369 40.296 111.589 40.932 111.085 42.204V46.704L112.111 46.902C112.291 46.938 112.381 47.052 112.381 47.244V48H108.187V47.244C108.187 47.052 108.277 46.938 108.457 46.902L109.483 46.704V40.206C108.907 40.098 108.565 40.026 108.457 39.99C108.277 39.954 108.187 39.84 108.187 39.648V38.892H110.401C110.569 38.892 110.683 38.922 110.743 38.982C110.803 39.042 110.851 39.156 110.887 39.324L110.995 40.746H111.013ZM28.042 73.92C28.222 73.956 28.312 74.064 28.312 74.244V74.964H24.082V74.244C24.082 74.076 24.166 73.974 24.334 73.938C24.406 73.938 24.682 73.884 25.162 73.776L21.436 69.492C21.208 69.264 21.022 69.132 20.878 69.096C20.77 69.072 20.62 69.06 20.428 69.06H19.636V73.668L20.644 73.884C20.836 73.92 20.932 74.028 20.932 74.208V74.982H16.594V74.208C16.594 74.028 16.684 73.92 16.864 73.884L17.89 73.668V63.408C17.314 63.3 16.972 63.228 16.864 63.192C16.684 63.156 16.594 63.042 16.594 62.85V62.076H20.932V62.85C20.932 63.042 20.836 63.156 20.644 63.192L19.636 63.408V67.728H20.284C20.704 67.728 21.016 67.608 21.22 67.368L24.82 63.264L24.028 63.12C23.86 63.084 23.776 62.976 23.776 62.796V62.076H27.844L27.88 62.76C27.88 62.952 27.784 63.066 27.592 63.102C27.424 63.162 27.148 63.234 26.764 63.318L22.93 67.656C22.702 67.92 22.468 68.112 22.228 68.232C22.492 68.304 22.768 68.52 23.056 68.88L27.142 73.74L27.628 73.848L28.06 73.938L28.042 73.92ZM34.0173 67.746C34.6893 66.39 35.6133 65.712 36.7893 65.712C37.2573 65.712 37.6713 65.82 38.0313 66.036L37.8333 67.242C37.7973 67.398 37.7193 67.476 37.5993 67.476C37.5153 67.476 37.3713 67.446 37.1673 67.386C36.9633 67.326 36.7173 67.296 36.4293 67.296C35.3733 67.296 34.5933 67.932 34.0893 69.204V73.704L35.1153 73.902C35.2953 73.938 35.3853 74.052 35.3853 74.244V75H31.1913V74.244C31.1913 74.052 31.2813 73.938 31.4613 73.902L32.4873 73.704V67.206C31.9113 67.098 31.5693 67.026 31.4613 66.99C31.2813 66.954 31.1913 66.84 31.1913 66.648V65.892H33.4053C33.5733 65.892 33.6873 65.922 33.7473 65.982C33.8073 66.042 33.8553 66.156 33.8913 66.324L33.9993 67.746H34.0173ZM48.3108 73.848C48.3948 73.86 48.4608 73.902 48.5088 73.974C48.5568 74.034 48.5808 74.106 48.5808 74.19V74.964H46.7088C46.6008 74.964 46.4748 74.94 46.3308 74.892C46.2468 74.868 46.1868 74.772 46.1508 74.604L45.9708 73.74L45.2508 74.334C45.0468 74.502 44.8068 74.646 44.5308 74.766C44.2668 74.886 44.0028 74.976 43.7388 75.036C43.4988 75.096 43.1748 75.126 42.7668 75.126C42.4308 75.126 42.1068 75.072 41.7948 74.964C41.4228 74.832 41.1528 74.688 40.9848 74.532C40.7688 74.34 40.5888 74.088 40.4448 73.776C40.3128 73.5 40.2468 73.14 40.2468 72.696C40.2468 72.312 40.3428 71.964 40.5348 71.652C40.7508 71.304 41.0748 71.004 41.5068 70.752C41.9868 70.476 42.5628 70.26 43.2348 70.104C43.9308 69.948 44.8068 69.87 45.8628 69.87V69.168C45.8628 68.46 45.7068 67.92 45.3948 67.548C45.0828 67.176 44.6328 66.99 44.0448 66.99C43.6608 66.99 43.3308 67.044 43.0548 67.152C42.7428 67.272 42.5148 67.38 42.3708 67.476C42.2988 67.524 42.2148 67.578 42.1188 67.638C42.0348 67.686 41.9448 67.74 41.8488 67.8C41.7168 67.896 41.5788 67.944 41.4348 67.944C41.3028 67.944 41.2068 67.92 41.1468 67.872C41.0748 67.812 41.0148 67.74 40.9668 67.656L40.6788 67.152C41.1468 66.696 41.6868 66.336 42.2988 66.072C42.8508 65.832 43.4988 65.712 44.2428 65.712C44.7828 65.712 45.2388 65.796 45.6108 65.964C46.0188 66.144 46.3488 66.372 46.6008 66.648C46.8648 66.924 47.0688 67.284 47.2128 67.728C47.3448 68.124 47.4108 68.592 47.4108 69.132V73.686C47.9868 73.806 48.2868 73.872 48.3108 73.884V73.848ZM45.8268 70.896C45.0468 70.896 44.4228 70.938 43.9548 71.022C43.4988 71.106 43.0788 71.232 42.6948 71.4C42.3588 71.556 42.1188 71.736 41.9748 71.94C41.8308 72.156 41.7588 72.384 41.7588 72.624C41.7588 72.816 41.8008 73.02 41.8848 73.236C41.9568 73.416 42.0648 73.56 42.2088 73.668C42.3528 73.776 42.5088 73.854 42.6768 73.902C42.8808 73.962 43.0788 73.992 43.2708 73.992C43.5108 73.992 43.7628 73.962 44.0268 73.902C44.2668 73.842 44.4888 73.764 44.6928 73.668C44.8728 73.584 45.0708 73.452 45.2868 73.272C45.4068 73.176 45.5868 73.008 45.8268 72.768V70.896ZM54.2454 67.17C55.0134 66.222 55.8714 65.748 56.8194 65.748C57.4434 65.748 57.9474 65.922 58.3314 66.27C58.7034 66.606 58.9794 67.068 59.1594 67.656C59.4234 67.008 59.8194 66.528 60.3474 66.216C60.8994 65.904 61.4274 65.748 61.9314 65.748C62.4594 65.748 62.9274 65.826 63.3354 65.982C63.7194 66.126 64.0434 66.348 64.3074 66.648C64.8354 67.248 65.0994 68.1 65.0994 69.204V73.704C65.6994 73.812 66.0474 73.884 66.1434 73.92C66.3234 73.956 66.4134 74.064 66.4134 74.244V75.036H63.5154V69.222C63.5154 68.49 63.3594 67.95 63.0474 67.602C62.7114 67.23 62.2554 67.044 61.6794 67.044C61.1274 67.044 60.6714 67.224 60.3114 67.584C59.9154 67.98 59.7174 68.52 59.7174 69.204V73.704C59.7654 73.716 59.8674 73.74 60.0234 73.776C60.1794 73.812 60.4194 73.86 60.7434 73.92C60.9234 73.956 61.0134 74.064 61.0134 74.244V75.018H58.1154V69.204C58.1154 67.764 57.5394 67.044 56.3874 67.044C55.6434 67.044 54.9654 67.44 54.3534 68.232V73.704L54.8394 73.794L55.3794 73.902C55.5594 73.938 55.6494 74.052 55.6494 74.244V75H51.4554V74.244C51.4554 74.052 51.5394 73.938 51.7074 73.902L52.7514 73.704V67.206C52.1514 67.098 51.8034 67.026 51.7074 66.99C51.5394 66.954 51.4554 66.84 51.4554 66.648V65.892H53.6874C53.9034 65.892 54.0474 66 54.1194 66.216L54.2454 67.152V67.17ZM73.283 65.748C73.811 65.748 74.309 65.838 74.777 66.018C75.257 66.198 75.653 66.456 75.965 66.792C76.325 67.176 76.589 67.602 76.757 68.07C76.949 68.61 77.045 69.186 77.045 69.798C77.045 70.074 77.021 70.242 76.973 70.302C76.913 70.386 76.805 70.428 76.649 70.428H70.601C70.601 71.004 70.673 71.508 70.817 71.94C70.937 72.312 71.141 72.66 71.429 72.984C71.693 73.284 71.993 73.5 72.329 73.632C72.689 73.776 73.073 73.848 73.481 73.848C73.913 73.848 74.261 73.806 74.525 73.722C74.777 73.638 75.029 73.536 75.281 73.416C75.545 73.284 75.725 73.188 75.821 73.128C75.977 73.032 76.097 72.984 76.181 72.984C76.313 72.984 76.415 73.038 76.487 73.146L76.937 73.74C76.769 73.956 76.529 74.16 76.217 74.352C75.857 74.58 75.563 74.73 75.335 74.802C74.975 74.922 74.651 75.006 74.363 75.054C74.003 75.114 73.673 75.144 73.373 75.144C72.749 75.144 72.167 75.036 71.627 74.82C71.111 74.616 70.649 74.298 70.241 73.866C69.857 73.47 69.557 72.96 69.341 72.336C69.125 71.724 69.017 71.028 69.017 70.248C69.017 69.624 69.119 69.036 69.323 68.484C69.527 67.92 69.809 67.44 70.169 67.044C70.541 66.636 70.991 66.318 71.519 66.09C72.047 65.862 72.635 65.748 73.283 65.748ZM73.319 66.918C72.539 66.918 71.933 67.14 71.501 67.584C71.057 68.052 70.781 68.676 70.673 69.456H75.623C75.623 69.084 75.569 68.748 75.461 68.448C75.329 68.076 75.185 67.806 75.029 67.638C74.825 67.422 74.579 67.248 74.291 67.116C74.015 66.996 73.685 66.936 73.301 66.936L73.319 66.918ZM82.7544 67.746C83.4264 66.39 84.3504 65.712 85.5264 65.712C85.9944 65.712 86.4084 65.82 86.7684 66.036L86.5704 67.242C86.5344 67.398 86.4564 67.476 86.3364 67.476C86.2524 67.476 86.1084 67.446 85.9044 67.386C85.7004 67.326 85.4544 67.296 85.1664 67.296C84.1104 67.296 83.3304 67.932 82.8264 69.204V73.704L83.8524 73.902C84.0324 73.938 84.1224 74.052 84.1224 74.244V75H79.9284V74.244C79.9284 74.052 80.0184 73.938 80.1984 73.902L81.2244 73.704V67.206C80.6484 67.098 80.3064 67.026 80.1984 66.99C80.0184 66.954 79.9284 66.84 79.9284 66.648V65.892H82.1424C82.3104 65.892 82.4244 65.922 82.4844 65.982C82.5444 66.042 82.5924 66.156 82.6284 66.324L82.7364 67.746H82.7544ZM93.0439 65.748C93.6679 65.748 94.4599 65.91 95.4199 66.234V68.574H94.7179C94.5499 68.574 94.4479 68.49 94.4119 68.322L94.3039 67.134C93.7399 67.002 93.2719 66.936 92.8999 66.936H92.8819C92.3899 66.936 91.9759 67.068 91.6399 67.332C91.3159 67.584 91.1539 67.86 91.1539 68.16C91.1539 68.472 91.2259 68.7 91.3699 68.844C91.6099 69.12 91.9579 69.33 92.4139 69.474L92.9539 69.636C93.0499 69.66 93.2419 69.72 93.5299 69.816L94.3939 70.14C94.6339 70.224 94.8859 70.38 95.1499 70.608C95.6419 70.992 95.8879 71.52 95.8879 72.192C95.8879 73.068 95.5939 73.764 95.0059 74.28C94.3699 74.844 93.5659 75.126 92.5939 75.126C91.5979 75.126 90.6139 74.964 89.6419 74.64V72.264H90.2899C90.4339 72.264 90.5239 72.336 90.5599 72.48L90.6679 73.632C91.1479 73.872 91.7659 73.992 92.5219 73.992C93.0979 73.992 93.5659 73.842 93.9259 73.542C94.2379 73.266 94.3939 72.96 94.3939 72.624C94.3939 72.276 94.3219 72.024 94.1779 71.868C94.0099 71.676 93.8299 71.532 93.6379 71.436C93.3739 71.304 93.1219 71.208 92.8819 71.148C91.9939 70.86 91.4359 70.668 91.2079 70.572C90.9199 70.44 90.6499 70.272 90.3979 70.068C89.8939 69.648 89.6419 69.084 89.6419 68.376C89.6419 67.656 89.9299 67.044 90.5059 66.54C91.1059 66.012 91.9519 65.748 93.0439 65.748ZM103.361 70.284H98.9327V68.916H103.361V70.284ZM118.046 73.92C118.226 73.956 118.316 74.064 118.316 74.244V74.964H114.086V74.244C114.086 74.076 114.17 73.974 114.338 73.938C114.41 73.938 114.686 73.884 115.166 73.776L111.44 69.492C111.212 69.264 111.026 69.132 110.882 69.096C110.774 69.072 110.624 69.06 110.432 69.06H109.64V73.668L110.648 73.884C110.84 73.92 110.936 74.028 110.936 74.208V74.982H106.598V74.208C106.598 74.028 106.688 73.92 106.868 73.884L107.894 73.668V63.408C107.318 63.3 106.976 63.228 106.868 63.192C106.688 63.156 106.598 63.042 106.598 62.85V62.076H110.936V62.85C110.936 63.042 110.84 63.156 110.648 63.192L109.64 63.408V67.728H110.288C110.708 67.728 111.02 67.608 111.224 67.368L114.824 63.264L114.032 63.12C113.864 63.084 113.78 62.976 113.78 62.796V62.076H117.848L117.884 62.76C117.884 62.952 117.788 63.066 117.596 63.102C117.428 63.162 117.152 63.234 116.768 63.318L112.934 67.656C112.706 67.92 112.472 68.112 112.232 68.232C112.496 68.304 112.772 68.52 113.06 68.88L117.146 73.74L117.632 73.848L118.064 73.938L118.046 73.92ZM124.021 67.746C124.693 66.39 125.617 65.712 126.793 65.712C127.261 65.712 127.675 65.82 128.035 66.036L127.837 67.242C127.801 67.398 127.723 67.476 127.603 67.476C127.519 67.476 127.375 67.446 127.171 67.386C126.967 67.326 126.721 67.296 126.433 67.296C125.377 67.296 124.597 67.932 124.093 69.204V73.704L125.119 73.902C125.299 73.938 125.389 74.052 125.389 74.244V75H121.195V74.244C121.195 74.052 121.285 73.938 121.465 73.902L122.491 73.704V67.206C121.915 67.098 121.573 67.026 121.465 66.99C121.285 66.954 121.195 66.84 121.195 66.648V65.892H123.409C123.577 65.892 123.691 65.922 123.751 65.982C123.811 66.042 123.859 66.156 123.895 66.324L124.003 67.746H124.021ZM134.588 65.748C135.248 65.748 135.848 65.856 136.388 66.072C136.916 66.288 137.378 66.6 137.774 67.008C138.146 67.392 138.434 67.884 138.638 68.484C138.842 69.072 138.944 69.72 138.944 70.428C138.944 71.136 138.842 71.784 138.638 72.372C138.434 72.972 138.146 73.464 137.774 73.848C137.378 74.256 136.916 74.568 136.388 74.784C135.848 75 135.248 75.108 134.588 75.108C133.928 75.108 133.328 75 132.788 74.784C132.26 74.568 131.798 74.256 131.402 73.848C131.042 73.476 130.748 72.984 130.52 72.372C130.328 71.856 130.232 71.208 130.232 70.428C130.232 69.648 130.328 69 130.52 68.484C130.748 67.872 131.042 67.38 131.402 67.008C131.798 66.6 132.26 66.288 132.788 66.072C133.328 65.856 133.928 65.748 134.588 65.748ZM134.588 73.884C135.512 73.884 136.184 73.584 136.604 72.984C137.048 72.36 137.27 71.514 137.27 70.446C137.27 69.378 137.048 68.532 136.604 67.908C136.184 67.308 135.512 67.008 134.588 67.008C134.12 67.008 133.724 67.08 133.4 67.224C133.088 67.368 132.812 67.596 132.572 67.908C132.344 68.22 132.176 68.58 132.068 68.988C131.948 69.468 131.888 69.96 131.888 70.464C131.888 70.944 131.948 71.424 132.068 71.904C132.176 72.312 132.344 72.672 132.572 72.984C132.776 73.26 133.052 73.476 133.4 73.632C133.784 73.8 134.18 73.884 134.588 73.884ZM144.566 67.188C145.466 66.216 146.474 65.73 147.59 65.73C148.574 65.73 149.33 66.048 149.858 66.684C150.374 67.308 150.632 68.142 150.632 69.186V73.668C151.208 73.776 151.55 73.848 151.658 73.884C151.85 73.92 151.946 74.034 151.946 74.226V75H149.03V69.204C149.03 67.74 148.394 67.008 147.122 67.008C146.222 67.008 145.394 67.434 144.638 68.286V73.686C144.686 73.686 145.034 73.758 145.682 73.902C145.862 73.938 145.952 74.052 145.952 74.244V75H141.758V74.244C141.758 74.052 141.842 73.938 142.01 73.902L143.054 73.704V67.206C142.454 67.098 142.106 67.026 142.01 66.99C141.842 66.954 141.758 66.84 141.758 66.648V65.892H143.99C144.206 65.892 144.35 66 144.422 66.216L144.566 67.206V67.188ZM156.068 63.822C155.972 63.726 155.888 63.606 155.816 63.462C155.756 63.342 155.726 63.198 155.726 63.03C155.726 62.85 155.756 62.7 155.816 62.58C155.9 62.412 155.984 62.286 156.068 62.202C156.164 62.106 156.284 62.022 156.428 61.95C156.548 61.89 156.692 61.86 156.86 61.86C157.028 61.86 157.172 61.89 157.292 61.95C157.436 62.022 157.556 62.106 157.652 62.202C157.736 62.286 157.82 62.412 157.904 62.58C157.976 62.724 158.012 62.874 158.012 63.03C158.012 63.174 157.976 63.318 157.904 63.462C157.832 63.606 157.748 63.726 157.652 63.822C157.556 63.918 157.436 64.002 157.292 64.074C157.172 64.134 157.028 64.164 156.86 64.164C156.692 64.164 156.548 64.134 156.428 64.074C156.284 64.002 156.164 63.918 156.068 63.822ZM158.678 73.884C158.762 73.896 158.828 73.938 158.876 74.01C158.924 74.07 158.948 74.142 158.948 74.226V75H154.754V74.226C154.754 74.142 154.778 74.07 154.826 74.01C154.874 73.938 154.94 73.896 155.024 73.884L156.068 73.686V67.188L155.024 66.99C154.94 66.978 154.874 66.942 154.826 66.882C154.778 66.81 154.754 66.732 154.754 66.648V65.892H157.652V73.686L158.678 73.884ZM165.321 65.766C165.729 65.766 166.095 65.808 166.419 65.892C166.767 65.988 167.079 66.12 167.355 66.288H169.839V66.882C169.839 67.074 169.713 67.2 169.461 67.26L168.435 67.404C168.627 67.752 168.723 68.184 168.723 68.7C168.723 69.168 168.639 69.57 168.471 69.906C168.279 70.29 168.045 70.596 167.769 70.824C167.433 71.1 167.073 71.304 166.689 71.436C166.305 71.568 165.849 71.634 165.321 71.634C164.889 71.634 164.487 71.58 164.115 71.472C163.947 71.568 163.803 71.7 163.683 71.868C163.587 72 163.539 72.132 163.539 72.264C163.539 72.492 163.623 72.654 163.791 72.75C163.995 72.87 164.229 72.948 164.493 72.984C164.877 73.032 165.207 73.056 165.483 73.056C165.723 73.056 166.095 73.08 166.599 73.128C166.695 73.14 166.857 73.158 167.085 73.182C167.325 73.194 167.535 73.218 167.715 73.254C168.099 73.326 168.429 73.434 168.705 73.578C168.969 73.71 169.203 73.92 169.407 74.208C169.575 74.448 169.659 74.784 169.659 75.216C169.659 75.636 169.563 76.02 169.371 76.368C169.191 76.704 168.903 77.028 168.507 77.34C168.159 77.616 167.715 77.844 167.175 78.024C166.671 78.192 166.071 78.276 165.375 78.276C164.655 78.276 164.067 78.21 163.611 78.078C163.107 77.934 162.693 77.754 162.369 77.538C162.045 77.322 161.799 77.064 161.631 76.764C161.463 76.464 161.379 76.164 161.379 75.864C161.379 75.42 161.523 75.036 161.811 74.712C162.099 74.388 162.495 74.136 162.999 73.956C162.747 73.848 162.543 73.686 162.387 73.47C162.231 73.254 162.153 72.984 162.153 72.66C162.153 72.588 162.177 72.456 162.225 72.264C162.261 72.12 162.333 71.976 162.441 71.832C162.537 71.7 162.663 71.568 162.819 71.436C162.867 71.388 163.035 71.28 163.323 71.112C162.867 70.86 162.513 70.524 162.261 70.104C162.009 69.684 161.883 69.198 161.883 68.646C161.883 68.178 161.967 67.776 162.135 67.44C162.315 67.068 162.555 66.762 162.855 66.522C163.155 66.27 163.527 66.072 163.971 65.928C164.367 65.796 164.829 65.73 165.357 65.73L165.321 65.766ZM165.339 70.608C165.651 70.608 165.939 70.56 166.203 70.464C166.431 70.38 166.641 70.254 166.833 70.086C167.001 69.93 167.127 69.732 167.211 69.492C167.295 69.24 167.337 68.994 167.337 68.754C167.337 68.19 167.163 67.746 166.815 67.422C166.479 67.098 165.987 66.936 165.339 66.936C164.703 66.936 164.211 67.098 163.863 67.422C163.527 67.746 163.359 68.19 163.359 68.754C163.359 69.018 163.407 69.264 163.503 69.492C163.611 69.744 163.737 69.936 163.881 70.068C164.073 70.236 164.283 70.362 164.511 70.446C164.751 70.53 165.027 70.572 165.339 70.572V70.608ZM168.183 75.54C168.183 75.312 168.123 75.132 168.003 75C167.883 74.856 167.709 74.748 167.481 74.676C167.253 74.604 167.007 74.55 166.743 74.514C166.359 74.466 166.059 74.436 165.843 74.424L164.889 74.388C164.829 74.388 164.523 74.352 163.971 74.28C163.623 74.448 163.341 74.646 163.125 74.874C162.909 75.114 162.801 75.396 162.801 75.72C162.801 75.924 162.855 76.116 162.963 76.296C163.071 76.464 163.233 76.614 163.449 76.746C163.677 76.878 163.947 76.98 164.259 77.052C164.583 77.124 164.967 77.16 165.411 77.16C165.783 77.16 166.167 77.118 166.563 77.034C166.875 76.974 167.163 76.86 167.427 76.692C167.667 76.548 167.847 76.38 167.967 76.188C168.099 75.984 168.165 75.768 168.165 75.54H168.183Z" fill="white"/>
</g>
<defs>
<filter id="filter0_dd_3001_2" x="12.396" y="7.716" width="166.087" height="78.56" filterUnits="userSpaceOnUse" color-interpolation-filters="sRGB">
<feFlood flood-opacity="0" result="BackgroundImageFix"/>
<feColorMatrix in="SourceAlpha" type="matrix" values="0 0 0 0 0 0 0 0 0 0 0 0 0 0 0 0 0 0 127 0" result="hardAlpha"/>
<feOffset dy="4"/>
<feGaussianBlur stdDeviation="2"/>
<feComposite in2="hardAlpha" operator="out"/>
<feColorMatrix type="matrix" values="0 0 0 0 0 0 0 0 0 0 0 0 0 0 0 0 0 0 0.25 0"/>
<feBlend mode="normal" in2="BackgroundImageFix" result="effect1_dropShadow_3001_2"/>
<feColorMatrix in="SourceAlpha" type="matrix" values="0 0 0 0 0 0 0 0 0 0 0 0 0 0 0 0 0 0 127 0" result="hardAlpha"/>
<feOffset dy="4"/>
<feGaussianBlur stdDeviation="2"/>
<feComposite in2="hardAlpha" operator="out"/>
<feColorMatrix type="matrix" values="0 0 0 0 0 0 0 0 0 0 0 0 0 0 0 0 0 0 0.25 0"/>
<feBlend mode="normal" in2="effect1_dropShadow_3001_2" result="effect2_dropShadow_3001_2"/>
<feBlend mode="normal" in="SourceGraphic" in2="effect2_dropShadow_3001_2" result="shape"/>
</filter>
</defs>
</svg>
