<svg width="196" height="85" viewBox="0 0 196 85" fill="none" xmlns="http://www.w3.org/2000/svg">
<rect width="196" height="85" rx="10" fill="#403E90"/>
<path d="M21.016 10.956H20.134C19.942 10.956 19.828 10.896 19.792 10.776C19.732 10.572 19.672 10.176 19.612 9.588H16.588V19.704L16.804 19.74C17.356 19.848 17.656 19.908 17.704 19.92C17.824 19.956 17.884 20.064 17.884 20.244V21H13.528V20.244C13.528 20.148 13.552 20.07 13.6 20.01C13.66 19.938 13.738 19.896 13.834 19.884L14.824 19.686V9.57H11.782C11.71 10.242 11.656 10.644 11.62 10.776C11.584 10.896 11.464 10.956 11.26 10.956H10.396V8.112H21.016V10.956ZM25.1169 13.746C25.7889 12.39 26.7129 11.712 27.8889 11.712C28.3569 11.712 28.7709 11.82 29.1309 12.036L28.9329 13.242C28.8969 13.398 28.8189 13.476 28.6989 13.476C28.6149 13.476 28.4709 13.446 28.2669 13.386C28.0629 13.326 27.8169 13.296 27.5289 13.296C26.4729 13.296 25.6929 13.932 25.1889 15.204V19.704L26.2149 19.902C26.3949 19.938 26.4849 20.052 26.4849 20.244V21H22.2909V20.244C22.2909 20.052 22.3809 19.938 22.5609 19.902L23.5869 19.704V13.206C23.0109 13.098 22.6689 13.026 22.5609 12.99C22.3809 12.954 22.2909 12.84 22.2909 12.648V11.892H24.5049C24.6729 11.892 24.7869 11.922 24.8469 11.982C24.9069 12.042 24.9549 12.156 24.9909 12.324L25.0989 13.746H25.1169ZM39.4105 19.848C39.4945 19.86 39.5605 19.902 39.6085 19.974C39.6565 20.034 39.6805 20.106 39.6805 20.19V20.964H37.8085C37.7005 20.964 37.5745 20.94 37.4305 20.892C37.3465 20.868 37.2865 20.772 37.2505 20.604L37.0705 19.74L36.3505 20.334C36.1465 20.502 35.9065 20.646 35.6305 20.766C35.3665 20.886 35.1025 20.976 34.8385 21.036C34.5985 21.096 34.2745 21.126 33.8665 21.126C33.5305 21.126 33.2065 21.072 32.8945 20.964C32.5225 20.832 32.2525 20.688 32.0845 20.532C31.8685 20.34 31.6885 20.088 31.5445 19.776C31.4125 19.5 31.3465 19.14 31.3465 18.696C31.3465 18.312 31.4425 17.964 31.6345 17.652C31.8505 17.304 32.1745 17.004 32.6065 16.752C33.0865 16.476 33.6625 16.26 34.3345 16.104C35.0305 15.948 35.9065 15.87 36.9625 15.87V15.168C36.9625 14.46 36.8065 13.92 36.4945 13.548C36.1825 13.176 35.7325 12.99 35.1445 12.99C34.7605 12.99 34.4305 13.044 34.1545 13.152C33.8425 13.272 33.6145 13.38 33.4705 13.476C33.3985 13.524 33.3145 13.578 33.2185 13.638C33.1345 13.686 33.0445 13.74 32.9485 13.8C32.8165 13.896 32.6785 13.944 32.5345 13.944C32.4025 13.944 32.3065 13.92 32.2465 13.872C32.1745 13.812 32.1145 13.74 32.0665 13.656L31.7785 13.152C32.2465 12.696 32.7865 12.336 33.3985 12.072C33.9505 11.832 34.5985 11.712 35.3425 11.712C35.8825 11.712 36.3385 11.796 36.7105 11.964C37.1185 12.144 37.4485 12.372 37.7005 12.648C37.9645 12.924 38.1685 13.284 38.3125 13.728C38.4445 14.124 38.5105 14.592 38.5105 15.132V19.686C39.0865 19.806 39.3865 19.872 39.4105 19.884V19.848ZM36.9265 16.896C36.1465 16.896 35.5225 16.938 35.0545 17.022C34.5985 17.106 34.1785 17.232 33.7945 17.4C33.4585 17.556 33.2185 17.736 33.0745 17.94C32.9305 18.156 32.8585 18.384 32.8585 18.624C32.8585 18.816 32.9005 19.02 32.9845 19.236C33.0565 19.416 33.1645 19.56 33.3085 19.668C33.4525 19.776 33.6085 19.854 33.7765 19.902C33.9805 19.962 34.1785 19.992 34.3705 19.992C34.6105 19.992 34.8625 19.962 35.1265 19.902C35.3665 19.842 35.5885 19.764 35.7925 19.668C35.9725 19.584 36.1705 19.452 36.3865 19.272C36.5065 19.176 36.6865 19.008 36.9265 18.768V16.896ZM45.363 13.188C46.263 12.216 47.271 11.73 48.387 11.73C49.371 11.73 50.127 12.048 50.655 12.684C51.171 13.308 51.429 14.142 51.429 15.186V19.668C52.005 19.776 52.347 19.848 52.455 19.884C52.647 19.92 52.743 20.034 52.743 20.226V21H49.827V15.204C49.827 13.74 49.191 13.008 47.919 13.008C47.019 13.008 46.191 13.434 45.435 14.286V19.686C45.483 19.686 45.831 19.758 46.479 19.902C46.659 19.938 46.749 20.052 46.749 20.244V21H42.555V20.244C42.555 20.052 42.639 19.938 42.807 19.902L43.851 19.704V13.206C43.251 13.098 42.903 13.026 42.807 12.99C42.639 12.954 42.555 12.84 42.555 12.648V11.892H44.787C45.003 11.892 45.147 12 45.219 12.216L45.363 13.206V13.188ZM59.151 11.748C59.775 11.748 60.567 11.91 61.527 12.234V14.574H60.825C60.657 14.574 60.555 14.49 60.519 14.322L60.411 13.134C59.847 13.002 59.379 12.936 59.007 12.936H58.989C58.497 12.936 58.083 13.068 57.747 13.332C57.423 13.584 57.261 13.86 57.261 14.16C57.261 14.472 57.333 14.7 57.477 14.844C57.717 15.12 58.065 15.33 58.521 15.474L59.061 15.636C59.157 15.66 59.349 15.72 59.637 15.816L60.501 16.14C60.741 16.224 60.993 16.38 61.257 16.608C61.749 16.992 61.995 17.52 61.995 18.192C61.995 19.068 61.701 19.764 61.113 20.28C60.477 20.844 59.673 21.126 58.701 21.126C57.705 21.126 56.721 20.964 55.749 20.64V18.264H56.397C56.541 18.264 56.631 18.336 56.667 18.48L56.775 19.632C57.255 19.872 57.873 19.992 58.629 19.992C59.205 19.992 59.673 19.842 60.033 19.542C60.345 19.266 60.501 18.96 60.501 18.624C60.501 18.276 60.429 18.024 60.285 17.868C60.117 17.676 59.937 17.532 59.745 17.436C59.481 17.304 59.229 17.208 58.989 17.148C58.101 16.86 57.543 16.668 57.315 16.572C57.027 16.44 56.757 16.272 56.505 16.068C56.001 15.648 55.749 15.084 55.749 14.376C55.749 13.656 56.037 13.044 56.613 12.54C57.213 12.012 58.059 11.748 59.151 11.748ZM69.5398 9.156C68.3158 9.156 67.7038 9.846 67.7038 11.226V12.072H70.3318V13.224H67.7398V19.686C68.3158 19.77 68.7178 19.836 68.9458 19.884C69.1258 19.92 69.2158 20.034 69.2158 20.226V21H64.7518V20.226C64.7518 20.034 64.8418 19.92 65.0218 19.884L66.1378 19.686V13.26L65.1298 13.134C64.8418 13.062 64.6978 12.924 64.6978 12.72V12.072H66.1378V11.19C66.1378 10.134 66.4198 9.324 66.9838 8.76C67.5358 8.196 68.2978 7.914 69.2698 7.914C69.6298 7.914 70.0078 7.974 70.4038 8.094L70.3678 8.904C70.3678 9.012 70.3138 9.084 70.2058 9.12C70.1338 9.144 69.9958 9.156 69.7918 9.156H69.5398ZM77.299 11.748C77.827 11.748 78.325 11.838 78.793 12.018C79.273 12.198 79.669 12.456 79.981 12.792C80.341 13.176 80.605 13.602 80.773 14.07C80.965 14.61 81.061 15.186 81.061 15.798C81.061 16.074 81.037 16.242 80.989 16.302C80.929 16.386 80.821 16.428 80.665 16.428H74.617C74.617 17.004 74.689 17.508 74.833 17.94C74.953 18.312 75.157 18.66 75.445 18.984C75.709 19.284 76.009 19.5 76.345 19.632C76.705 19.776 77.089 19.848 77.497 19.848C77.929 19.848 78.277 19.806 78.541 19.722C78.793 19.638 79.045 19.536 79.297 19.416C79.561 19.284 79.741 19.188 79.837 19.128C79.993 19.032 80.113 18.984 80.197 18.984C80.329 18.984 80.431 19.038 80.503 19.146L80.953 19.74C80.785 19.956 80.545 20.16 80.233 20.352C79.873 20.58 79.579 20.73 79.351 20.802C78.991 20.922 78.667 21.006 78.379 21.054C78.019 21.114 77.689 21.144 77.389 21.144C76.765 21.144 76.183 21.036 75.643 20.82C75.127 20.616 74.665 20.298 74.257 19.866C73.873 19.47 73.573 18.96 73.357 18.336C73.141 17.724 73.033 17.028 73.033 16.248C73.033 15.624 73.135 15.036 73.339 14.484C73.543 13.92 73.825 13.44 74.185 13.044C74.557 12.636 75.007 12.318 75.535 12.09C76.063 11.862 76.651 11.748 77.299 11.748ZM77.335 12.918C76.555 12.918 75.949 13.14 75.517 13.584C75.073 14.052 74.797 14.676 74.689 15.456H79.639C79.639 15.084 79.585 14.748 79.477 14.448C79.345 14.076 79.201 13.806 79.045 13.638C78.841 13.422 78.595 13.248 78.307 13.116C78.031 12.996 77.701 12.936 77.317 12.936L77.335 12.918ZM86.7704 13.746C87.4424 12.39 88.3664 11.712 89.5424 11.712C90.0104 11.712 90.4244 11.82 90.7844 12.036L90.5864 13.242C90.5504 13.398 90.4724 13.476 90.3524 13.476C90.2684 13.476 90.1244 13.446 89.9204 13.386C89.7164 13.326 89.4704 13.296 89.1824 13.296C88.1264 13.296 87.3464 13.932 86.8424 15.204V19.704L87.8684 19.902C88.0484 19.938 88.1384 20.052 88.1384 20.244V21H83.9444V20.244C83.9444 20.052 84.0344 19.938 84.2144 19.902L85.2404 19.704V13.206C84.6644 13.098 84.3224 13.026 84.2144 12.99C84.0344 12.954 83.9444 12.84 83.9444 12.648V11.892H86.1584C86.3264 11.892 86.4404 11.922 86.5004 11.982C86.5604 12.042 86.6084 12.156 86.6444 12.324L86.7524 13.746H86.7704ZM113.887 9.408V19.668C114.463 19.776 114.805 19.848 114.913 19.884C115.105 19.92 115.201 20.028 115.201 20.208V21H110.881V20.208C110.881 20.028 110.971 19.92 111.151 19.884L112.357 19.668V11.514C112.357 11.142 112.369 10.86 112.393 10.668L107.965 18.732C107.821 19.008 107.617 19.146 107.353 19.146H107.101C106.813 19.146 106.597 19.008 106.453 18.732L101.971 10.686C102.007 10.986 102.025 11.256 102.025 11.496V19.668L103.249 19.884C103.405 19.92 103.483 20.028 103.483 20.208V21H99.1811V20.208C99.1811 20.028 99.2771 19.92 99.4691 19.884L100.477 19.668V9.408C99.9251 9.3 99.5891 9.228 99.4691 9.192C99.2771 9.156 99.1811 9.048 99.1811 8.868V8.076H101.773C101.941 8.076 102.061 8.094 102.133 8.13C102.241 8.178 102.319 8.256 102.367 8.364L106.813 16.32C106.921 16.512 107.059 16.824 107.227 17.256C107.323 16.98 107.461 16.662 107.641 16.302L111.997 8.364C112.045 8.268 112.129 8.19 112.249 8.13C112.321 8.094 112.441 8.076 112.609 8.076H115.201V8.868C115.201 9.048 115.105 9.156 114.913 9.192L113.887 9.408ZM126.039 19.848C126.123 19.86 126.189 19.902 126.237 19.974C126.285 20.034 126.309 20.106 126.309 20.19V20.964H124.437C124.329 20.964 124.203 20.94 124.059 20.892C123.975 20.868 123.915 20.772 123.879 20.604L123.699 19.74L122.979 20.334C122.775 20.502 122.535 20.646 122.259 20.766C121.995 20.886 121.731 20.976 121.467 21.036C121.227 21.096 120.903 21.126 120.495 21.126C120.159 21.126 119.835 21.072 119.523 20.964C119.151 20.832 118.881 20.688 118.713 20.532C118.497 20.34 118.317 20.088 118.173 19.776C118.041 19.5 117.975 19.14 117.975 18.696C117.975 18.312 118.071 17.964 118.263 17.652C118.479 17.304 118.803 17.004 119.235 16.752C119.715 16.476 120.291 16.26 120.963 16.104C121.659 15.948 122.535 15.87 123.591 15.87V15.168C123.591 14.46 123.435 13.92 123.123 13.548C122.811 13.176 122.361 12.99 121.773 12.99C121.389 12.99 121.059 13.044 120.783 13.152C120.471 13.272 120.243 13.38 120.099 13.476C120.027 13.524 119.943 13.578 119.847 13.638C119.763 13.686 119.673 13.74 119.577 13.8C119.445 13.896 119.307 13.944 119.163 13.944C119.031 13.944 118.935 13.92 118.875 13.872C118.803 13.812 118.743 13.74 118.695 13.656L118.407 13.152C118.875 12.696 119.415 12.336 120.027 12.072C120.579 11.832 121.227 11.712 121.971 11.712C122.511 11.712 122.967 11.796 123.339 11.964C123.747 12.144 124.077 12.372 124.329 12.648C124.593 12.924 124.797 13.284 124.941 13.728C125.073 14.124 125.139 14.592 125.139 15.132V19.686C125.715 19.806 126.015 19.872 126.039 19.884V19.848ZM123.555 16.896C122.775 16.896 122.151 16.938 121.683 17.022C121.227 17.106 120.807 17.232 120.423 17.4C120.087 17.556 119.847 17.736 119.703 17.94C119.559 18.156 119.487 18.384 119.487 18.624C119.487 18.816 119.529 19.02 119.613 19.236C119.685 19.416 119.793 19.56 119.937 19.668C120.081 19.776 120.237 19.854 120.405 19.902C120.609 19.962 120.807 19.992 120.999 19.992C121.239 19.992 121.491 19.962 121.755 19.902C121.995 19.842 122.217 19.764 122.421 19.668C122.601 19.584 122.799 19.452 123.015 19.272C123.135 19.176 123.315 19.008 123.555 18.768V16.896ZM131.933 21.144C131.237 21.144 130.685 20.94 130.277 20.532C129.893 20.148 129.701 19.572 129.701 18.804V13.224H128.603C128.495 13.224 128.411 13.2 128.351 13.152C128.291 13.104 128.261 13.014 128.261 12.882V12.252L129.755 12.054L130.115 9.228C130.115 9.132 130.151 9.06 130.223 9.012C130.283 8.964 130.367 8.94 130.475 8.94H131.285V12.072H133.895V13.242H131.285V18.714C131.285 19.11 131.375 19.398 131.555 19.578C131.735 19.758 131.981 19.848 132.293 19.848C132.425 19.848 132.575 19.824 132.743 19.776C132.851 19.74 132.959 19.692 133.067 19.632C133.103 19.608 133.139 19.584 133.175 19.56C133.211 19.536 133.247 19.512 133.283 19.488C133.379 19.44 133.439 19.416 133.463 19.416C133.547 19.416 133.619 19.464 133.679 19.56L134.147 20.316C133.823 20.592 133.487 20.796 133.139 20.928C132.743 21.072 132.341 21.144 131.933 21.144ZM139.804 13.746C140.476 12.39 141.4 11.712 142.576 11.712C143.044 11.712 143.458 11.82 143.818 12.036L143.62 13.242C143.584 13.398 143.506 13.476 143.386 13.476C143.302 13.476 143.158 13.446 142.954 13.386C142.75 13.326 142.504 13.296 142.216 13.296C141.16 13.296 140.38 13.932 139.876 15.204V19.704L140.902 19.902C141.082 19.938 141.172 20.052 141.172 20.244V21H136.978V20.244C136.978 20.052 137.068 19.938 137.248 19.902L138.274 19.704V13.206C137.698 13.098 137.356 13.026 137.248 12.99C137.068 12.954 136.978 12.84 136.978 12.648V11.892H139.192C139.36 11.892 139.474 11.922 139.534 11.982C139.594 12.042 139.642 12.156 139.678 12.324L139.786 13.746H139.804ZM147.807 9.822C147.711 9.726 147.627 9.606 147.555 9.462C147.495 9.342 147.465 9.198 147.465 9.03C147.465 8.85 147.495 8.7 147.555 8.58C147.639 8.412 147.723 8.286 147.807 8.202C147.903 8.106 148.023 8.022 148.167 7.95C148.287 7.89 148.431 7.86 148.599 7.86C148.767 7.86 148.911 7.89 149.031 7.95C149.175 8.022 149.295 8.106 149.391 8.202C149.475 8.286 149.559 8.412 149.643 8.58C149.715 8.724 149.751 8.874 149.751 9.03C149.751 9.174 149.715 9.318 149.643 9.462C149.571 9.606 149.487 9.726 149.391 9.822C149.295 9.918 149.175 10.002 149.031 10.074C148.911 10.134 148.767 10.164 148.599 10.164C148.431 10.164 148.287 10.134 148.167 10.074C148.023 10.002 147.903 9.918 147.807 9.822ZM150.417 19.884C150.501 19.896 150.567 19.938 150.615 20.01C150.663 20.07 150.687 20.142 150.687 20.226V21H146.493V20.226C146.493 20.142 146.517 20.07 146.565 20.01C146.613 19.938 146.679 19.896 146.763 19.884L147.807 19.686V13.188L146.763 12.99C146.679 12.978 146.613 12.942 146.565 12.882C146.517 12.81 146.493 12.732 146.493 12.648V11.892H149.391V19.686L150.417 19.884ZM161.506 19.74C161.65 19.776 161.914 19.824 162.298 19.884C162.514 19.92 162.622 20.04 162.622 20.244V21.018H159.04V20.244C159.04 20.064 159.13 19.956 159.31 19.92C159.334 19.92 159.382 19.914 159.454 19.902C159.526 19.878 159.634 19.854 159.778 19.83L158.014 17.112C157.99 17.232 157.93 17.388 157.834 17.58L156.322 19.812C156.37 19.812 156.442 19.824 156.538 19.848L156.862 19.92C157.042 19.956 157.132 20.064 157.132 20.244V21.018H153.55V20.244C153.55 20.064 153.64 19.956 153.82 19.92C153.844 19.92 153.892 19.908 153.964 19.884C154.048 19.848 154.144 19.824 154.252 19.812C154.54 19.764 154.684 19.74 154.684 19.74L157.006 16.356L154.828 13.188C154.588 13.14 154.384 13.104 154.216 13.08C154.06 13.056 153.946 13.032 153.874 13.008C153.706 12.972 153.622 12.864 153.622 12.684V11.892H157.186V12.684C157.186 12.864 157.09 12.972 156.898 13.008C156.886 13.008 156.856 13.014 156.808 13.026C156.76 13.038 156.67 13.056 156.538 13.08L158.14 15.564C158.188 15.408 158.266 15.24 158.374 15.06L159.706 13.098L159.418 13.044L159.22 13.008C159.04 12.972 158.95 12.858 158.95 12.666V11.892H162.514V12.666C162.514 12.858 162.424 12.972 162.244 13.008C161.824 13.092 161.506 13.152 161.29 13.188L159.13 16.248L161.47 19.722L161.506 19.74ZM25.318 36.408V46.668C25.894 46.776 26.236 46.848 26.344 46.884C26.536 46.92 26.632 47.028 26.632 47.208V48H22.312V47.208C22.312 47.028 22.402 46.92 22.582 46.884L23.788 46.668V38.514C23.788 38.142 23.8 37.86 23.824 37.668L19.396 45.732C19.252 46.008 19.048 46.146 18.784 46.146H18.532C18.244 46.146 18.028 46.008 17.884 45.732L13.402 37.686C13.438 37.986 13.456 38.256 13.456 38.496V46.668L14.68 46.884C14.836 46.92 14.914 47.028 14.914 47.208V48H10.612V47.208C10.612 47.028 10.708 46.92 10.9 46.884L11.908 46.668V36.408C11.356 36.3 11.02 36.228 10.9 36.192C10.708 36.156 10.612 36.048 10.612 35.868V35.076H13.204C13.372 35.076 13.492 35.094 13.564 35.13C13.672 35.178 13.75 35.256 13.798 35.364L18.244 43.32C18.352 43.512 18.49 43.824 18.658 44.256C18.754 43.98 18.892 43.662 19.072 43.302L23.428 35.364C23.476 35.268 23.56 35.19 23.68 35.13C23.752 35.094 23.872 35.076 24.04 35.076H26.632V35.868C26.632 36.048 26.536 36.156 26.344 36.192L25.318 36.408ZM33.5998 38.748C34.1278 38.748 34.6258 38.838 35.0938 39.018C35.5738 39.198 35.9698 39.456 36.2818 39.792C36.6418 40.176 36.9058 40.602 37.0738 41.07C37.2658 41.61 37.3618 42.186 37.3618 42.798C37.3618 43.074 37.3378 43.242 37.2898 43.302C37.2298 43.386 37.1218 43.428 36.9658 43.428H30.9178C30.9178 44.004 30.9898 44.508 31.1338 44.94C31.2538 45.312 31.4578 45.66 31.7458 45.984C32.0098 46.284 32.3098 46.5 32.6458 46.632C33.0058 46.776 33.3898 46.848 33.7978 46.848C34.2298 46.848 34.5778 46.806 34.8418 46.722C35.0938 46.638 35.3458 46.536 35.5978 46.416C35.8618 46.284 36.0418 46.188 36.1378 46.128C36.2938 46.032 36.4138 45.984 36.4978 45.984C36.6298 45.984 36.7318 46.038 36.8038 46.146L37.2538 46.74C37.0858 46.956 36.8458 47.16 36.5338 47.352C36.1738 47.58 35.8798 47.73 35.6518 47.802C35.2918 47.922 34.9678 48.006 34.6798 48.054C34.3198 48.114 33.9898 48.144 33.6898 48.144C33.0658 48.144 32.4838 48.036 31.9438 47.82C31.4278 47.616 30.9658 47.298 30.5578 46.866C30.1738 46.47 29.8738 45.96 29.6578 45.336C29.4418 44.724 29.3338 44.028 29.3338 43.248C29.3338 42.624 29.4358 42.036 29.6398 41.484C29.8438 40.92 30.1258 40.44 30.4858 40.044C30.8578 39.636 31.3078 39.318 31.8358 39.09C32.3638 38.862 32.9518 38.748 33.5998 38.748ZM33.6358 39.918C32.8558 39.918 32.2498 40.14 31.8178 40.584C31.3738 41.052 31.0978 41.676 30.9898 42.456H35.9398C35.9398 42.084 35.8858 41.748 35.7778 41.448C35.6458 41.076 35.5018 40.806 35.3458 40.638C35.1418 40.422 34.8958 40.248 34.6078 40.116C34.3318 39.996 34.0018 39.936 33.6178 39.936L33.6358 39.918ZM43.5392 48.144C42.8432 48.144 42.2912 47.94 41.8832 47.532C41.4992 47.148 41.3072 46.572 41.3072 45.804V40.224H40.2092C40.1012 40.224 40.0172 40.2 39.9572 40.152C39.8972 40.104 39.8672 40.014 39.8672 39.882V39.252L41.3612 39.054L41.7212 36.228C41.7212 36.132 41.7572 36.06 41.8292 36.012C41.8892 35.964 41.9732 35.94 42.0812 35.94H42.8912V39.072H45.5012V40.242H42.8912V45.714C42.8912 46.11 42.9812 46.398 43.1612 46.578C43.3412 46.758 43.5872 46.848 43.8992 46.848C44.0312 46.848 44.1812 46.824 44.3492 46.776C44.4572 46.74 44.5652 46.692 44.6732 46.632C44.7092 46.608 44.7452 46.584 44.7812 46.56C44.8172 46.536 44.8532 46.512 44.8892 46.488C44.9852 46.44 45.0452 46.416 45.0692 46.416C45.1532 46.416 45.2252 46.464 45.2852 46.56L45.7532 47.316C45.4292 47.592 45.0932 47.796 44.7452 47.928C44.3492 48.072 43.9472 48.144 43.5392 48.144ZM51.5003 40.116C52.3763 39.204 53.3483 38.748 54.4163 38.748C55.3883 38.748 56.1443 39.06 56.6843 39.684C57.2123 40.308 57.4763 41.148 57.4763 42.204V46.686C58.0523 46.794 58.3943 46.866 58.5023 46.902C58.6823 46.938 58.7723 47.052 58.7723 47.244V48H55.8743V42.204C55.8743 40.752 55.2323 40.026 53.9483 40.026C53.0723 40.026 52.2563 40.452 51.5003 41.304V46.704L51.7163 46.74L52.5083 46.902C52.7003 46.938 52.7963 47.052 52.7963 47.244V48H48.5843V47.244C48.5843 47.052 48.6803 46.938 48.8723 46.902L49.8803 46.704V36.066C49.1963 35.958 48.8003 35.886 48.6923 35.85C48.5003 35.814 48.4043 35.7 48.4043 35.508V34.752H51.5003V40.116ZM65.7743 38.748C66.4343 38.748 67.0343 38.856 67.5743 39.072C68.1023 39.288 68.5643 39.6 68.9603 40.008C69.3323 40.392 69.6203 40.884 69.8243 41.484C70.0283 42.072 70.1303 42.72 70.1303 43.428C70.1303 44.136 70.0283 44.784 69.8243 45.372C69.6203 45.972 69.3323 46.464 68.9603 46.848C68.5643 47.256 68.1023 47.568 67.5743 47.784C67.0343 48 66.4343 48.108 65.7743 48.108C65.1143 48.108 64.5143 48 63.9743 47.784C63.4463 47.568 62.9843 47.256 62.5883 46.848C62.2283 46.476 61.9343 45.984 61.7063 45.372C61.5143 44.856 61.4183 44.208 61.4183 43.428C61.4183 42.648 61.5143 42 61.7063 41.484C61.9343 40.872 62.2283 40.38 62.5883 40.008C62.9843 39.6 63.4463 39.288 63.9743 39.072C64.5143 38.856 65.1143 38.748 65.7743 38.748ZM65.7743 46.884C66.6983 46.884 67.3703 46.584 67.7903 45.984C68.2343 45.36 68.4563 44.514 68.4563 43.446C68.4563 42.378 68.2343 41.532 67.7903 40.908C67.3703 40.308 66.6983 40.008 65.7743 40.008C65.3063 40.008 64.9103 40.08 64.5863 40.224C64.2743 40.368 63.9983 40.596 63.7583 40.908C63.5303 41.22 63.3623 41.58 63.2543 41.988C63.1343 42.468 63.0743 42.96 63.0743 43.464C63.0743 43.944 63.1343 44.424 63.2543 44.904C63.3623 45.312 63.5303 45.672 63.7583 45.984C63.9623 46.26 64.2383 46.476 64.5863 46.632C64.9703 46.8 65.3663 46.884 65.7743 46.884ZM77.233 38.712C78.241 38.712 79.069 39.072 79.717 39.792V36.048L78.511 35.832C78.331 35.796 78.241 35.688 78.241 35.508V34.716H81.301V46.668C81.901 46.776 82.249 46.848 82.345 46.884C82.513 46.92 82.597 47.028 82.597 47.208V48H80.365C80.149 48 80.005 47.886 79.933 47.658L79.789 46.56C78.937 47.592 77.917 48.108 76.729 48.108C75.661 48.108 74.821 47.712 74.209 46.92C73.585 46.092 73.273 44.94 73.273 43.464C73.273 42.084 73.627 40.956 74.335 40.08C75.067 39.168 76.033 38.712 77.233 38.712ZM77.269 46.83C78.217 46.83 79.033 46.368 79.717 45.444V41.052C79.177 40.332 78.475 39.972 77.611 39.972C76.735 39.972 76.069 40.272 75.613 40.872C75.157 41.472 74.929 42.336 74.929 43.464C74.929 45.18 75.373 46.236 76.261 46.632C76.537 46.752 76.867 46.812 77.251 46.812L77.269 46.83ZM16.732 68.178C18.028 68.754 18.676 69.72 18.676 71.076C18.676 72.264 18.304 73.23 17.56 73.974C16.78 74.754 15.712 75.144 14.356 75.144C13.792 75.144 13.204 75.09 12.592 74.982C12.112 74.898 11.632 74.784 11.152 74.64L10.63 74.46V71.22H11.512C11.716 71.22 11.836 71.322 11.872 71.526C11.896 71.622 11.926 71.916 11.962 72.408L12.016 73.2C12.952 73.536 13.684 73.704 14.212 73.704C14.74 73.704 15.184 73.644 15.544 73.524C15.892 73.416 16.168 73.254 16.372 73.038C16.828 72.618 17.056 72.048 17.056 71.328C17.056 70.632 16.732 70.104 16.084 69.744C15.796 69.564 15.472 69.42 15.112 69.312C13.828 68.916 13.072 68.664 12.844 68.556C12.496 68.4 12.166 68.184 11.854 67.908C11.218 67.344 10.9 66.54 10.9 65.496C10.9 64.548 11.242 63.732 11.926 63.048C12.67 62.328 13.63 61.968 14.806 61.968C16.054 61.968 17.26 62.208 18.424 62.688V65.658H17.56C17.344 65.658 17.218 65.556 17.182 65.352C17.182 65.316 17.17 65.196 17.146 64.992C17.134 64.776 17.104 64.362 17.056 63.75C16.216 63.522 15.508 63.408 14.932 63.408C14.152 63.408 13.552 63.6 13.132 63.984C12.724 64.356 12.52 64.836 12.52 65.424C12.52 66.06 12.844 66.558 13.492 66.918C13.756 67.086 14.092 67.236 14.5 67.368C15.58 67.728 16.336 67.998 16.768 68.178H16.732ZM22.7775 63.822C22.6815 63.726 22.5975 63.606 22.5255 63.462C22.4655 63.342 22.4355 63.198 22.4355 63.03C22.4355 62.85 22.4655 62.7 22.5255 62.58C22.6095 62.412 22.6935 62.286 22.7775 62.202C22.8735 62.106 22.9935 62.022 23.1375 61.95C23.2575 61.89 23.4015 61.86 23.5695 61.86C23.7375 61.86 23.8815 61.89 24.0015 61.95C24.1455 62.022 24.2655 62.106 24.3615 62.202C24.4455 62.286 24.5295 62.412 24.6135 62.58C24.6855 62.724 24.7215 62.874 24.7215 63.03C24.7215 63.174 24.6855 63.318 24.6135 63.462C24.5415 63.606 24.4575 63.726 24.3615 63.822C24.2655 63.918 24.1455 64.002 24.0015 64.074C23.8815 64.134 23.7375 64.164 23.5695 64.164C23.4015 64.164 23.2575 64.134 23.1375 64.074C22.9935 64.002 22.8735 63.918 22.7775 63.822ZM25.3875 73.884C25.4715 73.896 25.5375 73.938 25.5855 74.01C25.6335 74.07 25.6575 74.142 25.6575 74.226V75H21.4635V74.226C21.4635 74.142 21.4875 74.07 21.5355 74.01C21.5835 73.938 21.6495 73.896 21.7335 73.884L22.7775 73.686V67.188L21.7335 66.99C21.6495 66.978 21.5835 66.942 21.5355 66.882C21.4875 66.81 21.4635 66.732 21.4635 66.648V65.892H24.3615V73.686L25.3875 73.884ZM31.3106 67.17C32.0786 66.222 32.9366 65.748 33.8846 65.748C34.5086 65.748 35.0126 65.922 35.3966 66.27C35.7686 66.606 36.0446 67.068 36.2246 67.656C36.4886 67.008 36.8846 66.528 37.4126 66.216C37.9646 65.904 38.4926 65.748 38.9966 65.748C39.5246 65.748 39.9926 65.826 40.4006 65.982C40.7846 66.126 41.1086 66.348 41.3726 66.648C41.9006 67.248 42.1646 68.1 42.1646 69.204V73.704C42.7646 73.812 43.1126 73.884 43.2086 73.92C43.3886 73.956 43.4786 74.064 43.4786 74.244V75.036H40.5806V69.222C40.5806 68.49 40.4246 67.95 40.1126 67.602C39.7766 67.23 39.3206 67.044 38.7446 67.044C38.1926 67.044 37.7366 67.224 37.3766 67.584C36.9806 67.98 36.7826 68.52 36.7826 69.204V73.704C36.8306 73.716 36.9326 73.74 37.0886 73.776C37.2446 73.812 37.4846 73.86 37.8086 73.92C37.9886 73.956 38.0786 74.064 38.0786 74.244V75.018H35.1806V69.204C35.1806 67.764 34.6046 67.044 33.4526 67.044C32.7086 67.044 32.0306 67.44 31.4186 68.232V73.704L31.9046 73.794L32.4446 73.902C32.6246 73.938 32.7146 74.052 32.7146 74.244V75H28.5206V74.244C28.5206 74.052 28.6046 73.938 28.7726 73.902L29.8166 73.704V67.206C29.2166 67.098 28.8686 67.026 28.7726 66.99C28.6046 66.954 28.5206 66.84 28.5206 66.648V65.892H30.7526C30.9686 65.892 31.1126 66 31.1846 66.216L31.3106 67.152V67.17ZM50.0776 73.884C50.9776 73.884 51.7996 73.464 52.5436 72.624V67.224C52.4356 67.188 52.0936 67.116 51.5176 67.008C51.3376 66.972 51.2476 66.858 51.2476 66.666V65.892H54.1456V73.704C54.7216 73.812 55.0636 73.884 55.1716 73.92C55.3516 73.956 55.4416 74.064 55.4416 74.244V75.018H53.1916C52.9756 75.018 52.8316 74.904 52.7596 74.676L52.6336 73.704C51.7696 74.676 50.7616 75.162 49.6096 75.162C48.6376 75.162 47.8816 74.844 47.3416 74.208C46.8136 73.572 46.5496 72.738 46.5496 71.706V67.206C45.9976 67.098 45.6616 67.026 45.5416 66.99C45.3496 66.954 45.2536 66.84 45.2536 66.648V65.892H48.1696V71.688C48.1696 72.408 48.3256 72.948 48.6376 73.308C48.9616 73.68 49.4416 73.866 50.0776 73.866V73.884ZM62.2176 73.884C62.4096 73.92 62.5056 74.034 62.5056 74.226V75H58.2936V74.226C58.2936 74.034 58.3896 73.92 58.5816 73.884L59.5896 73.686V63.048C59.0376 62.94 58.7016 62.868 58.5816 62.832C58.3896 62.796 58.2936 62.688 58.2936 62.508V61.734H61.2096V73.668C61.7616 73.776 62.0976 73.848 62.2176 73.884ZM73.2343 73.848C73.3183 73.86 73.3843 73.902 73.4323 73.974C73.4803 74.034 73.5043 74.106 73.5043 74.19V74.964H71.6323C71.5243 74.964 71.3983 74.94 71.2543 74.892C71.1703 74.868 71.1103 74.772 71.0743 74.604L70.8943 73.74L70.1743 74.334C69.9703 74.502 69.7303 74.646 69.4543 74.766C69.1903 74.886 68.9263 74.976 68.6623 75.036C68.4223 75.096 68.0983 75.126 67.6903 75.126C67.3543 75.126 67.0303 75.072 66.7183 74.964C66.3463 74.832 66.0763 74.688 65.9083 74.532C65.6923 74.34 65.5123 74.088 65.3683 73.776C65.2363 73.5 65.1703 73.14 65.1703 72.696C65.1703 72.312 65.2663 71.964 65.4583 71.652C65.6743 71.304 65.9983 71.004 66.4303 70.752C66.9103 70.476 67.4863 70.26 68.1583 70.104C68.8543 69.948 69.7303 69.87 70.7863 69.87V69.168C70.7863 68.46 70.6303 67.92 70.3183 67.548C70.0063 67.176 69.5563 66.99 68.9683 66.99C68.5843 66.99 68.2543 67.044 67.9783 67.152C67.6663 67.272 67.4383 67.38 67.2943 67.476C67.2223 67.524 67.1383 67.578 67.0423 67.638C66.9583 67.686 66.8683 67.74 66.7723 67.8C66.6403 67.896 66.5023 67.944 66.3583 67.944C66.2263 67.944 66.1303 67.92 66.0703 67.872C65.9983 67.812 65.9383 67.74 65.8903 67.656L65.6023 67.152C66.0703 66.696 66.6103 66.336 67.2223 66.072C67.7743 65.832 68.4223 65.712 69.1663 65.712C69.7063 65.712 70.1623 65.796 70.5343 65.964C70.9423 66.144 71.2723 66.372 71.5243 66.648C71.7883 66.924 71.9923 67.284 72.1363 67.728C72.2683 68.124 72.3343 68.592 72.3343 69.132V73.686C72.9103 73.806 73.2103 73.872 73.2343 73.884V73.848ZM70.7503 70.896C69.9703 70.896 69.3463 70.938 68.8783 71.022C68.4223 71.106 68.0023 71.232 67.6183 71.4C67.2823 71.556 67.0423 71.736 66.8983 71.94C66.7543 72.156 66.6823 72.384 66.6823 72.624C66.6823 72.816 66.7243 73.02 66.8083 73.236C66.8803 73.416 66.9883 73.56 67.1323 73.668C67.2763 73.776 67.4323 73.854 67.6003 73.902C67.8043 73.962 68.0023 73.992 68.1943 73.992C68.4343 73.992 68.6863 73.962 68.9503 73.902C69.1903 73.842 69.4123 73.764 69.6163 73.668C69.7963 73.584 69.9943 73.452 70.2103 73.272C70.3303 73.176 70.5103 73.008 70.7503 72.768V70.896ZM79.1279 75.144C78.4319 75.144 77.8799 74.94 77.4719 74.532C77.0879 74.148 76.8959 73.572 76.8959 72.804V67.224H75.7979C75.6899 67.224 75.6059 67.2 75.5459 67.152C75.4859 67.104 75.4559 67.014 75.4559 66.882V66.252L76.9499 66.054L77.3099 63.228C77.3099 63.132 77.3459 63.06 77.4179 63.012C77.4779 62.964 77.5619 62.94 77.6699 62.94H78.4799V66.072H81.0899V67.242H78.4799V72.714C78.4799 73.11 78.5699 73.398 78.7499 73.578C78.9299 73.758 79.1759 73.848 79.4879 73.848C79.6199 73.848 79.7699 73.824 79.9379 73.776C80.0459 73.74 80.1539 73.692 80.2619 73.632C80.2979 73.608 80.3339 73.584 80.3699 73.56C80.4059 73.536 80.4419 73.512 80.4779 73.488C80.5739 73.44 80.6339 73.416 80.6579 73.416C80.7419 73.416 80.8139 73.464 80.8739 73.56L81.3419 74.316C81.0179 74.592 80.6819 74.796 80.3339 74.928C79.9379 75.072 79.5359 75.144 79.1279 75.144ZM88.3129 65.748C88.9729 65.748 89.5729 65.856 90.1129 66.072C90.6409 66.288 91.1029 66.6 91.4989 67.008C91.8709 67.392 92.1589 67.884 92.3629 68.484C92.5669 69.072 92.6689 69.72 92.6689 70.428C92.6689 71.136 92.5669 71.784 92.3629 72.372C92.1589 72.972 91.8709 73.464 91.4989 73.848C91.1029 74.256 90.6409 74.568 90.1129 74.784C89.5729 75 88.9729 75.108 88.3129 75.108C87.6529 75.108 87.0529 75 86.5129 74.784C85.9849 74.568 85.5229 74.256 85.1269 73.848C84.7669 73.476 84.4729 72.984 84.2449 72.372C84.0529 71.856 83.9569 71.208 83.9569 70.428C83.9569 69.648 84.0529 69 84.2449 68.484C84.4729 67.872 84.7669 67.38 85.1269 67.008C85.5229 66.6 85.9849 66.288 86.5129 66.072C87.0529 65.856 87.6529 65.748 88.3129 65.748ZM88.3129 73.884C89.2369 73.884 89.9089 73.584 90.3289 72.984C90.7729 72.36 90.9949 71.514 90.9949 70.446C90.9949 69.378 90.7729 68.532 90.3289 67.908C89.9089 67.308 89.2369 67.008 88.3129 67.008C87.8449 67.008 87.4489 67.08 87.1249 67.224C86.8129 67.368 86.5369 67.596 86.2969 67.908C86.0689 68.22 85.9009 68.58 85.7929 68.988C85.6729 69.468 85.6129 69.96 85.6129 70.464C85.6129 70.944 85.6729 71.424 85.7929 71.904C85.9009 72.312 86.0689 72.672 86.2969 72.984C86.5009 73.26 86.7769 73.476 87.1249 73.632C87.5089 73.8 87.9049 73.884 88.3129 73.884ZM98.3087 67.746C98.9807 66.39 99.9047 65.712 101.081 65.712C101.549 65.712 101.963 65.82 102.323 66.036L102.125 67.242C102.089 67.398 102.011 67.476 101.891 67.476C101.807 67.476 101.663 67.446 101.459 67.386C101.255 67.326 101.009 67.296 100.721 67.296C99.6647 67.296 98.8847 67.932 98.3807 69.204V73.704L99.4067 73.902C99.5867 73.938 99.6767 74.052 99.6767 74.244V75H95.4827V74.244C95.4827 74.052 95.5727 73.938 95.7527 73.902L96.7787 73.704V67.206C96.2027 67.098 95.8607 67.026 95.7527 66.99C95.5727 66.954 95.4827 66.84 95.4827 66.648V65.892H97.6967C97.8647 65.892 97.9787 65.922 98.0387 65.982C98.0987 66.042 98.1467 66.156 98.1827 66.324L98.2907 67.746H98.3087Z" fill="white"/>
<g filter="url(#filter0_d_506_2)">
<rect x="143" y="37" width="12" height="37" fill="#D9D9D9"/>
<rect x="143.5" y="37.5" width="11" height="36" stroke="black"/>
</g>
<g filter="url(#filter1_d_506_2)">
<rect x="154" y="37" width="12" height="37" fill="#D9D9D9"/>
<rect x="154.5" y="37.5" width="11" height="36" stroke="black"/>
</g>
<g filter="url(#filter2_d_506_2)">
<rect x="165" y="37" width="12" height="37" fill="#D9D9D9"/>
<rect x="165.5" y="37.5" width="11" height="36" stroke="black"/>
</g>
<path d="M133 56L123 50.2265L123 61.7735L133 56ZM109 57L124 57L124 55L109 55L109 57Z" fill="#F9FC81"/>
<path d="M134.5 56.5C142.667 47.1667 161.3 37.3 170.5 72.5" stroke="black" stroke-width="2"/>
<defs>
<filter id="filter0_d_506_2" x="139" y="37" width="20" height="45" filterUnits="userSpaceOnUse" color-interpolation-filters="sRGB">
<feFlood flood-opacity="0" result="BackgroundImageFix"/>
<feColorMatrix in="SourceAlpha" type="matrix" values="0 0 0 0 0 0 0 0 0 0 0 0 0 0 0 0 0 0 127 0" result="hardAlpha"/>
<feOffset dy="4"/>
<feGaussianBlur stdDeviation="2"/>
<feComposite in2="hardAlpha" operator="out"/>
<feColorMatrix type="matrix" values="0 0 0 0 0 0 0 0 0 0 0 0 0 0 0 0 0 0 0.25 0"/>
<feBlend mode="normal" in2="BackgroundImageFix" result="effect1_dropShadow_506_2"/>
<feBlend mode="normal" in="SourceGraphic" in2="effect1_dropShadow_506_2" result="shape"/>
</filter>
<filter id="filter1_d_506_2" x="150" y="37" width="20" height="45" filterUnits="userSpaceOnUse" color-interpolation-filters="sRGB">
<feFlood flood-opacity="0" result="BackgroundImageFix"/>
<feColorMatrix in="SourceAlpha" type="matrix" values="0 0 0 0 0 0 0 0 0 0 0 0 0 0 0 0 0 0 127 0" result="hardAlpha"/>
<feOffset dy="4"/>
<feGaussianBlur stdDeviation="2"/>
<feComposite in2="hardAlpha" operator="out"/>
<feColorMatrix type="matrix" values="0 0 0 0 0 0 0 0 0 0 0 0 0 0 0 0 0 0 0.25 0"/>
<feBlend mode="normal" in2="BackgroundImageFix" result="effect1_dropShadow_506_2"/>
<feBlend mode="normal" in="SourceGraphic" in2="effect1_dropShadow_506_2" result="shape"/>
</filter>
<filter id="filter2_d_506_2" x="161" y="37" width="20" height="45" filterUnits="userSpaceOnUse" color-interpolation-filters="sRGB">
<feFlood flood-opacity="0" result="BackgroundImageFix"/>
<feColorMatrix in="SourceAlpha" type="matrix" values="0 0 0 0 0 0 0 0 0 0 0 0 0 0 0 0 0 0 127 0" result="hardAlpha"/>
<feOffset dy="4"/>
<feGaussianBlur stdDeviation="2"/>
<feComposite in2="hardAlpha" operator="out"/>
<feColorMatrix type="matrix" values="0 0 0 0 0 0 0 0 0 0 0 0 0 0 0 0 0 0 0.25 0"/>
<feBlend mode="normal" in2="BackgroundImageFix" result="effect1_dropShadow_506_2"/>
<feBlend mode="normal" in="SourceGraphic" in2="effect1_dropShadow_506_2" result="shape"/>
</filter>
</defs>
</svg>
